%TF.GenerationSoftware,KiCad,Pcbnew,(6.0.8-1)-1*%
%TF.CreationDate,2022-10-22T21:58:42+02:00*%
%TF.ProjectId,shunt_regulator,7368756e-745f-4726-9567-756c61746f72,rev?*%
%TF.SameCoordinates,Original*%
%TF.FileFunction,Legend,Top*%
%TF.FilePolarity,Positive*%
%FSLAX46Y46*%
G04 Gerber Fmt 4.6, Leading zero omitted, Abs format (unit mm)*
G04 Created by KiCad (PCBNEW (6.0.8-1)-1) date 2022-10-22 21:58:42*
%MOMM*%
%LPD*%
G01*
G04 APERTURE LIST*
G04 Aperture macros list*
%AMRoundRect*
0 Rectangle with rounded corners*
0 $1 Rounding radius*
0 $2 $3 $4 $5 $6 $7 $8 $9 X,Y pos of 4 corners*
0 Add a 4 corners polygon primitive as box body*
4,1,4,$2,$3,$4,$5,$6,$7,$8,$9,$2,$3,0*
0 Add four circle primitives for the rounded corners*
1,1,$1+$1,$2,$3*
1,1,$1+$1,$4,$5*
1,1,$1+$1,$6,$7*
1,1,$1+$1,$8,$9*
0 Add four rect primitives between the rounded corners*
20,1,$1+$1,$2,$3,$4,$5,0*
20,1,$1+$1,$4,$5,$6,$7,0*
20,1,$1+$1,$6,$7,$8,$9,0*
20,1,$1+$1,$8,$9,$2,$3,0*%
G04 Aperture macros list end*
%ADD10C,0.150000*%
%ADD11C,0.300000*%
%ADD12C,0.120000*%
%ADD13C,6.500000*%
%ADD14RoundRect,0.150000X0.150000X-0.587500X0.150000X0.587500X-0.150000X0.587500X-0.150000X-0.587500X0*%
%ADD15RoundRect,0.150000X0.825000X0.150000X-0.825000X0.150000X-0.825000X-0.150000X0.825000X-0.150000X0*%
%ADD16RoundRect,0.250000X-1.000000X1.750000X-1.000000X-1.750000X1.000000X-1.750000X1.000000X1.750000X0*%
%ADD17RoundRect,0.243750X0.243750X0.456250X-0.243750X0.456250X-0.243750X-0.456250X0.243750X-0.456250X0*%
%ADD18R,1.100000X1.100000*%
%ADD19R,1.200000X2.200000*%
%ADD20R,5.800000X6.400000*%
%ADD21RoundRect,0.250000X0.312500X1.075000X-0.312500X1.075000X-0.312500X-1.075000X0.312500X-1.075000X0*%
%ADD22RoundRect,0.250000X-0.312500X-1.075000X0.312500X-1.075000X0.312500X1.075000X-0.312500X1.075000X0*%
%ADD23RoundRect,0.250000X-0.450000X0.262500X-0.450000X-0.262500X0.450000X-0.262500X0.450000X0.262500X0*%
%ADD24RoundRect,0.250000X-0.262500X-0.450000X0.262500X-0.450000X0.262500X0.450000X-0.262500X0.450000X0*%
%ADD25RoundRect,0.250000X0.450000X-0.262500X0.450000X0.262500X-0.450000X0.262500X-0.450000X-0.262500X0*%
%ADD26R,2.200000X1.200000*%
%ADD27R,6.400000X5.800000*%
%ADD28RoundRect,0.250000X1.075000X-0.312500X1.075000X0.312500X-1.075000X0.312500X-1.075000X-0.312500X0*%
%ADD29RoundRect,0.243750X-0.243750X-0.456250X0.243750X-0.456250X0.243750X0.456250X-0.243750X0.456250X0*%
%ADD30C,1.440000*%
%ADD31RoundRect,0.250000X2.475000X-0.712500X2.475000X0.712500X-2.475000X0.712500X-2.475000X-0.712500X0*%
%ADD32C,10.000000*%
%ADD33RoundRect,0.250000X0.262500X0.450000X-0.262500X0.450000X-0.262500X-0.450000X0.262500X-0.450000X0*%
%ADD34RoundRect,0.150000X-0.587500X-0.150000X0.587500X-0.150000X0.587500X0.150000X-0.587500X0.150000X0*%
%ADD35RoundRect,0.243750X0.456250X-0.243750X0.456250X0.243750X-0.456250X0.243750X-0.456250X-0.243750X0*%
G04 APERTURE END LIST*
D10*
X-2523809Y-7302379D02*
X-3000000Y-7302379D01*
X-3047619Y-7778570D01*
X-3000000Y-7730951D01*
X-2904761Y-7683332D01*
X-2666666Y-7683332D01*
X-2571428Y-7730951D01*
X-2523809Y-7778570D01*
X-2476190Y-7873808D01*
X-2476190Y-8111903D01*
X-2523809Y-8207141D01*
X-2571428Y-8254760D01*
X-2666666Y-8302379D01*
X-2904761Y-8302379D01*
X-3000000Y-8254760D01*
X-3047619Y-8207141D01*
X-1571428Y-7302379D02*
X-2047619Y-7302379D01*
X-2095238Y-7778570D01*
X-2047619Y-7730951D01*
X-1952380Y-7683332D01*
X-1714285Y-7683332D01*
X-1619047Y-7730951D01*
X-1571428Y-7778570D01*
X-1523809Y-7873808D01*
X-1523809Y-8111903D01*
X-1571428Y-8207141D01*
X-1619047Y-8254760D01*
X-1714285Y-8302379D01*
X-1952380Y-8302379D01*
X-2047619Y-8254760D01*
X-2095238Y-8207141D01*
X-1238095Y-7302379D02*
X-904761Y-8302379D01*
X-571428Y-7302379D01*
X523809Y-8302379D02*
X523809Y-7302379D01*
X857142Y-8016665D01*
X1190476Y-7302379D01*
X1190476Y-8302379D01*
X1619047Y-8016665D02*
X2095238Y-8016665D01*
X1523809Y-8302379D02*
X1857142Y-7302379D01*
X2190476Y-8302379D01*
X2428571Y-7302379D02*
X3095238Y-8302379D01*
X3095238Y-7302379D02*
X2428571Y-8302379D01*
X-19050000Y-500000D02*
X-19050000Y-9586419D01*
X19050000Y-500000D02*
X19050000Y-9586419D01*
X-19050000Y-8999999D02*
X19050000Y-8999999D01*
X-19050000Y-8999999D02*
X19050000Y-8999999D01*
X-19050000Y-8999999D02*
X-17923496Y-9586420D01*
X-19050000Y-8999999D02*
X-17923496Y-8413578D01*
X19050000Y-8999999D02*
X17923496Y-8413578D01*
X19050000Y-8999999D02*
X17923496Y-9586420D01*
%TO.C,Q1*%
X6635761Y-14914619D02*
X6540523Y-14867000D01*
X6445285Y-14771761D01*
X6302428Y-14628904D01*
X6207190Y-14581285D01*
X6111952Y-14581285D01*
X6159571Y-14819380D02*
X6064333Y-14771761D01*
X5969095Y-14676523D01*
X5921476Y-14486047D01*
X5921476Y-14152714D01*
X5969095Y-13962238D01*
X6064333Y-13867000D01*
X6159571Y-13819380D01*
X6350047Y-13819380D01*
X6445285Y-13867000D01*
X6540523Y-13962238D01*
X6588142Y-14152714D01*
X6588142Y-14486047D01*
X6540523Y-14676523D01*
X6445285Y-14771761D01*
X6350047Y-14819380D01*
X6159571Y-14819380D01*
X7540523Y-14819380D02*
X6969095Y-14819380D01*
X7254809Y-14819380D02*
X7254809Y-13819380D01*
X7159571Y-13962238D01*
X7064333Y-14057476D01*
X6969095Y-14105095D01*
%TO.C,U2*%
X17272095Y-13565380D02*
X17272095Y-14374904D01*
X17319714Y-14470142D01*
X17367333Y-14517761D01*
X17462571Y-14565380D01*
X17653047Y-14565380D01*
X17748285Y-14517761D01*
X17795904Y-14470142D01*
X17843523Y-14374904D01*
X17843523Y-13565380D01*
X18272095Y-13660619D02*
X18319714Y-13613000D01*
X18414952Y-13565380D01*
X18653047Y-13565380D01*
X18748285Y-13613000D01*
X18795904Y-13660619D01*
X18843523Y-13755857D01*
X18843523Y-13851095D01*
X18795904Y-13993952D01*
X18224476Y-14565380D01*
X18843523Y-14565380D01*
%TO.C,C7*%
X56475333Y-8374142D02*
X56427714Y-8421761D01*
X56284857Y-8469380D01*
X56189619Y-8469380D01*
X56046761Y-8421761D01*
X55951523Y-8326523D01*
X55903904Y-8231285D01*
X55856285Y-8040809D01*
X55856285Y-7897952D01*
X55903904Y-7707476D01*
X55951523Y-7612238D01*
X56046761Y-7517000D01*
X56189619Y-7469380D01*
X56284857Y-7469380D01*
X56427714Y-7517000D01*
X56475333Y-7564619D01*
X56808666Y-7469380D02*
X57475333Y-7469380D01*
X57046761Y-8469380D01*
%TO.C,C6*%
X3770333Y-12184142D02*
X3722714Y-12231761D01*
X3579857Y-12279380D01*
X3484619Y-12279380D01*
X3341761Y-12231761D01*
X3246523Y-12136523D01*
X3198904Y-12041285D01*
X3151285Y-11850809D01*
X3151285Y-11707952D01*
X3198904Y-11517476D01*
X3246523Y-11422238D01*
X3341761Y-11327000D01*
X3484619Y-11279380D01*
X3579857Y-11279380D01*
X3722714Y-11327000D01*
X3770333Y-11374619D01*
X4627476Y-11279380D02*
X4437000Y-11279380D01*
X4341761Y-11327000D01*
X4294142Y-11374619D01*
X4198904Y-11517476D01*
X4151285Y-11707952D01*
X4151285Y-12088904D01*
X4198904Y-12184142D01*
X4246523Y-12231761D01*
X4341761Y-12279380D01*
X4532238Y-12279380D01*
X4627476Y-12231761D01*
X4675095Y-12184142D01*
X4722714Y-12088904D01*
X4722714Y-11850809D01*
X4675095Y-11755571D01*
X4627476Y-11707952D01*
X4532238Y-11660333D01*
X4341761Y-11660333D01*
X4246523Y-11707952D01*
X4198904Y-11755571D01*
X4151285Y-11850809D01*
%TO.C,D1*%
X-20169095Y-19899380D02*
X-20169095Y-18899380D01*
X-19931000Y-18899380D01*
X-19788142Y-18947000D01*
X-19692904Y-19042238D01*
X-19645285Y-19137476D01*
X-19597666Y-19327952D01*
X-19597666Y-19470809D01*
X-19645285Y-19661285D01*
X-19692904Y-19756523D01*
X-19788142Y-19851761D01*
X-19931000Y-19899380D01*
X-20169095Y-19899380D01*
X-18645285Y-19899380D02*
X-19216714Y-19899380D01*
X-18931000Y-19899380D02*
X-18931000Y-18899380D01*
X-19026238Y-19042238D01*
X-19121476Y-19137476D01*
X-19216714Y-19185095D01*
%TO.C,D2*%
X-23598095Y-8469380D02*
X-23598095Y-7469380D01*
X-23360000Y-7469380D01*
X-23217142Y-7517000D01*
X-23121904Y-7612238D01*
X-23074285Y-7707476D01*
X-23026666Y-7897952D01*
X-23026666Y-8040809D01*
X-23074285Y-8231285D01*
X-23121904Y-8326523D01*
X-23217142Y-8421761D01*
X-23360000Y-8469380D01*
X-23598095Y-8469380D01*
X-22645714Y-7564619D02*
X-22598095Y-7517000D01*
X-22502857Y-7469380D01*
X-22264761Y-7469380D01*
X-22169523Y-7517000D01*
X-22121904Y-7564619D01*
X-22074285Y-7659857D01*
X-22074285Y-7755095D01*
X-22121904Y-7897952D01*
X-22693333Y-8469380D01*
X-22074285Y-8469380D01*
%TO.C,Q4*%
X42322761Y3881380D02*
X42227523Y3929000D01*
X42132285Y4024238D01*
X41989428Y4167095D01*
X41894190Y4214714D01*
X41798952Y4214714D01*
X41846571Y3976619D02*
X41751333Y4024238D01*
X41656095Y4119476D01*
X41608476Y4309952D01*
X41608476Y4643285D01*
X41656095Y4833761D01*
X41751333Y4929000D01*
X41846571Y4976619D01*
X42037047Y4976619D01*
X42132285Y4929000D01*
X42227523Y4833761D01*
X42275142Y4643285D01*
X42275142Y4309952D01*
X42227523Y4119476D01*
X42132285Y4024238D01*
X42037047Y3976619D01*
X41846571Y3976619D01*
X43132285Y4643285D02*
X43132285Y3976619D01*
X42894190Y5024238D02*
X42656095Y4309952D01*
X43275142Y4309952D01*
%TO.C,R32*%
X37418642Y45378619D02*
X37085309Y45854809D01*
X36847214Y45378619D02*
X36847214Y46378619D01*
X37228166Y46378619D01*
X37323404Y46331000D01*
X37371023Y46283380D01*
X37418642Y46188142D01*
X37418642Y46045285D01*
X37371023Y45950047D01*
X37323404Y45902428D01*
X37228166Y45854809D01*
X36847214Y45854809D01*
X37751976Y46378619D02*
X38371023Y46378619D01*
X38037690Y45997666D01*
X38180547Y45997666D01*
X38275785Y45950047D01*
X38323404Y45902428D01*
X38371023Y45807190D01*
X38371023Y45569095D01*
X38323404Y45473857D01*
X38275785Y45426238D01*
X38180547Y45378619D01*
X37894833Y45378619D01*
X37799595Y45426238D01*
X37751976Y45473857D01*
X38751976Y46283380D02*
X38799595Y46331000D01*
X38894833Y46378619D01*
X39132928Y46378619D01*
X39228166Y46331000D01*
X39275785Y46283380D01*
X39323404Y46188142D01*
X39323404Y46092904D01*
X39275785Y45950047D01*
X38704357Y45378619D01*
X39323404Y45378619D01*
%TO.C,R13*%
X50919142Y34075619D02*
X50585809Y34551809D01*
X50347714Y34075619D02*
X50347714Y35075619D01*
X50728666Y35075619D01*
X50823904Y35028000D01*
X50871523Y34980380D01*
X50919142Y34885142D01*
X50919142Y34742285D01*
X50871523Y34647047D01*
X50823904Y34599428D01*
X50728666Y34551809D01*
X50347714Y34551809D01*
X51871523Y34075619D02*
X51300095Y34075619D01*
X51585809Y34075619D02*
X51585809Y35075619D01*
X51490571Y34932761D01*
X51395333Y34837523D01*
X51300095Y34789904D01*
X52204857Y35075619D02*
X52823904Y35075619D01*
X52490571Y34694666D01*
X52633428Y34694666D01*
X52728666Y34647047D01*
X52776285Y34599428D01*
X52823904Y34504190D01*
X52823904Y34266095D01*
X52776285Y34170857D01*
X52728666Y34123238D01*
X52633428Y34075619D01*
X52347714Y34075619D01*
X52252476Y34123238D01*
X52204857Y34170857D01*
%TO.C,R35*%
X37418642Y62396619D02*
X37085309Y62872809D01*
X36847214Y62396619D02*
X36847214Y63396619D01*
X37228166Y63396619D01*
X37323404Y63349000D01*
X37371023Y63301380D01*
X37418642Y63206142D01*
X37418642Y63063285D01*
X37371023Y62968047D01*
X37323404Y62920428D01*
X37228166Y62872809D01*
X36847214Y62872809D01*
X37751976Y63396619D02*
X38371023Y63396619D01*
X38037690Y63015666D01*
X38180547Y63015666D01*
X38275785Y62968047D01*
X38323404Y62920428D01*
X38371023Y62825190D01*
X38371023Y62587095D01*
X38323404Y62491857D01*
X38275785Y62444238D01*
X38180547Y62396619D01*
X37894833Y62396619D01*
X37799595Y62444238D01*
X37751976Y62491857D01*
X39275785Y63396619D02*
X38799595Y63396619D01*
X38751976Y62920428D01*
X38799595Y62968047D01*
X38894833Y63015666D01*
X39132928Y63015666D01*
X39228166Y62968047D01*
X39275785Y62920428D01*
X39323404Y62825190D01*
X39323404Y62587095D01*
X39275785Y62491857D01*
X39228166Y62444238D01*
X39132928Y62396619D01*
X38894833Y62396619D01*
X38799595Y62444238D01*
X38751976Y62491857D01*
%TO.C,R19*%
X37418642Y5500619D02*
X37085309Y5976809D01*
X36847214Y5500619D02*
X36847214Y6500619D01*
X37228166Y6500619D01*
X37323404Y6453000D01*
X37371023Y6405380D01*
X37418642Y6310142D01*
X37418642Y6167285D01*
X37371023Y6072047D01*
X37323404Y6024428D01*
X37228166Y5976809D01*
X36847214Y5976809D01*
X38371023Y5500619D02*
X37799595Y5500619D01*
X38085309Y5500619D02*
X38085309Y6500619D01*
X37990071Y6357761D01*
X37894833Y6262523D01*
X37799595Y6214904D01*
X38847214Y5500619D02*
X39037690Y5500619D01*
X39132928Y5548238D01*
X39180547Y5595857D01*
X39275785Y5738714D01*
X39323404Y5929190D01*
X39323404Y6310142D01*
X39275785Y6405380D01*
X39228166Y6453000D01*
X39132928Y6500619D01*
X38942452Y6500619D01*
X38847214Y6453000D01*
X38799595Y6405380D01*
X38751976Y6310142D01*
X38751976Y6072047D01*
X38799595Y5976809D01*
X38847214Y5929190D01*
X38942452Y5881571D01*
X39132928Y5881571D01*
X39228166Y5929190D01*
X39275785Y5976809D01*
X39323404Y6072047D01*
%TO.C,R2*%
X1595380Y-12247666D02*
X1119190Y-12581000D01*
X1595380Y-12819095D02*
X595380Y-12819095D01*
X595380Y-12438142D01*
X643000Y-12342904D01*
X690619Y-12295285D01*
X785857Y-12247666D01*
X928714Y-12247666D01*
X1023952Y-12295285D01*
X1071571Y-12342904D01*
X1119190Y-12438142D01*
X1119190Y-12819095D01*
X690619Y-11866714D02*
X643000Y-11819095D01*
X595380Y-11723857D01*
X595380Y-11485761D01*
X643000Y-11390523D01*
X690619Y-11342904D01*
X785857Y-11295285D01*
X881095Y-11295285D01*
X1023952Y-11342904D01*
X1595380Y-11914333D01*
X1595380Y-11295285D01*
%TO.C,R3*%
X-26963666Y-11517380D02*
X-27297000Y-11041190D01*
X-27535095Y-11517380D02*
X-27535095Y-10517380D01*
X-27154142Y-10517380D01*
X-27058904Y-10565000D01*
X-27011285Y-10612619D01*
X-26963666Y-10707857D01*
X-26963666Y-10850714D01*
X-27011285Y-10945952D01*
X-27058904Y-10993571D01*
X-27154142Y-11041190D01*
X-27535095Y-11041190D01*
X-26630333Y-10517380D02*
X-26011285Y-10517380D01*
X-26344619Y-10898333D01*
X-26201761Y-10898333D01*
X-26106523Y-10945952D01*
X-26058904Y-10993571D01*
X-26011285Y-11088809D01*
X-26011285Y-11326904D01*
X-26058904Y-11422142D01*
X-26106523Y-11469761D01*
X-26201761Y-11517380D01*
X-26487476Y-11517380D01*
X-26582714Y-11469761D01*
X-26630333Y-11422142D01*
%TO.C,R15*%
X50919142Y22645619D02*
X50585809Y23121809D01*
X50347714Y22645619D02*
X50347714Y23645619D01*
X50728666Y23645619D01*
X50823904Y23598000D01*
X50871523Y23550380D01*
X50919142Y23455142D01*
X50919142Y23312285D01*
X50871523Y23217047D01*
X50823904Y23169428D01*
X50728666Y23121809D01*
X50347714Y23121809D01*
X51871523Y22645619D02*
X51300095Y22645619D01*
X51585809Y22645619D02*
X51585809Y23645619D01*
X51490571Y23502761D01*
X51395333Y23407523D01*
X51300095Y23359904D01*
X52776285Y23645619D02*
X52300095Y23645619D01*
X52252476Y23169428D01*
X52300095Y23217047D01*
X52395333Y23264666D01*
X52633428Y23264666D01*
X52728666Y23217047D01*
X52776285Y23169428D01*
X52823904Y23074190D01*
X52823904Y22836095D01*
X52776285Y22740857D01*
X52728666Y22693238D01*
X52633428Y22645619D01*
X52395333Y22645619D01*
X52300095Y22693238D01*
X52252476Y22740857D01*
%TO.C,R10*%
X21661380Y-13866857D02*
X21185190Y-14200190D01*
X21661380Y-14438285D02*
X20661380Y-14438285D01*
X20661380Y-14057333D01*
X20709000Y-13962095D01*
X20756619Y-13914476D01*
X20851857Y-13866857D01*
X20994714Y-13866857D01*
X21089952Y-13914476D01*
X21137571Y-13962095D01*
X21185190Y-14057333D01*
X21185190Y-14438285D01*
X21661380Y-12914476D02*
X21661380Y-13485904D01*
X21661380Y-13200190D02*
X20661380Y-13200190D01*
X20804238Y-13295428D01*
X20899476Y-13390666D01*
X20947095Y-13485904D01*
X20661380Y-12295428D02*
X20661380Y-12200190D01*
X20709000Y-12104952D01*
X20756619Y-12057333D01*
X20851857Y-12009714D01*
X21042333Y-11962095D01*
X21280428Y-11962095D01*
X21470904Y-12009714D01*
X21566142Y-12057333D01*
X21613761Y-12104952D01*
X21661380Y-12200190D01*
X21661380Y-12295428D01*
X21613761Y-12390666D01*
X21566142Y-12438285D01*
X21470904Y-12485904D01*
X21280428Y-12533523D01*
X21042333Y-12533523D01*
X20851857Y-12485904D01*
X20756619Y-12438285D01*
X20709000Y-12390666D01*
X20661380Y-12295428D01*
%TO.C,R6*%
X7310380Y-16184666D02*
X6834190Y-16518000D01*
X7310380Y-16756095D02*
X6310380Y-16756095D01*
X6310380Y-16375142D01*
X6358000Y-16279904D01*
X6405619Y-16232285D01*
X6500857Y-16184666D01*
X6643714Y-16184666D01*
X6738952Y-16232285D01*
X6786571Y-16279904D01*
X6834190Y-16375142D01*
X6834190Y-16756095D01*
X6310380Y-15327523D02*
X6310380Y-15518000D01*
X6358000Y-15613238D01*
X6405619Y-15660857D01*
X6548476Y-15756095D01*
X6738952Y-15803714D01*
X7119904Y-15803714D01*
X7215142Y-15756095D01*
X7262761Y-15708476D01*
X7310380Y-15613238D01*
X7310380Y-15422761D01*
X7262761Y-15327523D01*
X7215142Y-15279904D01*
X7119904Y-15232285D01*
X6881809Y-15232285D01*
X6786571Y-15279904D01*
X6738952Y-15327523D01*
X6691333Y-15422761D01*
X6691333Y-15613238D01*
X6738952Y-15708476D01*
X6786571Y-15756095D01*
X6881809Y-15803714D01*
%TO.C,U1*%
X-15366904Y-10009380D02*
X-15366904Y-10818904D01*
X-15319285Y-10914142D01*
X-15271666Y-10961761D01*
X-15176428Y-11009380D01*
X-14985952Y-11009380D01*
X-14890714Y-10961761D01*
X-14843095Y-10914142D01*
X-14795476Y-10818904D01*
X-14795476Y-10009380D01*
X-13795476Y-11009380D02*
X-14366904Y-11009380D01*
X-14081190Y-11009380D02*
X-14081190Y-10009380D01*
X-14176428Y-10152238D01*
X-14271666Y-10247476D01*
X-14366904Y-10295095D01*
%TO.C,C4*%
X24979333Y-10279142D02*
X24931714Y-10326761D01*
X24788857Y-10374380D01*
X24693619Y-10374380D01*
X24550761Y-10326761D01*
X24455523Y-10231523D01*
X24407904Y-10136285D01*
X24360285Y-9945809D01*
X24360285Y-9802952D01*
X24407904Y-9612476D01*
X24455523Y-9517238D01*
X24550761Y-9422000D01*
X24693619Y-9374380D01*
X24788857Y-9374380D01*
X24931714Y-9422000D01*
X24979333Y-9469619D01*
X25836476Y-9707714D02*
X25836476Y-10374380D01*
X25598380Y-9326761D02*
X25360285Y-10041047D01*
X25979333Y-10041047D01*
%TO.C,R28*%
X50919142Y51093619D02*
X50585809Y51569809D01*
X50347714Y51093619D02*
X50347714Y52093619D01*
X50728666Y52093619D01*
X50823904Y52046000D01*
X50871523Y51998380D01*
X50919142Y51903142D01*
X50919142Y51760285D01*
X50871523Y51665047D01*
X50823904Y51617428D01*
X50728666Y51569809D01*
X50347714Y51569809D01*
X51300095Y51998380D02*
X51347714Y52046000D01*
X51442952Y52093619D01*
X51681047Y52093619D01*
X51776285Y52046000D01*
X51823904Y51998380D01*
X51871523Y51903142D01*
X51871523Y51807904D01*
X51823904Y51665047D01*
X51252476Y51093619D01*
X51871523Y51093619D01*
X52442952Y51665047D02*
X52347714Y51712666D01*
X52300095Y51760285D01*
X52252476Y51855523D01*
X52252476Y51903142D01*
X52300095Y51998380D01*
X52347714Y52046000D01*
X52442952Y52093619D01*
X52633428Y52093619D01*
X52728666Y52046000D01*
X52776285Y51998380D01*
X52823904Y51903142D01*
X52823904Y51855523D01*
X52776285Y51760285D01*
X52728666Y51712666D01*
X52633428Y51665047D01*
X52442952Y51665047D01*
X52347714Y51617428D01*
X52300095Y51569809D01*
X52252476Y51474571D01*
X52252476Y51284095D01*
X52300095Y51188857D01*
X52347714Y51141238D01*
X52442952Y51093619D01*
X52633428Y51093619D01*
X52728666Y51141238D01*
X52776285Y51188857D01*
X52823904Y51284095D01*
X52823904Y51474571D01*
X52776285Y51569809D01*
X52728666Y51617428D01*
X52633428Y51665047D01*
%TO.C,R16*%
X50919142Y16930619D02*
X50585809Y17406809D01*
X50347714Y16930619D02*
X50347714Y17930619D01*
X50728666Y17930619D01*
X50823904Y17883000D01*
X50871523Y17835380D01*
X50919142Y17740142D01*
X50919142Y17597285D01*
X50871523Y17502047D01*
X50823904Y17454428D01*
X50728666Y17406809D01*
X50347714Y17406809D01*
X51871523Y16930619D02*
X51300095Y16930619D01*
X51585809Y16930619D02*
X51585809Y17930619D01*
X51490571Y17787761D01*
X51395333Y17692523D01*
X51300095Y17644904D01*
X52728666Y17930619D02*
X52538190Y17930619D01*
X52442952Y17883000D01*
X52395333Y17835380D01*
X52300095Y17692523D01*
X52252476Y17502047D01*
X52252476Y17121095D01*
X52300095Y17025857D01*
X52347714Y16978238D01*
X52442952Y16930619D01*
X52633428Y16930619D01*
X52728666Y16978238D01*
X52776285Y17025857D01*
X52823904Y17121095D01*
X52823904Y17359190D01*
X52776285Y17454428D01*
X52728666Y17502047D01*
X52633428Y17549666D01*
X52442952Y17549666D01*
X52347714Y17502047D01*
X52300095Y17454428D01*
X52252476Y17359190D01*
%TO.C,R29*%
X50919142Y45378619D02*
X50585809Y45854809D01*
X50347714Y45378619D02*
X50347714Y46378619D01*
X50728666Y46378619D01*
X50823904Y46331000D01*
X50871523Y46283380D01*
X50919142Y46188142D01*
X50919142Y46045285D01*
X50871523Y45950047D01*
X50823904Y45902428D01*
X50728666Y45854809D01*
X50347714Y45854809D01*
X51300095Y46283380D02*
X51347714Y46331000D01*
X51442952Y46378619D01*
X51681047Y46378619D01*
X51776285Y46331000D01*
X51823904Y46283380D01*
X51871523Y46188142D01*
X51871523Y46092904D01*
X51823904Y45950047D01*
X51252476Y45378619D01*
X51871523Y45378619D01*
X52347714Y45378619D02*
X52538190Y45378619D01*
X52633428Y45426238D01*
X52681047Y45473857D01*
X52776285Y45616714D01*
X52823904Y45807190D01*
X52823904Y46188142D01*
X52776285Y46283380D01*
X52728666Y46331000D01*
X52633428Y46378619D01*
X52442952Y46378619D01*
X52347714Y46331000D01*
X52300095Y46283380D01*
X52252476Y46188142D01*
X52252476Y45950047D01*
X52300095Y45854809D01*
X52347714Y45807190D01*
X52442952Y45759571D01*
X52633428Y45759571D01*
X52728666Y45807190D01*
X52776285Y45854809D01*
X52823904Y45950047D01*
%TO.C,R12*%
X30091142Y-11771380D02*
X29757809Y-11295190D01*
X29519714Y-11771380D02*
X29519714Y-10771380D01*
X29900666Y-10771380D01*
X29995904Y-10819000D01*
X30043523Y-10866619D01*
X30091142Y-10961857D01*
X30091142Y-11104714D01*
X30043523Y-11199952D01*
X29995904Y-11247571D01*
X29900666Y-11295190D01*
X29519714Y-11295190D01*
X31043523Y-11771380D02*
X30472095Y-11771380D01*
X30757809Y-11771380D02*
X30757809Y-10771380D01*
X30662571Y-10914238D01*
X30567333Y-11009476D01*
X30472095Y-11057095D01*
X31424476Y-10866619D02*
X31472095Y-10819000D01*
X31567333Y-10771380D01*
X31805428Y-10771380D01*
X31900666Y-10819000D01*
X31948285Y-10866619D01*
X31995904Y-10961857D01*
X31995904Y-11057095D01*
X31948285Y-11199952D01*
X31376857Y-11771380D01*
X31995904Y-11771380D01*
%TO.C,C1*%
X-26963666Y-17010142D02*
X-27011285Y-17057761D01*
X-27154142Y-17105380D01*
X-27249380Y-17105380D01*
X-27392238Y-17057761D01*
X-27487476Y-16962523D01*
X-27535095Y-16867285D01*
X-27582714Y-16676809D01*
X-27582714Y-16533952D01*
X-27535095Y-16343476D01*
X-27487476Y-16248238D01*
X-27392238Y-16153000D01*
X-27249380Y-16105380D01*
X-27154142Y-16105380D01*
X-27011285Y-16153000D01*
X-26963666Y-16200619D01*
X-26011285Y-17105380D02*
X-26582714Y-17105380D01*
X-26297000Y-17105380D02*
X-26297000Y-16105380D01*
X-26392238Y-16248238D01*
X-26487476Y-16343476D01*
X-26582714Y-16391095D01*
%TO.C,R33*%
X37418642Y51093619D02*
X37085309Y51569809D01*
X36847214Y51093619D02*
X36847214Y52093619D01*
X37228166Y52093619D01*
X37323404Y52046000D01*
X37371023Y51998380D01*
X37418642Y51903142D01*
X37418642Y51760285D01*
X37371023Y51665047D01*
X37323404Y51617428D01*
X37228166Y51569809D01*
X36847214Y51569809D01*
X37751976Y52093619D02*
X38371023Y52093619D01*
X38037690Y51712666D01*
X38180547Y51712666D01*
X38275785Y51665047D01*
X38323404Y51617428D01*
X38371023Y51522190D01*
X38371023Y51284095D01*
X38323404Y51188857D01*
X38275785Y51141238D01*
X38180547Y51093619D01*
X37894833Y51093619D01*
X37799595Y51141238D01*
X37751976Y51188857D01*
X38704357Y52093619D02*
X39323404Y52093619D01*
X38990071Y51712666D01*
X39132928Y51712666D01*
X39228166Y51665047D01*
X39275785Y51617428D01*
X39323404Y51522190D01*
X39323404Y51284095D01*
X39275785Y51188857D01*
X39228166Y51141238D01*
X39132928Y51093619D01*
X38847214Y51093619D01*
X38751976Y51141238D01*
X38704357Y51188857D01*
%TO.C,R20*%
X37418642Y11215619D02*
X37085309Y11691809D01*
X36847214Y11215619D02*
X36847214Y12215619D01*
X37228166Y12215619D01*
X37323404Y12168000D01*
X37371023Y12120380D01*
X37418642Y12025142D01*
X37418642Y11882285D01*
X37371023Y11787047D01*
X37323404Y11739428D01*
X37228166Y11691809D01*
X36847214Y11691809D01*
X37799595Y12120380D02*
X37847214Y12168000D01*
X37942452Y12215619D01*
X38180547Y12215619D01*
X38275785Y12168000D01*
X38323404Y12120380D01*
X38371023Y12025142D01*
X38371023Y11929904D01*
X38323404Y11787047D01*
X37751976Y11215619D01*
X38371023Y11215619D01*
X38990071Y12215619D02*
X39085309Y12215619D01*
X39180547Y12168000D01*
X39228166Y12120380D01*
X39275785Y12025142D01*
X39323404Y11834666D01*
X39323404Y11596571D01*
X39275785Y11406095D01*
X39228166Y11310857D01*
X39180547Y11263238D01*
X39085309Y11215619D01*
X38990071Y11215619D01*
X38894833Y11263238D01*
X38847214Y11310857D01*
X38799595Y11406095D01*
X38751976Y11596571D01*
X38751976Y11834666D01*
X38799595Y12025142D01*
X38847214Y12120380D01*
X38894833Y12168000D01*
X38990071Y12215619D01*
%TO.C,R27*%
X50919142Y56935619D02*
X50585809Y57411809D01*
X50347714Y56935619D02*
X50347714Y57935619D01*
X50728666Y57935619D01*
X50823904Y57888000D01*
X50871523Y57840380D01*
X50919142Y57745142D01*
X50919142Y57602285D01*
X50871523Y57507047D01*
X50823904Y57459428D01*
X50728666Y57411809D01*
X50347714Y57411809D01*
X51300095Y57840380D02*
X51347714Y57888000D01*
X51442952Y57935619D01*
X51681047Y57935619D01*
X51776285Y57888000D01*
X51823904Y57840380D01*
X51871523Y57745142D01*
X51871523Y57649904D01*
X51823904Y57507047D01*
X51252476Y56935619D01*
X51871523Y56935619D01*
X52204857Y57935619D02*
X52871523Y57935619D01*
X52442952Y56935619D01*
%TO.C,R34*%
X37418642Y56808619D02*
X37085309Y57284809D01*
X36847214Y56808619D02*
X36847214Y57808619D01*
X37228166Y57808619D01*
X37323404Y57761000D01*
X37371023Y57713380D01*
X37418642Y57618142D01*
X37418642Y57475285D01*
X37371023Y57380047D01*
X37323404Y57332428D01*
X37228166Y57284809D01*
X36847214Y57284809D01*
X37751976Y57808619D02*
X38371023Y57808619D01*
X38037690Y57427666D01*
X38180547Y57427666D01*
X38275785Y57380047D01*
X38323404Y57332428D01*
X38371023Y57237190D01*
X38371023Y56999095D01*
X38323404Y56903857D01*
X38275785Y56856238D01*
X38180547Y56808619D01*
X37894833Y56808619D01*
X37799595Y56856238D01*
X37751976Y56903857D01*
X39228166Y57475285D02*
X39228166Y56808619D01*
X38990071Y57856238D02*
X38751976Y57141952D01*
X39371023Y57141952D01*
%TO.C,C2*%
X-26963666Y-13200142D02*
X-27011285Y-13247761D01*
X-27154142Y-13295380D01*
X-27249380Y-13295380D01*
X-27392238Y-13247761D01*
X-27487476Y-13152523D01*
X-27535095Y-13057285D01*
X-27582714Y-12866809D01*
X-27582714Y-12723952D01*
X-27535095Y-12533476D01*
X-27487476Y-12438238D01*
X-27392238Y-12343000D01*
X-27249380Y-12295380D01*
X-27154142Y-12295380D01*
X-27011285Y-12343000D01*
X-26963666Y-12390619D01*
X-26582714Y-12390619D02*
X-26535095Y-12343000D01*
X-26439857Y-12295380D01*
X-26201761Y-12295380D01*
X-26106523Y-12343000D01*
X-26058904Y-12390619D01*
X-26011285Y-12485857D01*
X-26011285Y-12581095D01*
X-26058904Y-12723952D01*
X-26630333Y-13295380D01*
X-26011285Y-13295380D01*
%TO.C,C3*%
X-26963666Y-18915142D02*
X-27011285Y-18962761D01*
X-27154142Y-19010380D01*
X-27249380Y-19010380D01*
X-27392238Y-18962761D01*
X-27487476Y-18867523D01*
X-27535095Y-18772285D01*
X-27582714Y-18581809D01*
X-27582714Y-18438952D01*
X-27535095Y-18248476D01*
X-27487476Y-18153238D01*
X-27392238Y-18058000D01*
X-27249380Y-18010380D01*
X-27154142Y-18010380D01*
X-27011285Y-18058000D01*
X-26963666Y-18105619D01*
X-26630333Y-18010380D02*
X-26011285Y-18010380D01*
X-26344619Y-18391333D01*
X-26201761Y-18391333D01*
X-26106523Y-18438952D01*
X-26058904Y-18486571D01*
X-26011285Y-18581809D01*
X-26011285Y-18819904D01*
X-26058904Y-18915142D01*
X-26106523Y-18962761D01*
X-26201761Y-19010380D01*
X-26487476Y-19010380D01*
X-26582714Y-18962761D01*
X-26630333Y-18915142D01*
%TO.C,R22*%
X37330142Y22645619D02*
X36996809Y23121809D01*
X36758714Y22645619D02*
X36758714Y23645619D01*
X37139666Y23645619D01*
X37234904Y23598000D01*
X37282523Y23550380D01*
X37330142Y23455142D01*
X37330142Y23312285D01*
X37282523Y23217047D01*
X37234904Y23169428D01*
X37139666Y23121809D01*
X36758714Y23121809D01*
X37711095Y23550380D02*
X37758714Y23598000D01*
X37853952Y23645619D01*
X38092047Y23645619D01*
X38187285Y23598000D01*
X38234904Y23550380D01*
X38282523Y23455142D01*
X38282523Y23359904D01*
X38234904Y23217047D01*
X37663476Y22645619D01*
X38282523Y22645619D01*
X38663476Y23550380D02*
X38711095Y23598000D01*
X38806333Y23645619D01*
X39044428Y23645619D01*
X39139666Y23598000D01*
X39187285Y23550380D01*
X39234904Y23455142D01*
X39234904Y23359904D01*
X39187285Y23217047D01*
X38615857Y22645619D01*
X39234904Y22645619D01*
%TO.C,C5*%
X-8675666Y-12566142D02*
X-8723285Y-12613761D01*
X-8866142Y-12661380D01*
X-8961380Y-12661380D01*
X-9104238Y-12613761D01*
X-9199476Y-12518523D01*
X-9247095Y-12423285D01*
X-9294714Y-12232809D01*
X-9294714Y-12089952D01*
X-9247095Y-11899476D01*
X-9199476Y-11804238D01*
X-9104238Y-11709000D01*
X-8961380Y-11661380D01*
X-8866142Y-11661380D01*
X-8723285Y-11709000D01*
X-8675666Y-11756619D01*
X-7770904Y-11661380D02*
X-8247095Y-11661380D01*
X-8294714Y-12137571D01*
X-8247095Y-12089952D01*
X-8151857Y-12042333D01*
X-7913761Y-12042333D01*
X-7818523Y-12089952D01*
X-7770904Y-12137571D01*
X-7723285Y-12232809D01*
X-7723285Y-12470904D01*
X-7770904Y-12566142D01*
X-7818523Y-12613761D01*
X-7913761Y-12661380D01*
X-8151857Y-12661380D01*
X-8247095Y-12613761D01*
X-8294714Y-12566142D01*
%TO.C,R7*%
X8977333Y-12152380D02*
X8644000Y-11676190D01*
X8405904Y-12152380D02*
X8405904Y-11152380D01*
X8786857Y-11152380D01*
X8882095Y-11200000D01*
X8929714Y-11247619D01*
X8977333Y-11342857D01*
X8977333Y-11485714D01*
X8929714Y-11580952D01*
X8882095Y-11628571D01*
X8786857Y-11676190D01*
X8405904Y-11676190D01*
X9310666Y-11152380D02*
X9977333Y-11152380D01*
X9548761Y-12152380D01*
%TO.C,R36*%
X37418642Y68238619D02*
X37085309Y68714809D01*
X36847214Y68238619D02*
X36847214Y69238619D01*
X37228166Y69238619D01*
X37323404Y69191000D01*
X37371023Y69143380D01*
X37418642Y69048142D01*
X37418642Y68905285D01*
X37371023Y68810047D01*
X37323404Y68762428D01*
X37228166Y68714809D01*
X36847214Y68714809D01*
X37751976Y69238619D02*
X38371023Y69238619D01*
X38037690Y68857666D01*
X38180547Y68857666D01*
X38275785Y68810047D01*
X38323404Y68762428D01*
X38371023Y68667190D01*
X38371023Y68429095D01*
X38323404Y68333857D01*
X38275785Y68286238D01*
X38180547Y68238619D01*
X37894833Y68238619D01*
X37799595Y68286238D01*
X37751976Y68333857D01*
X39228166Y69238619D02*
X39037690Y69238619D01*
X38942452Y69191000D01*
X38894833Y69143380D01*
X38799595Y69000523D01*
X38751976Y68810047D01*
X38751976Y68429095D01*
X38799595Y68333857D01*
X38847214Y68286238D01*
X38942452Y68238619D01*
X39132928Y68238619D01*
X39228166Y68286238D01*
X39275785Y68333857D01*
X39323404Y68429095D01*
X39323404Y68667190D01*
X39275785Y68762428D01*
X39228166Y68810047D01*
X39132928Y68857666D01*
X38942452Y68857666D01*
X38847214Y68810047D01*
X38799595Y68762428D01*
X38751976Y68667190D01*
%TO.C,R31*%
X37330142Y39536619D02*
X36996809Y40012809D01*
X36758714Y39536619D02*
X36758714Y40536619D01*
X37139666Y40536619D01*
X37234904Y40489000D01*
X37282523Y40441380D01*
X37330142Y40346142D01*
X37330142Y40203285D01*
X37282523Y40108047D01*
X37234904Y40060428D01*
X37139666Y40012809D01*
X36758714Y40012809D01*
X37663476Y40536619D02*
X38282523Y40536619D01*
X37949190Y40155666D01*
X38092047Y40155666D01*
X38187285Y40108047D01*
X38234904Y40060428D01*
X38282523Y39965190D01*
X38282523Y39727095D01*
X38234904Y39631857D01*
X38187285Y39584238D01*
X38092047Y39536619D01*
X37806333Y39536619D01*
X37711095Y39584238D01*
X37663476Y39631857D01*
X39234904Y39536619D02*
X38663476Y39536619D01*
X38949190Y39536619D02*
X38949190Y40536619D01*
X38853952Y40393761D01*
X38758714Y40298523D01*
X38663476Y40250904D01*
%TO.C,RV1*%
X-1992238Y-14438380D02*
X-2325571Y-13962190D01*
X-2563666Y-14438380D02*
X-2563666Y-13438380D01*
X-2182714Y-13438380D01*
X-2087476Y-13486000D01*
X-2039857Y-13533619D01*
X-1992238Y-13628857D01*
X-1992238Y-13771714D01*
X-2039857Y-13866952D01*
X-2087476Y-13914571D01*
X-2182714Y-13962190D01*
X-2563666Y-13962190D01*
X-1706523Y-13438380D02*
X-1373190Y-14438380D01*
X-1039857Y-13438380D01*
X-182714Y-14438380D02*
X-754142Y-14438380D01*
X-468428Y-14438380D02*
X-468428Y-13438380D01*
X-563666Y-13581238D01*
X-658904Y-13676476D01*
X-754142Y-13724095D01*
%TO.C,R9*%
X19121380Y-15930666D02*
X18645190Y-16264000D01*
X19121380Y-16502095D02*
X18121380Y-16502095D01*
X18121380Y-16121142D01*
X18169000Y-16025904D01*
X18216619Y-15978285D01*
X18311857Y-15930666D01*
X18454714Y-15930666D01*
X18549952Y-15978285D01*
X18597571Y-16025904D01*
X18645190Y-16121142D01*
X18645190Y-16502095D01*
X19121380Y-15454476D02*
X19121380Y-15264000D01*
X19073761Y-15168761D01*
X19026142Y-15121142D01*
X18883285Y-15025904D01*
X18692809Y-14978285D01*
X18311857Y-14978285D01*
X18216619Y-15025904D01*
X18169000Y-15073523D01*
X18121380Y-15168761D01*
X18121380Y-15359238D01*
X18169000Y-15454476D01*
X18216619Y-15502095D01*
X18311857Y-15549714D01*
X18549952Y-15549714D01*
X18645190Y-15502095D01*
X18692809Y-15454476D01*
X18740428Y-15359238D01*
X18740428Y-15168761D01*
X18692809Y-15073523D01*
X18645190Y-15025904D01*
X18549952Y-14978285D01*
%TO.C,R18*%
X50919142Y5500619D02*
X50585809Y5976809D01*
X50347714Y5500619D02*
X50347714Y6500619D01*
X50728666Y6500619D01*
X50823904Y6453000D01*
X50871523Y6405380D01*
X50919142Y6310142D01*
X50919142Y6167285D01*
X50871523Y6072047D01*
X50823904Y6024428D01*
X50728666Y5976809D01*
X50347714Y5976809D01*
X51871523Y5500619D02*
X51300095Y5500619D01*
X51585809Y5500619D02*
X51585809Y6500619D01*
X51490571Y6357761D01*
X51395333Y6262523D01*
X51300095Y6214904D01*
X52442952Y6072047D02*
X52347714Y6119666D01*
X52300095Y6167285D01*
X52252476Y6262523D01*
X52252476Y6310142D01*
X52300095Y6405380D01*
X52347714Y6453000D01*
X52442952Y6500619D01*
X52633428Y6500619D01*
X52728666Y6453000D01*
X52776285Y6405380D01*
X52823904Y6310142D01*
X52823904Y6262523D01*
X52776285Y6167285D01*
X52728666Y6119666D01*
X52633428Y6072047D01*
X52442952Y6072047D01*
X52347714Y6024428D01*
X52300095Y5976809D01*
X52252476Y5881571D01*
X52252476Y5691095D01*
X52300095Y5595857D01*
X52347714Y5548238D01*
X52442952Y5500619D01*
X52633428Y5500619D01*
X52728666Y5548238D01*
X52776285Y5595857D01*
X52823904Y5691095D01*
X52823904Y5881571D01*
X52776285Y5976809D01*
X52728666Y6024428D01*
X52633428Y6072047D01*
%TO.C,F2*%
X34248571Y666666D02*
X34248571Y333333D01*
X34772380Y333333D02*
X33772380Y333333D01*
X33772380Y809523D01*
X33867619Y1142857D02*
X33820000Y1190476D01*
X33772380Y1285714D01*
X33772380Y1523809D01*
X33820000Y1619047D01*
X33867619Y1666666D01*
X33962857Y1714285D01*
X34058095Y1714285D01*
X34200952Y1666666D01*
X34772380Y1095238D01*
X34772380Y1714285D01*
%TO.C,R26*%
X50919142Y62523619D02*
X50585809Y62999809D01*
X50347714Y62523619D02*
X50347714Y63523619D01*
X50728666Y63523619D01*
X50823904Y63476000D01*
X50871523Y63428380D01*
X50919142Y63333142D01*
X50919142Y63190285D01*
X50871523Y63095047D01*
X50823904Y63047428D01*
X50728666Y62999809D01*
X50347714Y62999809D01*
X51300095Y63428380D02*
X51347714Y63476000D01*
X51442952Y63523619D01*
X51681047Y63523619D01*
X51776285Y63476000D01*
X51823904Y63428380D01*
X51871523Y63333142D01*
X51871523Y63237904D01*
X51823904Y63095047D01*
X51252476Y62523619D01*
X51871523Y62523619D01*
X52728666Y63523619D02*
X52538190Y63523619D01*
X52442952Y63476000D01*
X52395333Y63428380D01*
X52300095Y63285523D01*
X52252476Y63095047D01*
X52252476Y62714095D01*
X52300095Y62618857D01*
X52347714Y62571238D01*
X52442952Y62523619D01*
X52633428Y62523619D01*
X52728666Y62571238D01*
X52776285Y62618857D01*
X52823904Y62714095D01*
X52823904Y62952190D01*
X52776285Y63047428D01*
X52728666Y63095047D01*
X52633428Y63142666D01*
X52442952Y63142666D01*
X52347714Y63095047D01*
X52300095Y63047428D01*
X52252476Y62952190D01*
%TO.C,R24*%
X37457142Y34075619D02*
X37123809Y34551809D01*
X36885714Y34075619D02*
X36885714Y35075619D01*
X37266666Y35075619D01*
X37361904Y35028000D01*
X37409523Y34980380D01*
X37457142Y34885142D01*
X37457142Y34742285D01*
X37409523Y34647047D01*
X37361904Y34599428D01*
X37266666Y34551809D01*
X36885714Y34551809D01*
X37838095Y34980380D02*
X37885714Y35028000D01*
X37980952Y35075619D01*
X38219047Y35075619D01*
X38314285Y35028000D01*
X38361904Y34980380D01*
X38409523Y34885142D01*
X38409523Y34789904D01*
X38361904Y34647047D01*
X37790476Y34075619D01*
X38409523Y34075619D01*
X39266666Y34742285D02*
X39266666Y34075619D01*
X39028571Y35123238D02*
X38790476Y34408952D01*
X39409523Y34408952D01*
%TO.C,R23*%
X37330142Y28360619D02*
X36996809Y28836809D01*
X36758714Y28360619D02*
X36758714Y29360619D01*
X37139666Y29360619D01*
X37234904Y29313000D01*
X37282523Y29265380D01*
X37330142Y29170142D01*
X37330142Y29027285D01*
X37282523Y28932047D01*
X37234904Y28884428D01*
X37139666Y28836809D01*
X36758714Y28836809D01*
X37711095Y29265380D02*
X37758714Y29313000D01*
X37853952Y29360619D01*
X38092047Y29360619D01*
X38187285Y29313000D01*
X38234904Y29265380D01*
X38282523Y29170142D01*
X38282523Y29074904D01*
X38234904Y28932047D01*
X37663476Y28360619D01*
X38282523Y28360619D01*
X38615857Y29360619D02*
X39234904Y29360619D01*
X38901571Y28979666D01*
X39044428Y28979666D01*
X39139666Y28932047D01*
X39187285Y28884428D01*
X39234904Y28789190D01*
X39234904Y28551095D01*
X39187285Y28455857D01*
X39139666Y28408238D01*
X39044428Y28360619D01*
X38758714Y28360619D01*
X38663476Y28408238D01*
X38615857Y28455857D01*
%TO.C,J1*%
X-333333Y1047619D02*
X-333333Y333333D01*
X-380952Y190476D01*
X-476190Y95238D01*
X-619047Y47619D01*
X-714285Y47619D01*
X666666Y47619D02*
X95238Y47619D01*
X380952Y47619D02*
X380952Y1047619D01*
X285714Y904761D01*
X190476Y809523D01*
X95238Y761904D01*
D11*
X-2142857Y7642857D02*
X-2142857Y10642857D01*
X-1000000Y10642857D01*
X-714285Y10500000D01*
X-571428Y10357142D01*
X-428571Y10071428D01*
X-428571Y9642857D01*
X-571428Y9357142D01*
X-714285Y9214285D01*
X-1000000Y9071428D01*
X-2142857Y9071428D01*
X857142Y9214285D02*
X1857142Y9214285D01*
X2285714Y7642857D02*
X857142Y7642857D01*
X857142Y10642857D01*
X2285714Y10642857D01*
X-20192857Y8785714D02*
X-17907142Y8785714D01*
X17907142Y8785714D02*
X20192857Y8785714D01*
X19050000Y7642857D02*
X19050000Y9928571D01*
D10*
%TO.C,R30*%
X50919142Y39663619D02*
X50585809Y40139809D01*
X50347714Y39663619D02*
X50347714Y40663619D01*
X50728666Y40663619D01*
X50823904Y40616000D01*
X50871523Y40568380D01*
X50919142Y40473142D01*
X50919142Y40330285D01*
X50871523Y40235047D01*
X50823904Y40187428D01*
X50728666Y40139809D01*
X50347714Y40139809D01*
X51252476Y40663619D02*
X51871523Y40663619D01*
X51538190Y40282666D01*
X51681047Y40282666D01*
X51776285Y40235047D01*
X51823904Y40187428D01*
X51871523Y40092190D01*
X51871523Y39854095D01*
X51823904Y39758857D01*
X51776285Y39711238D01*
X51681047Y39663619D01*
X51395333Y39663619D01*
X51300095Y39711238D01*
X51252476Y39758857D01*
X52490571Y40663619D02*
X52585809Y40663619D01*
X52681047Y40616000D01*
X52728666Y40568380D01*
X52776285Y40473142D01*
X52823904Y40282666D01*
X52823904Y40044571D01*
X52776285Y39854095D01*
X52728666Y39758857D01*
X52681047Y39711238D01*
X52585809Y39663619D01*
X52490571Y39663619D01*
X52395333Y39711238D01*
X52347714Y39758857D01*
X52300095Y39854095D01*
X52252476Y40044571D01*
X52252476Y40282666D01*
X52300095Y40473142D01*
X52347714Y40568380D01*
X52395333Y40616000D01*
X52490571Y40663619D01*
%TO.C,R8*%
X8088333Y-14311380D02*
X7755000Y-13835190D01*
X7516904Y-14311380D02*
X7516904Y-13311380D01*
X7897857Y-13311380D01*
X7993095Y-13359000D01*
X8040714Y-13406619D01*
X8088333Y-13501857D01*
X8088333Y-13644714D01*
X8040714Y-13739952D01*
X7993095Y-13787571D01*
X7897857Y-13835190D01*
X7516904Y-13835190D01*
X8659761Y-13739952D02*
X8564523Y-13692333D01*
X8516904Y-13644714D01*
X8469285Y-13549476D01*
X8469285Y-13501857D01*
X8516904Y-13406619D01*
X8564523Y-13359000D01*
X8659761Y-13311380D01*
X8850238Y-13311380D01*
X8945476Y-13359000D01*
X8993095Y-13406619D01*
X9040714Y-13501857D01*
X9040714Y-13549476D01*
X8993095Y-13644714D01*
X8945476Y-13692333D01*
X8850238Y-13739952D01*
X8659761Y-13739952D01*
X8564523Y-13787571D01*
X8516904Y-13835190D01*
X8469285Y-13930428D01*
X8469285Y-14120904D01*
X8516904Y-14216142D01*
X8564523Y-14263761D01*
X8659761Y-14311380D01*
X8850238Y-14311380D01*
X8945476Y-14263761D01*
X8993095Y-14216142D01*
X9040714Y-14120904D01*
X9040714Y-13930428D01*
X8993095Y-13835190D01*
X8945476Y-13787571D01*
X8850238Y-13739952D01*
%TO.C,R17*%
X50919142Y11342619D02*
X50585809Y11818809D01*
X50347714Y11342619D02*
X50347714Y12342619D01*
X50728666Y12342619D01*
X50823904Y12295000D01*
X50871523Y12247380D01*
X50919142Y12152142D01*
X50919142Y12009285D01*
X50871523Y11914047D01*
X50823904Y11866428D01*
X50728666Y11818809D01*
X50347714Y11818809D01*
X51871523Y11342619D02*
X51300095Y11342619D01*
X51585809Y11342619D02*
X51585809Y12342619D01*
X51490571Y12199761D01*
X51395333Y12104523D01*
X51300095Y12056904D01*
X52204857Y12342619D02*
X52871523Y12342619D01*
X52442952Y11342619D01*
%TO.C,R4*%
X-26939666Y-15200380D02*
X-27273000Y-14724190D01*
X-27511095Y-15200380D02*
X-27511095Y-14200380D01*
X-27130142Y-14200380D01*
X-27034904Y-14248000D01*
X-26987285Y-14295619D01*
X-26939666Y-14390857D01*
X-26939666Y-14533714D01*
X-26987285Y-14628952D01*
X-27034904Y-14676571D01*
X-27130142Y-14724190D01*
X-27511095Y-14724190D01*
X-26082523Y-14533714D02*
X-26082523Y-15200380D01*
X-26320619Y-14152761D02*
X-26558714Y-14867047D01*
X-25939666Y-14867047D01*
%TO.C,Q3*%
X28987761Y-18851619D02*
X28892523Y-18804000D01*
X28797285Y-18708761D01*
X28654428Y-18565904D01*
X28559190Y-18518285D01*
X28463952Y-18518285D01*
X28511571Y-18756380D02*
X28416333Y-18708761D01*
X28321095Y-18613523D01*
X28273476Y-18423047D01*
X28273476Y-18089714D01*
X28321095Y-17899238D01*
X28416333Y-17804000D01*
X28511571Y-17756380D01*
X28702047Y-17756380D01*
X28797285Y-17804000D01*
X28892523Y-17899238D01*
X28940142Y-18089714D01*
X28940142Y-18423047D01*
X28892523Y-18613523D01*
X28797285Y-18708761D01*
X28702047Y-18756380D01*
X28511571Y-18756380D01*
X29273476Y-17756380D02*
X29892523Y-17756380D01*
X29559190Y-18137333D01*
X29702047Y-18137333D01*
X29797285Y-18184952D01*
X29844904Y-18232571D01*
X29892523Y-18327809D01*
X29892523Y-18565904D01*
X29844904Y-18661142D01*
X29797285Y-18708761D01*
X29702047Y-18756380D01*
X29416333Y-18756380D01*
X29321095Y-18708761D01*
X29273476Y-18661142D01*
%TO.C,R25*%
X50919142Y68238619D02*
X50585809Y68714809D01*
X50347714Y68238619D02*
X50347714Y69238619D01*
X50728666Y69238619D01*
X50823904Y69191000D01*
X50871523Y69143380D01*
X50919142Y69048142D01*
X50919142Y68905285D01*
X50871523Y68810047D01*
X50823904Y68762428D01*
X50728666Y68714809D01*
X50347714Y68714809D01*
X51300095Y69143380D02*
X51347714Y69191000D01*
X51442952Y69238619D01*
X51681047Y69238619D01*
X51776285Y69191000D01*
X51823904Y69143380D01*
X51871523Y69048142D01*
X51871523Y68952904D01*
X51823904Y68810047D01*
X51252476Y68238619D01*
X51871523Y68238619D01*
X52776285Y69238619D02*
X52300095Y69238619D01*
X52252476Y68762428D01*
X52300095Y68810047D01*
X52395333Y68857666D01*
X52633428Y68857666D01*
X52728666Y68810047D01*
X52776285Y68762428D01*
X52823904Y68667190D01*
X52823904Y68429095D01*
X52776285Y68333857D01*
X52728666Y68286238D01*
X52633428Y68238619D01*
X52395333Y68238619D01*
X52300095Y68286238D01*
X52252476Y68333857D01*
%TO.C,Q2*%
X23272761Y-14787619D02*
X23177523Y-14740000D01*
X23082285Y-14644761D01*
X22939428Y-14501904D01*
X22844190Y-14454285D01*
X22748952Y-14454285D01*
X22796571Y-14692380D02*
X22701333Y-14644761D01*
X22606095Y-14549523D01*
X22558476Y-14359047D01*
X22558476Y-14025714D01*
X22606095Y-13835238D01*
X22701333Y-13740000D01*
X22796571Y-13692380D01*
X22987047Y-13692380D01*
X23082285Y-13740000D01*
X23177523Y-13835238D01*
X23225142Y-14025714D01*
X23225142Y-14359047D01*
X23177523Y-14549523D01*
X23082285Y-14644761D01*
X22987047Y-14692380D01*
X22796571Y-14692380D01*
X23606095Y-13787619D02*
X23653714Y-13740000D01*
X23748952Y-13692380D01*
X23987047Y-13692380D01*
X24082285Y-13740000D01*
X24129904Y-13787619D01*
X24177523Y-13882857D01*
X24177523Y-13978095D01*
X24129904Y-14120952D01*
X23558476Y-14692380D01*
X24177523Y-14692380D01*
%TO.C,R14*%
X50919142Y28360619D02*
X50585809Y28836809D01*
X50347714Y28360619D02*
X50347714Y29360619D01*
X50728666Y29360619D01*
X50823904Y29313000D01*
X50871523Y29265380D01*
X50919142Y29170142D01*
X50919142Y29027285D01*
X50871523Y28932047D01*
X50823904Y28884428D01*
X50728666Y28836809D01*
X50347714Y28836809D01*
X51871523Y28360619D02*
X51300095Y28360619D01*
X51585809Y28360619D02*
X51585809Y29360619D01*
X51490571Y29217761D01*
X51395333Y29122523D01*
X51300095Y29074904D01*
X52728666Y29027285D02*
X52728666Y28360619D01*
X52490571Y29408238D02*
X52252476Y28693952D01*
X52871523Y28693952D01*
%TO.C,C8*%
X33869333Y-8374142D02*
X33821714Y-8421761D01*
X33678857Y-8469380D01*
X33583619Y-8469380D01*
X33440761Y-8421761D01*
X33345523Y-8326523D01*
X33297904Y-8231285D01*
X33250285Y-8040809D01*
X33250285Y-7897952D01*
X33297904Y-7707476D01*
X33345523Y-7612238D01*
X33440761Y-7517000D01*
X33583619Y-7469380D01*
X33678857Y-7469380D01*
X33821714Y-7517000D01*
X33869333Y-7564619D01*
X34440761Y-7897952D02*
X34345523Y-7850333D01*
X34297904Y-7802714D01*
X34250285Y-7707476D01*
X34250285Y-7659857D01*
X34297904Y-7564619D01*
X34345523Y-7517000D01*
X34440761Y-7469380D01*
X34631238Y-7469380D01*
X34726476Y-7517000D01*
X34774095Y-7564619D01*
X34821714Y-7659857D01*
X34821714Y-7707476D01*
X34774095Y-7802714D01*
X34726476Y-7850333D01*
X34631238Y-7897952D01*
X34440761Y-7897952D01*
X34345523Y-7945571D01*
X34297904Y-7993190D01*
X34250285Y-8088428D01*
X34250285Y-8278904D01*
X34297904Y-8374142D01*
X34345523Y-8421761D01*
X34440761Y-8469380D01*
X34631238Y-8469380D01*
X34726476Y-8421761D01*
X34774095Y-8374142D01*
X34821714Y-8278904D01*
X34821714Y-8088428D01*
X34774095Y-7993190D01*
X34726476Y-7945571D01*
X34631238Y-7897952D01*
%TO.C,R37*%
X8120142Y-10247380D02*
X7786809Y-9771190D01*
X7548714Y-10247380D02*
X7548714Y-9247380D01*
X7929666Y-9247380D01*
X8024904Y-9295000D01*
X8072523Y-9342619D01*
X8120142Y-9437857D01*
X8120142Y-9580714D01*
X8072523Y-9675952D01*
X8024904Y-9723571D01*
X7929666Y-9771190D01*
X7548714Y-9771190D01*
X8453476Y-9247380D02*
X9072523Y-9247380D01*
X8739190Y-9628333D01*
X8882047Y-9628333D01*
X8977285Y-9675952D01*
X9024904Y-9723571D01*
X9072523Y-9818809D01*
X9072523Y-10056904D01*
X9024904Y-10152142D01*
X8977285Y-10199761D01*
X8882047Y-10247380D01*
X8596333Y-10247380D01*
X8501095Y-10199761D01*
X8453476Y-10152142D01*
X9405857Y-9247380D02*
X10072523Y-9247380D01*
X9643952Y-10247380D01*
%TO.C,R5*%
X1103333Y-20534380D02*
X769999Y-20058190D01*
X531904Y-20534380D02*
X531904Y-19534380D01*
X912857Y-19534380D01*
X1008095Y-19582000D01*
X1055714Y-19629619D01*
X1103333Y-19724857D01*
X1103333Y-19867714D01*
X1055714Y-19962952D01*
X1008095Y-20010571D01*
X912857Y-20058190D01*
X531904Y-20058190D01*
X2008095Y-19534380D02*
X1531904Y-19534380D01*
X1484285Y-20010571D01*
X1531904Y-19962952D01*
X1627142Y-19915333D01*
X1865238Y-19915333D01*
X1960476Y-19962952D01*
X2008095Y-20010571D01*
X2055714Y-20105809D01*
X2055714Y-20343904D01*
X2008095Y-20439142D01*
X1960476Y-20486761D01*
X1865238Y-20534380D01*
X1627142Y-20534380D01*
X1531904Y-20486761D01*
X1484285Y-20439142D01*
%TO.C,R11*%
X23820380Y-17422857D02*
X23344190Y-17756190D01*
X23820380Y-17994285D02*
X22820380Y-17994285D01*
X22820380Y-17613333D01*
X22868000Y-17518095D01*
X22915619Y-17470476D01*
X23010857Y-17422857D01*
X23153714Y-17422857D01*
X23248952Y-17470476D01*
X23296571Y-17518095D01*
X23344190Y-17613333D01*
X23344190Y-17994285D01*
X23820380Y-16470476D02*
X23820380Y-17041904D01*
X23820380Y-16756190D02*
X22820380Y-16756190D01*
X22963238Y-16851428D01*
X23058476Y-16946666D01*
X23106095Y-17041904D01*
X23820380Y-15518095D02*
X23820380Y-16089523D01*
X23820380Y-15803809D02*
X22820380Y-15803809D01*
X22963238Y-15899047D01*
X23058476Y-15994285D01*
X23106095Y-16089523D01*
%TO.C,F1*%
X55427571Y920666D02*
X55427571Y587333D01*
X55951380Y587333D02*
X54951380Y587333D01*
X54951380Y1063523D01*
X55951380Y1968285D02*
X55951380Y1396857D01*
X55951380Y1682571D02*
X54951380Y1682571D01*
X55094238Y1587333D01*
X55189476Y1492095D01*
X55237095Y1396857D01*
%TO.C,D3*%
X16261904Y-11452380D02*
X16261904Y-10452380D01*
X16500000Y-10452380D01*
X16642857Y-10500000D01*
X16738095Y-10595238D01*
X16785714Y-10690476D01*
X16833333Y-10880952D01*
X16833333Y-11023809D01*
X16785714Y-11214285D01*
X16738095Y-11309523D01*
X16642857Y-11404761D01*
X16500000Y-11452380D01*
X16261904Y-11452380D01*
X17166666Y-10452380D02*
X17785714Y-10452380D01*
X17452380Y-10833333D01*
X17595238Y-10833333D01*
X17690476Y-10880952D01*
X17738095Y-10928571D01*
X17785714Y-11023809D01*
X17785714Y-11261904D01*
X17738095Y-11357142D01*
X17690476Y-11404761D01*
X17595238Y-11452380D01*
X17309523Y-11452380D01*
X17214285Y-11404761D01*
X17166666Y-11357142D01*
%TO.C,R1*%
X-12500619Y-16946666D02*
X-12976809Y-17280000D01*
X-12500619Y-17518095D02*
X-13500619Y-17518095D01*
X-13500619Y-17137142D01*
X-13453000Y-17041904D01*
X-13405380Y-16994285D01*
X-13310142Y-16946666D01*
X-13167285Y-16946666D01*
X-13072047Y-16994285D01*
X-13024428Y-17041904D01*
X-12976809Y-17137142D01*
X-12976809Y-17518095D01*
X-12500619Y-15994285D02*
X-12500619Y-16565714D01*
X-12500619Y-16280000D02*
X-13500619Y-16280000D01*
X-13357761Y-16375238D01*
X-13262523Y-16470476D01*
X-13214904Y-16565714D01*
%TO.C,R21*%
X37418642Y16803619D02*
X37085309Y17279809D01*
X36847214Y16803619D02*
X36847214Y17803619D01*
X37228166Y17803619D01*
X37323404Y17756000D01*
X37371023Y17708380D01*
X37418642Y17613142D01*
X37418642Y17470285D01*
X37371023Y17375047D01*
X37323404Y17327428D01*
X37228166Y17279809D01*
X36847214Y17279809D01*
X37799595Y17708380D02*
X37847214Y17756000D01*
X37942452Y17803619D01*
X38180547Y17803619D01*
X38275785Y17756000D01*
X38323404Y17708380D01*
X38371023Y17613142D01*
X38371023Y17517904D01*
X38323404Y17375047D01*
X37751976Y16803619D01*
X38371023Y16803619D01*
X39323404Y16803619D02*
X38751976Y16803619D01*
X39037690Y16803619D02*
X39037690Y17803619D01*
X38942452Y17660761D01*
X38847214Y17565523D01*
X38751976Y17517904D01*
D12*
%TO.C,Q1*%
X2377000Y-16526000D02*
X2377000Y-15876000D01*
X5497000Y-16526000D02*
X5497000Y-15876000D01*
X2377000Y-16526000D02*
X2377000Y-18201000D01*
X5497000Y-16526000D02*
X5497000Y-17176000D01*
%TO.C,U2*%
X14097000Y-15109000D02*
X16047000Y-15109000D01*
X14097000Y-20229000D02*
X17547000Y-20229000D01*
X14097000Y-15109000D02*
X12147000Y-15109000D01*
X14097000Y-20229000D02*
X12147000Y-20229000D01*
%TO.C,C7*%
X46302000Y-9790437D02*
X46302000Y-19246000D01*
X47366437Y-8726000D02*
X50052000Y-8726000D01*
X54322000Y-7236000D02*
X54322000Y-8486000D01*
X47366437Y-8726000D02*
X46302000Y-9790437D01*
X56822000Y-9790437D02*
X56822000Y-19246000D01*
X54947000Y-7861000D02*
X53697000Y-7861000D01*
X46302000Y-19246000D02*
X50052000Y-19246000D01*
X55757563Y-8726000D02*
X56822000Y-9790437D01*
X56822000Y-19246000D02*
X53072000Y-19246000D01*
X55757563Y-8726000D02*
X53072000Y-8726000D01*
%TO.C,C6*%
X2937000Y-14565000D02*
X5622000Y-14565000D01*
X5622000Y-12645000D02*
X2937000Y-12645000D01*
X5622000Y-14565000D02*
X5622000Y-12645000D01*
%TO.C,D1*%
X-25036000Y-20448000D02*
X-21186000Y-20448000D01*
X-25036000Y-18448000D02*
X-21186000Y-18448000D01*
X-25036000Y-18448000D02*
X-25036000Y-20448000D01*
%TO.C,D2*%
X-20636000Y-9050000D02*
X-24486000Y-9050000D01*
X-20636000Y-11050000D02*
X-20636000Y-9050000D01*
X-20636000Y-11050000D02*
X-24486000Y-11050000D01*
%TO.C,Q4*%
X41248000Y-2882000D02*
X41248000Y-4382000D01*
X41248000Y-4382000D02*
X41518000Y-4382000D01*
X41518000Y-4382000D02*
X41518000Y-7212000D01*
X48148000Y-4382000D02*
X47878000Y-4382000D01*
X48148000Y-2882000D02*
X48148000Y-4382000D01*
X47878000Y-4382000D02*
X47878000Y-5482000D01*
%TO.C,R32*%
X38785237Y47236000D02*
X37337763Y47236000D01*
X38785237Y44526000D02*
X37337763Y44526000D01*
%TO.C,R13*%
X50838263Y33194500D02*
X52285737Y33194500D01*
X50838263Y35904500D02*
X52285737Y35904500D01*
%TO.C,R35*%
X38785237Y61671000D02*
X37337763Y61671000D01*
X38785237Y64381000D02*
X37337763Y64381000D01*
%TO.C,R19*%
X38785237Y4605500D02*
X37337763Y4605500D01*
X38785237Y7315500D02*
X37337763Y7315500D01*
%TO.C,R2*%
X408000Y-16552936D02*
X408000Y-17007064D01*
X1878000Y-16552936D02*
X1878000Y-17007064D01*
%TO.C,R3*%
X-27000064Y-10204000D02*
X-26545936Y-10204000D01*
X-27000064Y-11674000D02*
X-26545936Y-11674000D01*
%TO.C,R15*%
X50838263Y21764500D02*
X52285737Y21764500D01*
X50838263Y24474500D02*
X52285737Y24474500D01*
%TO.C,R10*%
X20474000Y-16626064D02*
X20474000Y-16171936D01*
X21944000Y-16626064D02*
X21944000Y-16171936D01*
%TO.C,R6*%
X7593000Y-18457936D02*
X7593000Y-18912064D01*
X6123000Y-18457936D02*
X6123000Y-18912064D01*
%TO.C,U1*%
X-21945000Y-11299000D02*
X-21945000Y-11569000D01*
X-20445000Y-11299000D02*
X-21945000Y-11299000D01*
X-21945000Y-17929000D02*
X-23045000Y-17929000D01*
X-21945000Y-11569000D02*
X-24775000Y-11569000D01*
X-21945000Y-18199000D02*
X-21945000Y-17929000D01*
X-20445000Y-18199000D02*
X-21945000Y-18199000D01*
%TO.C,C4*%
X26958000Y-12551000D02*
X26958000Y-10631000D01*
X26958000Y-10631000D02*
X24273000Y-10631000D01*
X24273000Y-12551000D02*
X26958000Y-12551000D01*
%TO.C,R28*%
X50838263Y52965000D02*
X52285737Y52965000D01*
X50838263Y50255000D02*
X52285737Y50255000D01*
%TO.C,R16*%
X50838263Y16049500D02*
X52285737Y16049500D01*
X50838263Y18759500D02*
X52285737Y18759500D01*
%TO.C,R29*%
X50838263Y47250000D02*
X52285737Y47250000D01*
X50838263Y44540000D02*
X52285737Y44540000D01*
%TO.C,R12*%
X32089000Y-15217737D02*
X32089000Y-13770263D01*
X29379000Y-15217737D02*
X29379000Y-13770263D01*
%TO.C,C1*%
X-27797000Y-17613000D02*
X-25112000Y-17613000D01*
X-25112000Y-15693000D02*
X-27797000Y-15693000D01*
X-25112000Y-17613000D02*
X-25112000Y-15693000D01*
%TO.C,R33*%
X38785237Y50241000D02*
X37337763Y50241000D01*
X38785237Y52951000D02*
X37337763Y52951000D01*
%TO.C,R20*%
X38785237Y13030500D02*
X37337763Y13030500D01*
X38785237Y10320500D02*
X37337763Y10320500D01*
%TO.C,R27*%
X50838263Y58680000D02*
X52285737Y58680000D01*
X50838263Y55970000D02*
X52285737Y55970000D01*
%TO.C,R34*%
X38785237Y58666000D02*
X37337763Y58666000D01*
X38785237Y55956000D02*
X37337763Y55956000D01*
%TO.C,C2*%
X-25088000Y-11884000D02*
X-27773000Y-11884000D01*
X-27773000Y-13804000D02*
X-25088000Y-13804000D01*
X-25088000Y-13804000D02*
X-25088000Y-11884000D01*
%TO.C,C3*%
X-25088000Y-17598000D02*
X-27773000Y-17598000D01*
X-27773000Y-19518000D02*
X-25088000Y-19518000D01*
X-25088000Y-19518000D02*
X-25088000Y-17598000D01*
%TO.C,R22*%
X38785237Y24460500D02*
X37337763Y24460500D01*
X38785237Y21750500D02*
X37337763Y21750500D01*
%TO.C,C5*%
X-7509000Y-12899000D02*
X-10194000Y-12899000D01*
X-10194000Y-12899000D02*
X-10194000Y-14819000D01*
X-10194000Y-14819000D02*
X-7509000Y-14819000D01*
%TO.C,R7*%
X11837936Y-11124000D02*
X12292064Y-11124000D01*
X11837936Y-12594000D02*
X12292064Y-12594000D01*
%TO.C,R36*%
X38785237Y70096000D02*
X37337763Y70096000D01*
X38785237Y67386000D02*
X37337763Y67386000D01*
%TO.C,R31*%
X38785237Y41521000D02*
X37337763Y41521000D01*
X38785237Y38811000D02*
X37337763Y38811000D01*
%TO.C,RV1*%
X-205000Y-20199000D02*
X-9975000Y-20199000D01*
X-205000Y-20199000D02*
X-205000Y-15129000D01*
X-205000Y-15129000D02*
X-9975000Y-15129000D01*
X-9975000Y-20199000D02*
X-9975000Y-15129000D01*
%TO.C,R9*%
X19785000Y-18203936D02*
X19785000Y-18658064D01*
X18315000Y-18203936D02*
X18315000Y-18658064D01*
%TO.C,R18*%
X50838263Y7329500D02*
X52285737Y7329500D01*
X50838263Y4619500D02*
X52285737Y4619500D01*
%TO.C,F2*%
X35330000Y-5006252D02*
X35330000Y-598748D01*
X40670000Y-5006252D02*
X40670000Y-598748D01*
%TO.C,R26*%
X50838263Y61685000D02*
X52285737Y61685000D01*
X50838263Y64395000D02*
X52285737Y64395000D01*
%TO.C,R24*%
X38785237Y33180500D02*
X37337763Y33180500D01*
X38785237Y35890500D02*
X37337763Y35890500D01*
%TO.C,R23*%
X38785237Y27465500D02*
X37337763Y27465500D01*
X38785237Y30175500D02*
X37337763Y30175500D01*
%TO.C,J1*%
D13*
X-15800000Y0D02*
G75*
G03*
X-15800000Y0I-3250000J0D01*
G01*
X3250000Y0D02*
G75*
G03*
X3250000Y0I-3250000J0D01*
G01*
X22300000Y0D02*
G75*
G03*
X22300000Y0I-3250000J0D01*
G01*
D12*
%TO.C,R30*%
X50838263Y41535000D02*
X52285737Y41535000D01*
X50838263Y38825000D02*
X52285737Y38825000D01*
%TO.C,R8*%
X11837936Y-13124000D02*
X12292064Y-13124000D01*
X11837936Y-14594000D02*
X12292064Y-14594000D01*
%TO.C,R17*%
X50838263Y10334500D02*
X52285737Y10334500D01*
X50838263Y13044500D02*
X52285737Y13044500D01*
%TO.C,R4*%
X-26545936Y-14014000D02*
X-27000064Y-14014000D01*
X-26545936Y-15484000D02*
X-27000064Y-15484000D01*
%TO.C,Q3*%
X26162000Y-19991000D02*
X25512000Y-19991000D01*
X26162000Y-19991000D02*
X26812000Y-19991000D01*
X26162000Y-16871000D02*
X24487000Y-16871000D01*
X26162000Y-16871000D02*
X26812000Y-16871000D01*
%TO.C,R25*%
X50838263Y67400000D02*
X52285737Y67400000D01*
X50838263Y70110000D02*
X52285737Y70110000D01*
%TO.C,Q2*%
X24602000Y-14621000D02*
X24602000Y-16296000D01*
X27722000Y-14621000D02*
X27722000Y-13971000D01*
X27722000Y-14621000D02*
X27722000Y-15271000D01*
X24602000Y-14621000D02*
X24602000Y-13971000D01*
%TO.C,R14*%
X50838263Y30189500D02*
X52285737Y30189500D01*
X50838263Y27479500D02*
X52285737Y27479500D01*
%TO.C,C8*%
X41385000Y-7875000D02*
X40135000Y-7875000D01*
X42195563Y-8740000D02*
X43260000Y-9804437D01*
X32740000Y-9804437D02*
X32740000Y-19260000D01*
X40760000Y-7250000D02*
X40760000Y-8500000D01*
X43260000Y-9804437D02*
X43260000Y-19260000D01*
X33804437Y-8740000D02*
X36490000Y-8740000D01*
X33804437Y-8740000D02*
X32740000Y-9804437D01*
X42195563Y-8740000D02*
X39510000Y-8740000D01*
X32740000Y-19260000D02*
X36490000Y-19260000D01*
X43260000Y-19260000D02*
X39510000Y-19260000D01*
%TO.C,R37*%
X12292064Y-9060000D02*
X11837936Y-9060000D01*
X12292064Y-10530000D02*
X11837936Y-10530000D01*
%TO.C,R5*%
X3836936Y-18839000D02*
X4291064Y-18839000D01*
X3836936Y-20309000D02*
X4291064Y-20309000D01*
%TO.C,R11*%
X21640436Y-19928000D02*
X22094564Y-19928000D01*
X21640436Y-18458000D02*
X22094564Y-18458000D01*
%TO.C,F1*%
X54232000Y-4992252D02*
X54232000Y-584748D01*
X48892000Y-4992252D02*
X48892000Y-584748D01*
%TO.C,D3*%
X13899000Y-11843000D02*
X13899000Y-14528000D01*
X13899000Y-14528000D02*
X15819000Y-14528000D01*
X15819000Y-14528000D02*
X15819000Y-11843000D01*
%TO.C,R1*%
X-12038000Y-17007064D02*
X-12038000Y-16552936D01*
X-10568000Y-17007064D02*
X-10568000Y-16552936D01*
%TO.C,R21*%
X38785237Y16035500D02*
X37337763Y16035500D01*
X38785237Y18745500D02*
X37337763Y18745500D01*
%TD*%
%LPC*%
D14*
%TO.C,Q1*%
X2987000Y-17463500D03*
X4887000Y-17463500D03*
X3937000Y-15588500D03*
%TD*%
D15*
%TO.C,U2*%
X16572000Y-19574000D03*
X16572000Y-18304000D03*
X16572000Y-17034000D03*
X16572000Y-15764000D03*
X11622000Y-15764000D03*
X11622000Y-17034000D03*
X11622000Y-18304000D03*
X11622000Y-19574000D03*
%TD*%
D16*
%TO.C,C7*%
X51562000Y-9986000D03*
X51562000Y-17986000D03*
%TD*%
D17*
%TO.C,C6*%
X4874500Y-13605000D03*
X2999500Y-13605000D03*
%TD*%
D18*
%TO.C,D1*%
X-24236000Y-19448000D03*
X-21436000Y-19448000D03*
%TD*%
%TO.C,D2*%
X-21436000Y-10050000D03*
X-24236000Y-10050000D03*
%TD*%
D19*
%TO.C,Q4*%
X42418000Y-6112000D03*
D20*
X44698000Y188000D03*
D19*
X46978000Y-6112000D03*
%TD*%
D21*
%TO.C,R32*%
X39524000Y45881000D03*
X36599000Y45881000D03*
%TD*%
D22*
%TO.C,R13*%
X50099500Y34549500D03*
X53024500Y34549500D03*
%TD*%
D21*
%TO.C,R35*%
X39524000Y63026000D03*
X36599000Y63026000D03*
%TD*%
%TO.C,R19*%
X39524000Y5960500D03*
X36599000Y5960500D03*
%TD*%
D23*
%TO.C,R2*%
X1143000Y-15867500D03*
X1143000Y-17692500D03*
%TD*%
D24*
%TO.C,R3*%
X-27685500Y-10939000D03*
X-25860500Y-10939000D03*
%TD*%
D22*
%TO.C,R15*%
X50099500Y23119500D03*
X53024500Y23119500D03*
%TD*%
D25*
%TO.C,R10*%
X21209000Y-17311500D03*
X21209000Y-15486500D03*
%TD*%
D23*
%TO.C,R6*%
X6858000Y-17772500D03*
X6858000Y-19597500D03*
%TD*%
D26*
%TO.C,U1*%
X-23675000Y-12469000D03*
D27*
X-17375000Y-14749000D03*
D26*
X-23675000Y-17029000D03*
%TD*%
D17*
%TO.C,C4*%
X26210500Y-11591000D03*
X24335500Y-11591000D03*
%TD*%
D22*
%TO.C,R28*%
X50099500Y51610000D03*
X53024500Y51610000D03*
%TD*%
%TO.C,R16*%
X50099500Y17404500D03*
X53024500Y17404500D03*
%TD*%
%TO.C,R29*%
X50099500Y45895000D03*
X53024500Y45895000D03*
%TD*%
D28*
%TO.C,R12*%
X30734000Y-15956500D03*
X30734000Y-13031500D03*
%TD*%
D17*
%TO.C,C1*%
X-25859500Y-16653000D03*
X-27734500Y-16653000D03*
%TD*%
D21*
%TO.C,R33*%
X39524000Y51596000D03*
X36599000Y51596000D03*
%TD*%
%TO.C,R20*%
X39524000Y11675500D03*
X36599000Y11675500D03*
%TD*%
D22*
%TO.C,R27*%
X50099500Y57325000D03*
X53024500Y57325000D03*
%TD*%
D21*
%TO.C,R34*%
X39524000Y57311000D03*
X36599000Y57311000D03*
%TD*%
D17*
%TO.C,C2*%
X-25835500Y-12844000D03*
X-27710500Y-12844000D03*
%TD*%
%TO.C,C3*%
X-25835500Y-18558000D03*
X-27710500Y-18558000D03*
%TD*%
D21*
%TO.C,R22*%
X39524000Y23105500D03*
X36599000Y23105500D03*
%TD*%
D29*
%TO.C,C5*%
X-9446500Y-13859000D03*
X-7571500Y-13859000D03*
%TD*%
D24*
%TO.C,R7*%
X11152500Y-11859000D03*
X12977500Y-11859000D03*
%TD*%
D21*
%TO.C,R36*%
X39524000Y68741000D03*
X36599000Y68741000D03*
%TD*%
%TO.C,R31*%
X39524000Y40166000D03*
X36599000Y40166000D03*
%TD*%
D30*
%TO.C,RV1*%
X-7630000Y-17669000D03*
X-5090000Y-17669000D03*
X-2550000Y-17669000D03*
%TD*%
D23*
%TO.C,R9*%
X19050000Y-17518500D03*
X19050000Y-19343500D03*
%TD*%
D22*
%TO.C,R18*%
X50099500Y5974500D03*
X53024500Y5974500D03*
%TD*%
D31*
%TO.C,F2*%
X38000000Y-6190000D03*
X38000000Y585000D03*
%TD*%
D22*
%TO.C,R26*%
X50099500Y63040000D03*
X53024500Y63040000D03*
%TD*%
D21*
%TO.C,R24*%
X39524000Y34535500D03*
X36599000Y34535500D03*
%TD*%
%TO.C,R23*%
X39524000Y28820500D03*
X36599000Y28820500D03*
%TD*%
D32*
%TO.C,J1*%
X-19050000Y0D03*
X0Y0D03*
X19050000Y0D03*
%TD*%
D22*
%TO.C,R30*%
X50099500Y40180000D03*
X53024500Y40180000D03*
%TD*%
D24*
%TO.C,R8*%
X11152500Y-13859000D03*
X12977500Y-13859000D03*
%TD*%
D22*
%TO.C,R17*%
X50099500Y11689500D03*
X53024500Y11689500D03*
%TD*%
D33*
%TO.C,R4*%
X-25860500Y-14749000D03*
X-27685500Y-14749000D03*
%TD*%
D34*
%TO.C,Q3*%
X25224500Y-17481000D03*
X25224500Y-19381000D03*
X27099500Y-18431000D03*
%TD*%
D22*
%TO.C,R25*%
X50099500Y68755000D03*
X53024500Y68755000D03*
%TD*%
D14*
%TO.C,Q2*%
X25212000Y-15558500D03*
X27112000Y-15558500D03*
X26162000Y-13683500D03*
%TD*%
D22*
%TO.C,R14*%
X50099500Y28834500D03*
X53024500Y28834500D03*
%TD*%
D16*
%TO.C,C8*%
X38000000Y-10000000D03*
X38000000Y-18000000D03*
%TD*%
D33*
%TO.C,R37*%
X12977500Y-9795000D03*
X11152500Y-9795000D03*
%TD*%
D24*
%TO.C,R5*%
X3151500Y-19574000D03*
X4976500Y-19574000D03*
%TD*%
%TO.C,R11*%
X20955000Y-19193000D03*
X22780000Y-19193000D03*
%TD*%
D31*
%TO.C,F1*%
X51562000Y-6176000D03*
X51562000Y599000D03*
%TD*%
D35*
%TO.C,D3*%
X14859000Y-13780500D03*
X14859000Y-11905500D03*
%TD*%
D25*
%TO.C,R1*%
X-11303000Y-17692500D03*
X-11303000Y-15867500D03*
%TD*%
D21*
%TO.C,R21*%
X39524000Y17390500D03*
X36599000Y17390500D03*
%TD*%
M02*
