M48
; DRILL file {KiCad (6.0.8-1)-1} date 2022 November 06, Sunday 16:40:48
; FORMAT={-:-/ absolute / inch / decimal}
; #@! TF.CreationDate,2022-11-06T16:40:48+01:00
; #@! TF.GenerationSoftware,Kicad,Pcbnew,(6.0.8-1)-1
; #@! TF.FileFunction,Plated,1,2,PTH
FMAT,2
INCH
; #@! TA.AperFunction,Plated,PTH,ViaDrill
T1C0.0118
; #@! TA.AperFunction,Plated,PTH,ViaDrill
T2C0.0197
; #@! TA.AperFunction,Plated,PTH,ComponentDrill
T3C0.0315
; #@! TA.AperFunction,Plated,PTH,ComponentDrill
T4C0.2441
%
G90
G05
T1
X0.12Y-0.6356
X0.205Y-0.635
X0.4Y-0.685
X0.5115Y-0.6363
X0.565Y-0.6706
X0.6Y-0.7206
T2
X-1.09Y-0.7906
X-1.015Y-0.7956
X-0.9Y-0.7656
X-0.8455Y-0.4861
X-0.765Y-0.4056
X-0.24Y-0.5456
X0.045Y-0.5356
X0.07Y-0.7443
X0.355Y-0.5956
X0.375Y-0.7756
X0.385Y-0.5456
X0.58Y-0.7656
X0.65Y-0.5656
X0.775Y-0.6106
X0.905Y-0.4556
X0.99Y-0.69
X1.07Y-0.69
X1.1516Y-0.3937
X1.2598Y4.7539
X1.2598Y4.6949
X1.2598Y4.6358
X1.2598Y4.5768
X1.2598Y4.5177
X1.2598Y4.4587
X1.2598Y4.3996
X1.2598Y4.3406
X1.2598Y4.2815
X1.2598Y4.2224
X1.2598Y4.1634
X1.2598Y4.1043
X1.2598Y4.0453
X1.2598Y3.9862
X1.2598Y3.9272
X1.2598Y3.8681
X1.2598Y3.8091
X1.2598Y3.75
X1.2598Y3.6909
X1.2598Y3.6319
X1.2598Y3.5728
X1.2598Y3.5138
X1.2598Y3.4547
X1.2598Y3.3957
X1.2598Y3.3366
X1.2598Y3.2776
X1.2598Y3.2185
X1.2598Y3.1594
X1.2598Y3.1004
X1.2598Y3.0413
X1.2598Y2.9823
X1.2598Y2.9232
X1.2598Y2.8642
X1.2598Y2.8051
X1.2598Y2.7461
X1.2598Y2.687
X1.2598Y2.628
X1.2598Y2.5689
X1.2598Y2.5098
X1.2598Y2.4508
X1.2598Y2.3917
X1.2598Y2.3327
X1.2598Y2.2736
X1.2598Y2.2146
X1.2598Y2.1555
X1.2598Y2.0965
X1.2598Y2.0374
X1.2598Y1.9783
X1.2598Y1.9193
X1.2598Y1.8602
X1.2598Y1.8012
X1.2598Y1.7421
X1.2598Y1.6831
X1.2598Y1.624
X1.2598Y1.565
X1.2598Y1.5059
X1.2598Y1.4469
X1.2598Y1.3878
X1.2598Y1.3287
X1.2598Y1.2697
X1.2598Y1.2106
X1.2598Y1.1516
X1.2598Y1.0925
X1.2598Y1.0335
X1.2598Y0.9744
X1.2598Y0.9154
X1.2598Y0.8563
X1.2598Y0.7972
X1.2598Y0.7382
X1.2598Y0.6791
X1.2598Y0.6201
X1.2598Y0.561
X1.2598Y0.502
X1.2598Y0.4429
X1.2598Y0.3839
X1.2598Y0.3248
X1.2598Y0.2657
X1.2598Y0.2067
X1.2598Y0.1476
X1.2598Y0.0886
X1.3189Y4.7539
X1.3189Y4.6949
X1.3189Y4.6358
X1.3189Y4.5768
X1.3189Y4.5177
X1.3189Y4.4587
X1.3189Y4.3996
X1.3189Y4.3406
X1.3189Y4.2815
X1.3189Y4.2224
X1.3189Y4.1634
X1.3189Y4.1043
X1.3189Y4.0453
X1.3189Y3.9862
X1.3189Y3.9272
X1.3189Y3.8681
X1.3189Y3.8091
X1.3189Y3.75
X1.3189Y3.6909
X1.3189Y3.6319
X1.3189Y3.5728
X1.3189Y3.5138
X1.3189Y3.4547
X1.3189Y3.3957
X1.3189Y3.3366
X1.3189Y3.2776
X1.3189Y3.2185
X1.3189Y3.1594
X1.3189Y3.1004
X1.3189Y3.0413
X1.3189Y2.9823
X1.3189Y2.9232
X1.3189Y2.8642
X1.3189Y2.8051
X1.3189Y2.7461
X1.3189Y2.687
X1.3189Y2.628
X1.3189Y2.5689
X1.3189Y2.5098
X1.3189Y2.4508
X1.3189Y2.3917
X1.3189Y2.3327
X1.3189Y2.2736
X1.3189Y2.2146
X1.3189Y2.1555
X1.3189Y2.0965
X1.3189Y2.0374
X1.3189Y1.9783
X1.3189Y1.9193
X1.3189Y1.8602
X1.3189Y1.8012
X1.3189Y1.7421
X1.3189Y1.6831
X1.3189Y1.624
X1.3189Y1.565
X1.3189Y1.5059
X1.3189Y1.4469
X1.3189Y1.3878
X1.3189Y1.3287
X1.3189Y1.2697
X1.3189Y1.2106
X1.3189Y1.1516
X1.3189Y1.0925
X1.3189Y1.0335
X1.3189Y0.9744
X1.3189Y0.9154
X1.3189Y0.8563
X1.3189Y0.7972
X1.3189Y0.7382
X1.3189Y0.6791
X1.3189Y0.6201
X1.3189Y0.561
X1.3189Y0.502
X1.3189Y0.4429
X1.3189Y0.3839
X1.3189Y0.3248
X1.3189Y0.2657
X1.3189Y0.2067
X1.3189Y0.1476
X1.3189Y0.0886
X1.46Y-0.1606
X1.572Y-0.7087
X1.632Y-0.7087
X1.64Y-0.3406
X1.692Y-0.7087
X1.7Y-0.3406
X1.7028Y4.7539
X1.7028Y4.6949
X1.7028Y4.6358
X1.7028Y4.5768
X1.7028Y4.5177
X1.7028Y4.4587
X1.7028Y4.3996
X1.7028Y4.3406
X1.7028Y4.2815
X1.7028Y4.2224
X1.7028Y4.1634
X1.7028Y4.1043
X1.7028Y4.0453
X1.7028Y3.9862
X1.7028Y3.9272
X1.7028Y3.8681
X1.7028Y3.8091
X1.7028Y3.75
X1.7028Y3.6909
X1.7028Y3.6319
X1.7028Y3.5728
X1.7028Y3.5138
X1.7028Y3.4547
X1.7028Y3.3957
X1.7028Y3.3366
X1.7028Y3.2776
X1.7028Y3.2185
X1.7028Y3.1594
X1.7028Y3.1004
X1.7028Y3.0413
X1.7028Y2.9823
X1.7028Y2.9232
X1.7028Y2.8642
X1.7028Y2.8051
X1.7028Y2.7461
X1.7028Y2.687
X1.7028Y2.628
X1.7028Y2.5689
X1.7028Y2.5098
X1.7028Y2.4508
X1.7028Y2.3917
X1.7028Y2.3327
X1.7028Y2.2736
X1.7028Y2.2146
X1.7028Y2.1555
X1.7028Y2.0965
X1.7028Y2.0374
X1.7028Y1.9783
X1.7028Y1.9193
X1.7028Y1.8602
X1.7028Y1.8012
X1.7028Y1.7421
X1.7028Y1.6831
X1.7028Y1.624
X1.7028Y1.565
X1.7028Y1.5059
X1.7028Y1.4469
X1.7028Y1.3878
X1.7028Y1.3287
X1.7028Y1.2697
X1.7028Y1.2106
X1.7028Y1.1516
X1.7028Y1.0925
X1.7028Y1.0335
X1.7028Y0.9744
X1.7028Y0.9154
X1.7028Y0.8563
X1.7028Y0.7972
X1.7028Y0.7382
X1.7028Y0.6791
X1.7028Y0.6201
X1.7028Y0.561
X1.7028Y0.502
X1.7028Y0.4429
X1.7028Y0.3839
X1.7409Y-0.1756
X1.7409Y-0.2606
X1.752Y-0.7087
X1.76Y-0.3406
X1.7618Y4.7539
X1.7618Y4.6949
X1.7618Y4.6358
X1.7618Y4.5768
X1.7618Y4.5177
X1.7618Y4.4587
X1.7618Y4.3996
X1.7618Y4.3406
X1.7618Y4.2815
X1.7618Y4.2224
X1.7618Y4.1634
X1.7618Y4.1043
X1.7618Y4.0453
X1.7618Y3.9862
X1.7618Y3.9272
X1.7618Y3.8681
X1.7618Y3.8091
X1.7618Y3.75
X1.7618Y3.6909
X1.7618Y3.6319
X1.7618Y3.5728
X1.7618Y3.5138
X1.7618Y3.4547
X1.7618Y3.3957
X1.7618Y3.3366
X1.7618Y3.2776
X1.7618Y3.2185
X1.7618Y3.1594
X1.7618Y3.1004
X1.7618Y3.0413
X1.7618Y2.9823
X1.7618Y2.9232
X1.7618Y2.8642
X1.7618Y2.8051
X1.7618Y2.7461
X1.7618Y2.687
X1.7618Y2.628
X1.7618Y2.5689
X1.7618Y2.5098
X1.7618Y2.4508
X1.7618Y2.3917
X1.7618Y2.3327
X1.7618Y2.2736
X1.7618Y2.2146
X1.7618Y2.1555
X1.7618Y2.0965
X1.7618Y2.0374
X1.7618Y1.9783
X1.7618Y1.9193
X1.7618Y1.8602
X1.7618Y1.8012
X1.7618Y1.7421
X1.7618Y1.6831
X1.7618Y1.624
X1.7618Y1.565
X1.7618Y1.5059
X1.7618Y1.4469
X1.7618Y1.3878
X1.7618Y1.3287
X1.7618Y1.2697
X1.7618Y1.2106
X1.7618Y1.1516
X1.7618Y1.0925
X1.7618Y1.0335
X1.7618Y0.9744
X1.7618Y0.9154
X1.7618Y0.8563
X1.7618Y0.7972
X1.7618Y0.7382
X1.7618Y0.6791
X1.7618Y0.6201
X1.7618Y0.561
X1.7618Y0.502
X1.7618Y0.4429
X1.7618Y0.3839
X1.79Y-0.1756
X1.795Y-0.2606
X1.812Y-0.7087
X1.82Y-0.3406
X1.8209Y4.7539
X1.8209Y4.6949
X1.8209Y4.6358
X1.8209Y4.5768
X1.8209Y4.5177
X1.8209Y4.4587
X1.8209Y4.3996
X1.8209Y4.3406
X1.8209Y4.2815
X1.8209Y4.2224
X1.8209Y4.1634
X1.8209Y4.1043
X1.8209Y4.0453
X1.8209Y3.9862
X1.8209Y3.9272
X1.8209Y3.8681
X1.8209Y3.8091
X1.8209Y3.75
X1.8209Y3.6909
X1.8209Y3.6319
X1.8209Y3.5728
X1.8209Y3.5138
X1.8209Y3.4547
X1.8209Y3.3957
X1.8209Y3.3366
X1.8209Y3.2776
X1.8209Y3.2185
X1.8209Y3.1594
X1.8209Y3.1004
X1.8209Y3.0413
X1.8209Y2.9823
X1.8209Y2.9232
X1.8209Y2.8642
X1.8209Y2.8051
X1.8209Y2.7461
X1.8209Y2.687
X1.8209Y2.628
X1.8209Y2.5689
X1.8209Y2.5098
X1.8209Y2.4508
X1.8209Y2.3917
X1.8209Y2.3327
X1.8209Y2.2736
X1.8209Y2.2146
X1.8209Y2.1555
X1.8209Y2.0965
X1.8209Y2.0374
X1.8209Y1.9783
X1.8209Y1.9193
X1.8209Y1.8602
X1.8209Y1.8012
X1.8209Y1.7421
X1.8209Y1.6831
X1.8209Y1.624
X1.8209Y1.565
X1.8209Y1.5059
X1.8209Y1.4469
X1.8209Y1.3878
X1.8209Y1.3287
X1.8209Y1.2697
X1.8209Y1.2106
X1.8209Y1.1516
X1.8209Y1.0925
X1.8209Y1.0335
X1.8209Y0.9744
X1.8209Y0.9154
X1.8209Y0.8563
X1.8209Y0.7972
X1.8209Y0.7382
X1.8209Y0.6791
X1.8209Y0.6201
X1.8209Y0.561
X1.8209Y0.502
X1.8209Y0.4429
X1.8209Y0.3839
X1.872Y-0.7087
X1.88Y-0.3406
X1.932Y-0.7087
X2.2146Y4.7539
X2.2146Y4.6949
X2.2146Y4.6358
X2.2146Y4.5768
X2.2146Y4.5177
X2.2146Y4.4587
X2.2146Y4.3996
X2.2146Y4.3406
X2.2146Y4.2815
X2.2146Y4.2224
X2.2146Y4.1634
X2.2146Y4.1043
X2.2146Y4.0453
X2.2146Y3.9862
X2.2146Y3.9272
X2.2146Y3.8681
X2.2146Y3.8091
X2.2146Y3.75
X2.2146Y3.6909
X2.2146Y3.6319
X2.2146Y3.5728
X2.2146Y3.5138
X2.2146Y3.4547
X2.2146Y3.3957
X2.2146Y3.3366
X2.2146Y3.2776
X2.2146Y3.2185
X2.2146Y3.1594
X2.2146Y3.1004
X2.2146Y3.0413
X2.2146Y2.9823
X2.2146Y2.9232
X2.2146Y2.8642
X2.2146Y2.8051
X2.2146Y2.7461
X2.2146Y2.687
X2.2146Y2.628
X2.2146Y2.5689
X2.2146Y2.5098
X2.2146Y2.4508
X2.2146Y2.3917
X2.2146Y2.3327
X2.2146Y2.2736
X2.2146Y2.2146
X2.2146Y2.1555
X2.2146Y2.0965
X2.2146Y2.0374
X2.2146Y1.9783
X2.2146Y1.9193
X2.2146Y1.8602
X2.2146Y1.8012
X2.2146Y1.7421
X2.2146Y1.6831
X2.2146Y1.624
X2.2146Y1.565
X2.2146Y1.5059
X2.2146Y1.4469
X2.2146Y1.3878
X2.2146Y1.3287
X2.2146Y1.2697
X2.2146Y1.2106
X2.2146Y1.1516
X2.2146Y1.0925
X2.2146Y1.0335
X2.2146Y0.9744
X2.2146Y0.9154
X2.2146Y0.8563
X2.2146Y0.7972
X2.2146Y0.7382
X2.2146Y0.6791
X2.2146Y0.6201
X2.2146Y0.561
X2.2146Y0.502
X2.2146Y0.4429
X2.2146Y0.3839
X2.2146Y0.3248
X2.2146Y0.2657
X2.2146Y0.2067
X2.2146Y0.1476
X2.2146Y0.0886
X2.2736Y4.7539
X2.2736Y4.6949
X2.2736Y4.6358
X2.2736Y4.5768
X2.2736Y4.5177
X2.2736Y4.4587
X2.2736Y4.3996
X2.2736Y4.3406
X2.2736Y4.2815
X2.2736Y4.2224
X2.2736Y4.1634
X2.2736Y4.1043
X2.2736Y4.0453
X2.2736Y3.9862
X2.2736Y3.9272
X2.2736Y3.8681
X2.2736Y3.8091
X2.2736Y3.75
X2.2736Y3.6909
X2.2736Y3.6319
X2.2736Y3.5728
X2.2736Y3.5138
X2.2736Y3.4547
X2.2736Y3.3957
X2.2736Y3.3366
X2.2736Y3.2776
X2.2736Y3.2185
X2.2736Y3.1594
X2.2736Y3.1004
X2.2736Y3.0413
X2.2736Y2.9823
X2.2736Y2.9232
X2.2736Y2.8642
X2.2736Y2.8051
X2.2736Y2.7461
X2.2736Y2.687
X2.2736Y2.628
X2.2736Y2.5689
X2.2736Y2.5098
X2.2736Y2.4508
X2.2736Y2.3917
X2.2736Y2.3327
X2.2736Y2.2736
X2.2736Y2.2146
X2.2736Y2.1555
X2.2736Y2.0965
X2.2736Y2.0374
X2.2736Y1.9783
X2.2736Y1.9193
X2.2736Y1.8602
X2.2736Y1.8012
X2.2736Y1.7421
X2.2736Y1.6831
X2.2736Y1.624
X2.2736Y1.565
X2.2736Y1.5059
X2.2736Y1.4469
X2.2736Y1.3878
X2.2736Y1.3287
X2.2736Y1.2697
X2.2736Y1.2106
X2.2736Y1.1516
X2.2736Y1.0925
X2.2736Y1.0335
X2.2736Y0.9744
X2.2736Y0.9154
X2.2736Y0.8563
X2.2736Y0.7972
X2.2736Y0.7382
X2.2736Y0.6791
X2.2736Y0.6201
X2.2736Y0.561
X2.2736Y0.502
X2.2736Y0.4429
X2.2736Y0.3839
X2.2736Y0.3248
X2.2736Y0.2657
X2.2736Y0.2067
X2.2736Y0.1476
X2.2736Y0.0886
T3
X-0.3004Y-0.6956
X-0.2004Y-0.6956
X-0.1004Y-0.6956
T4
X-0.7874Y0.0
X0.0Y0.0
X0.7874Y0.0
T0
M30
