%TF.GenerationSoftware,KiCad,Pcbnew,(6.0.8-1)-1*%
%TF.CreationDate,2022-11-06T16:40:48+01:00*%
%TF.ProjectId,shunt_regulator,7368756e-745f-4726-9567-756c61746f72,rev?*%
%TF.SameCoordinates,Original*%
%TF.FileFunction,Copper,L2,Bot*%
%TF.FilePolarity,Positive*%
%FSLAX46Y46*%
G04 Gerber Fmt 4.6, Leading zero omitted, Abs format (unit mm)*
G04 Created by KiCad (PCBNEW (6.0.8-1)-1) date 2022-11-06 16:40:48*
%MOMM*%
%LPD*%
G01*
G04 APERTURE LIST*
%TA.AperFunction,ComponentPad*%
%ADD10C,1.440000*%
%TD*%
%TA.AperFunction,ComponentPad*%
%ADD11C,10.000000*%
%TD*%
%TA.AperFunction,ViaPad*%
%ADD12C,1.000000*%
%TD*%
%TA.AperFunction,ViaPad*%
%ADD13C,0.500000*%
%TD*%
%TA.AperFunction,Conductor*%
%ADD14C,1.000000*%
%TD*%
%TA.AperFunction,Conductor*%
%ADD15C,5.000000*%
%TD*%
%TA.AperFunction,Conductor*%
%ADD16C,0.500000*%
%TD*%
G04 APERTURE END LIST*
D10*
%TO.P,RV1,1,1*%
%TO.N,Net-(R1-Pad1)*%
X-7630000Y-17669000D03*
%TO.P,RV1,2,2*%
X-5090000Y-17669000D03*
%TO.P,RV1,3,3*%
%TO.N,Net-(Q1-Pad1)*%
X-2550000Y-17669000D03*
%TD*%
D11*
%TO.P,J1,1,Pin_1*%
%TO.N,GND*%
X-20000000Y0D03*
%TO.P,J1,2,Pin_2*%
%TO.N,unconnected-(J1-Pad2)*%
X0Y0D03*
%TO.P,J1,3,Pin_3*%
%TO.N,+VDC*%
X20000000Y0D03*
%TD*%
D12*
%TO.N,+VDC*%
X-19431000Y-10303000D03*
X-21474528Y-12346528D03*
%TO.N,GND*%
X1778000Y-18905000D03*
X41656000Y-8652000D03*
X45593000Y-6620000D03*
X41452000Y-18000000D03*
X39928000Y-18000000D03*
X44704000Y-8652000D03*
X47548000Y-18000000D03*
X16510000Y-14367000D03*
X-6096000Y-13859000D03*
X-27686000Y-20082000D03*
X44500000Y-18000000D03*
X27178000Y-17526000D03*
X46024000Y-18000000D03*
X49072000Y-18000000D03*
X9779000Y-13859000D03*
X22987000Y-11573000D03*
X46228000Y-8652000D03*
X42976000Y-18000000D03*
X45466000Y-4461000D03*
X25146000Y-17526000D03*
X47752000Y-8652000D03*
X44218000Y-4461000D03*
X43180000Y-8652000D03*
X1143000Y-13605000D03*
X44218000Y-6620000D03*
%TO.N,VCC*%
X14732000Y-19447000D03*
X9017000Y-15129000D03*
X19685000Y-15510000D03*
X-25781000Y-20209000D03*
X-22860000Y-19447000D03*
X9525000Y-19701000D03*
D13*
%TO.N,Net-(Q1-Pad1)*%
X3048000Y-16145000D03*
X5207000Y-16129000D03*
D12*
%TO.N,Net-(Q4-Pad1)*%
X37084000Y-4080000D03*
X29250000Y-10000000D03*
%TO.N,Net-(Q4-Pad2)*%
X43250000Y41250000D03*
X44750000Y110250000D03*
X44750000Y62250000D03*
X46250000Y98250000D03*
X46250000Y54750000D03*
X43250000Y50250000D03*
X43250000Y44250000D03*
X46250000Y108750000D03*
X43250000Y27750000D03*
X43250000Y14250000D03*
X46250000Y30750000D03*
X43250000Y90750000D03*
X43250000Y9750000D03*
X44750000Y56250000D03*
X43250000Y53250000D03*
X46250000Y101250000D03*
X44750000Y45750000D03*
X44750000Y71250000D03*
X44750000Y87750000D03*
X43250000Y30750000D03*
X44750000Y59250000D03*
X44750000Y38250000D03*
X44750000Y27750000D03*
X46250000Y35250000D03*
X46250000Y47250000D03*
X44750000Y77250000D03*
X44750000Y63750000D03*
X43250000Y81750000D03*
X46250000Y105750000D03*
X44750000Y23250000D03*
X44750000Y14250000D03*
X43250000Y65250000D03*
X46250000Y81750000D03*
X43250000Y111750000D03*
X44750000Y41250000D03*
X44750000Y72750000D03*
X46250000Y68250000D03*
X44750000Y78750000D03*
X46250000Y12750000D03*
X46250000Y95250000D03*
X44750000Y42750000D03*
X44750000Y98250000D03*
X43250000Y36750000D03*
X46250000Y33750000D03*
X44750000Y99750000D03*
X43250000Y15750000D03*
X44750000Y47250000D03*
X46250000Y83250000D03*
X44750000Y107250000D03*
X43250000Y33750000D03*
X44750000Y9750000D03*
X46250000Y120750000D03*
X46250000Y17250000D03*
X46250000Y56250000D03*
X43250000Y47250000D03*
X43250000Y35250000D03*
X46250000Y104250000D03*
X46250000Y111750000D03*
X43250000Y93750000D03*
X43250000Y77250000D03*
X46250000Y69750000D03*
X44750000Y50250000D03*
X44750000Y12750000D03*
X44750000Y84750000D03*
X44750000Y65250000D03*
X44750000Y53250000D03*
X43250000Y59250000D03*
X46250000Y96750000D03*
X46250000Y11250000D03*
X44750000Y96750000D03*
X44750000Y30750000D03*
X44750000Y93750000D03*
X46250000Y86250000D03*
X46250000Y41250000D03*
X43250000Y60750000D03*
X46250000Y71250000D03*
X43250000Y108750000D03*
X44750000Y86250000D03*
X43250000Y84750000D03*
X43250000Y26250000D03*
X46250000Y93750000D03*
X44750000Y101250000D03*
X44750000Y36750000D03*
X44750000Y116250000D03*
X44750000Y15750000D03*
X46250000Y48750000D03*
X43250000Y107250000D03*
X44750000Y33750000D03*
X43250000Y74250000D03*
X44750000Y89250000D03*
X46250000Y89250000D03*
X43250000Y17250000D03*
X44750000Y21750000D03*
X44750000Y17250000D03*
X46250000Y36750000D03*
X43250000Y78750000D03*
X46250000Y90750000D03*
X44750000Y74250000D03*
X44750000Y29250000D03*
X46250000Y102750000D03*
X43250000Y63750000D03*
X43250000Y99750000D03*
X43250000Y87750000D03*
X46250000Y27750000D03*
X46250000Y116250000D03*
X44750000Y105750000D03*
X43250000Y12750000D03*
X46250000Y72750000D03*
X43250000Y116250000D03*
X43250000Y45750000D03*
X43250000Y42750000D03*
X46250000Y114750000D03*
X44750000Y119250000D03*
X46250000Y23250000D03*
X46250000Y50250000D03*
X46250000Y62250000D03*
X46250000Y110250000D03*
X46250000Y39750000D03*
X43250000Y11250000D03*
X43250000Y69750000D03*
X46250000Y113250000D03*
X46250000Y119250000D03*
X46250000Y107250000D03*
X46250000Y45750000D03*
X46250000Y38250000D03*
X43250000Y20250000D03*
X44750000Y66750000D03*
X44750000Y111750000D03*
X46250000Y29250000D03*
X46250000Y32250000D03*
X43250000Y38250000D03*
X44750000Y11250000D03*
X44750000Y81750000D03*
X43250000Y101250000D03*
X44750000Y60750000D03*
X43250000Y51750000D03*
X43250000Y119250000D03*
X44750000Y20250000D03*
X43250000Y86250000D03*
X43250000Y21750000D03*
X44750000Y92250000D03*
X46250000Y66750000D03*
X46250000Y78750000D03*
X43250000Y48750000D03*
X43250000Y72750000D03*
X43250000Y32250000D03*
X46250000Y9750000D03*
X46250000Y75750000D03*
X44750000Y68250000D03*
X43250000Y54750000D03*
X46250000Y74250000D03*
X46250000Y77250000D03*
X46250000Y20250000D03*
X43250000Y110250000D03*
X44750000Y102750000D03*
X46250000Y42750000D03*
X43250000Y96750000D03*
X44750000Y69750000D03*
X46250000Y80250000D03*
X43250000Y57750000D03*
X43250000Y56250000D03*
X43250000Y23250000D03*
X43250000Y39750000D03*
X43250000Y71250000D03*
X43250000Y114750000D03*
X46250000Y59250000D03*
X46250000Y99750000D03*
X43250000Y29250000D03*
X46250000Y14250000D03*
X44750000Y90750000D03*
X43250000Y113250000D03*
X46250000Y65250000D03*
X43250000Y102750000D03*
X46250000Y15750000D03*
X43250000Y104250000D03*
X43250000Y80250000D03*
X43250000Y66750000D03*
X46250000Y18750000D03*
X46250000Y63750000D03*
X44750000Y75750000D03*
X46250000Y117750000D03*
X43250000Y105750000D03*
X43250000Y83250000D03*
X44750000Y35250000D03*
X44750000Y51750000D03*
X46250000Y57750000D03*
X46250000Y21750000D03*
X43250000Y117750000D03*
X44750000Y18750000D03*
X46250000Y60750000D03*
X44750000Y108750000D03*
X46250000Y53250000D03*
X46250000Y51750000D03*
X43250000Y68250000D03*
X44750000Y120750000D03*
X44750000Y80250000D03*
X43250000Y75750000D03*
X43250000Y95250000D03*
X44750000Y57750000D03*
X43250000Y62250000D03*
X43250000Y24750000D03*
X44750000Y104250000D03*
X44750000Y95250000D03*
X44750000Y32250000D03*
X46250000Y24750000D03*
X44750000Y44250000D03*
X43250000Y120750000D03*
X44750000Y39750000D03*
X46250000Y26250000D03*
X44750000Y114750000D03*
X43250000Y18750000D03*
X43250000Y98250000D03*
X44750000Y24750000D03*
X43250000Y92250000D03*
X44750000Y54750000D03*
X43250000Y89250000D03*
X44750000Y117750000D03*
X44750000Y113250000D03*
X46250000Y87750000D03*
X44750000Y83250000D03*
X46250000Y44250000D03*
X44750000Y48750000D03*
X44750000Y26250000D03*
X46250000Y84750000D03*
X46250000Y92250000D03*
D13*
%TO.N,Net-(R6-Pad2)*%
X10160000Y-17399000D03*
X14351000Y-17034000D03*
D12*
%TO.N,Net-(F1-Pad2)*%
X57750000Y69750000D03*
X57750000Y93750000D03*
X56250000Y89250000D03*
X56250000Y59250000D03*
X57750000Y11250000D03*
X57750000Y47250000D03*
X57750000Y6750000D03*
X57750000Y108750000D03*
X56250000Y15750000D03*
X57750000Y57750000D03*
X56250000Y44250000D03*
X57750000Y45750000D03*
X56250000Y6750000D03*
X56250000Y8250000D03*
X57750000Y116250000D03*
X56250000Y12750000D03*
X56250000Y99750000D03*
X56250000Y57750000D03*
X57750000Y20250000D03*
X56250000Y35250000D03*
X56250000Y23250000D03*
X56250000Y102750000D03*
X56250000Y66750000D03*
X57750000Y90750000D03*
X57750000Y119250000D03*
X57750000Y101250000D03*
X56250000Y48750000D03*
X57750000Y84750000D03*
X56250000Y90750000D03*
X57750000Y56250000D03*
X56250000Y77250000D03*
X56250000Y17250000D03*
X56250000Y105750000D03*
X56250000Y74250000D03*
X56250000Y24750000D03*
X57750000Y80250000D03*
X56250000Y32250000D03*
X57750000Y32250000D03*
X57750000Y89250000D03*
X56250000Y96750000D03*
X56250000Y78750000D03*
X56250000Y63750000D03*
X56250000Y92250000D03*
X57750000Y71250000D03*
X56250000Y39750000D03*
X57750000Y96750000D03*
X56250000Y42750000D03*
X57750000Y75750000D03*
X57750000Y113250000D03*
X56250000Y27750000D03*
X57750000Y107250000D03*
X57750000Y63750000D03*
X57750000Y21750000D03*
X56250000Y87750000D03*
X56250000Y69750000D03*
X56250000Y9750000D03*
X57750000Y104250000D03*
X57750000Y62250000D03*
X57750000Y54750000D03*
X57750000Y41250000D03*
X56250000Y110250000D03*
X56250000Y2250000D03*
X56250000Y14250000D03*
X57750000Y2250000D03*
X56250000Y65250000D03*
X57750000Y117750000D03*
X56250000Y68250000D03*
X56250000Y38250000D03*
X56250000Y26250000D03*
X57750000Y98250000D03*
X57750000Y23250000D03*
X57750000Y105750000D03*
X56250000Y36750000D03*
X56250000Y114750000D03*
X56250000Y45750000D03*
X57750000Y120750000D03*
X57750000Y27750000D03*
X57750000Y59250000D03*
X57750000Y92250000D03*
X57750000Y5250000D03*
X57750000Y81750000D03*
X57750000Y66750000D03*
X56250000Y51750000D03*
X56250000Y113250000D03*
X57750000Y60750000D03*
X56250000Y83250000D03*
X57750000Y36750000D03*
X57750000Y18750000D03*
X56250000Y98250000D03*
X56250000Y72750000D03*
X57750000Y83250000D03*
X57750000Y86250000D03*
X57750000Y42750000D03*
X56250000Y107250000D03*
X57750000Y44250000D03*
X56250000Y5250000D03*
X57750000Y78750000D03*
X57750000Y29250000D03*
X56250000Y120750000D03*
X56250000Y47250000D03*
X57750000Y38250000D03*
X57750000Y8250000D03*
X57750000Y110250000D03*
X57750000Y39750000D03*
X56250000Y3750000D03*
X56250000Y75750000D03*
X57750000Y87750000D03*
X57750000Y15750000D03*
X56250000Y11250000D03*
X56250000Y111750000D03*
X57750000Y114750000D03*
X57750000Y74250000D03*
X57750000Y35250000D03*
X57750000Y33750000D03*
X57750000Y30750000D03*
X56250000Y18750000D03*
X56250000Y56250000D03*
X56250000Y30750000D03*
X56250000Y93750000D03*
X56250000Y101250000D03*
X57750000Y24750000D03*
X57750000Y26250000D03*
X56250000Y71250000D03*
X57750000Y68250000D03*
X56250000Y53250000D03*
X56250000Y33750000D03*
X56250000Y108750000D03*
X57750000Y53250000D03*
X56250000Y50250000D03*
X56250000Y41250000D03*
X56250000Y29250000D03*
X57750000Y51750000D03*
X56250000Y119250000D03*
X57750000Y17250000D03*
X57750000Y48750000D03*
X57750000Y50250000D03*
X57750000Y3750000D03*
X56250000Y21750000D03*
X56250000Y95250000D03*
X56250000Y54750000D03*
X57750000Y102750000D03*
X57750000Y14250000D03*
X56250000Y81750000D03*
X57750000Y72750000D03*
X57750000Y77250000D03*
X56250000Y62250000D03*
X56250000Y80250000D03*
X56250000Y20250000D03*
X57750000Y9750000D03*
X56250000Y86250000D03*
X57750000Y111750000D03*
X56250000Y117750000D03*
X57750000Y99750000D03*
X57750000Y12750000D03*
X57750000Y95250000D03*
X56250000Y84750000D03*
X56250000Y60750000D03*
X56250000Y116250000D03*
X57750000Y65250000D03*
X56250000Y104250000D03*
%TO.N,Net-(F2-Pad2)*%
X32000000Y62250000D03*
X33500000Y50250000D03*
X32000000Y29250000D03*
X32000000Y8250000D03*
X33500000Y32250000D03*
X33500000Y96750000D03*
X32000000Y90750000D03*
X33500000Y3750000D03*
X33500000Y110250000D03*
X33500000Y33750000D03*
X32000000Y95250000D03*
X32000000Y71250000D03*
X33500000Y47250000D03*
X33500000Y30750000D03*
X33500000Y89250000D03*
X33500000Y11250000D03*
X33500000Y66750000D03*
X33500000Y117750000D03*
X32000000Y66750000D03*
X32000000Y41250000D03*
X33500000Y17250000D03*
X32000000Y26250000D03*
X33500000Y72750000D03*
X32000000Y119250000D03*
X32000000Y68250000D03*
X33500000Y99750000D03*
X33500000Y59250000D03*
X32000000Y20250000D03*
X32000000Y107250000D03*
X32000000Y93750000D03*
X33500000Y63750000D03*
X32000000Y47250000D03*
X33500000Y23250000D03*
X33500000Y29250000D03*
X32000000Y14250000D03*
X33500000Y120750000D03*
X32000000Y11250000D03*
X33500000Y111750000D03*
X32000000Y99750000D03*
X33500000Y24750000D03*
X32000000Y63750000D03*
X32000000Y92250000D03*
X32000000Y96750000D03*
X33500000Y41250000D03*
X33500000Y68250000D03*
X33500000Y101250000D03*
X32000000Y50250000D03*
X33500000Y20250000D03*
X33500000Y90750000D03*
X33500000Y74250000D03*
X32000000Y98250000D03*
X33500000Y81750000D03*
X33500000Y21750000D03*
X32000000Y36750000D03*
X32000000Y9750000D03*
X32000000Y75750000D03*
X32000000Y89250000D03*
X32000000Y120750000D03*
X33500000Y62250000D03*
X32000000Y113250000D03*
X33500000Y8250000D03*
X33500000Y95250000D03*
X32000000Y59250000D03*
X32000000Y57750000D03*
X32000000Y117750000D03*
X33500000Y78750000D03*
X33500000Y108750000D03*
X33500000Y84750000D03*
X33500000Y105750000D03*
X33500000Y56250000D03*
X32000000Y65250000D03*
X33500000Y54750000D03*
X32000000Y44250000D03*
X32000000Y45750000D03*
X33500000Y15750000D03*
X32000000Y42750000D03*
X32000000Y110250000D03*
X33500000Y53250000D03*
X33500000Y39750000D03*
X32000000Y54750000D03*
X33500000Y26250000D03*
X33500000Y12750000D03*
X33500000Y51750000D03*
X33500000Y35250000D03*
X32000000Y48750000D03*
X32000000Y35250000D03*
X32000000Y83250000D03*
X32000000Y15750000D03*
X32000000Y17250000D03*
X32000000Y5250000D03*
X33500000Y42750000D03*
X32000000Y84750000D03*
X32000000Y72750000D03*
X33500000Y36750000D03*
X33500000Y113250000D03*
X32000000Y114750000D03*
X33500000Y114750000D03*
X32000000Y116250000D03*
X33500000Y14250000D03*
X32000000Y53250000D03*
X32000000Y51750000D03*
X32000000Y23250000D03*
X32000000Y21750000D03*
X33500000Y75750000D03*
X33500000Y27750000D03*
X32000000Y60750000D03*
X32000000Y18750000D03*
X32000000Y77250000D03*
X33500000Y57750000D03*
X33500000Y87750000D03*
X32000000Y33750000D03*
X32000000Y101250000D03*
X33500000Y116250000D03*
X32000000Y12750000D03*
X33500000Y45750000D03*
X33500000Y71250000D03*
X32000000Y32250000D03*
X32000000Y2250000D03*
X33500000Y38250000D03*
X33500000Y80250000D03*
X32000000Y27750000D03*
X33500000Y104250000D03*
X33500000Y119250000D03*
X32000000Y80250000D03*
X33500000Y92250000D03*
X33500000Y5250000D03*
X32000000Y111750000D03*
X33500000Y9750000D03*
X33500000Y98250000D03*
X33500000Y102750000D03*
X32000000Y104250000D03*
X33500000Y60750000D03*
X32000000Y69750000D03*
X33500000Y48750000D03*
X33500000Y44250000D03*
X33500000Y107250000D03*
X32000000Y78750000D03*
X32000000Y24750000D03*
X32000000Y3750000D03*
X32000000Y38250000D03*
X32000000Y102750000D03*
X32000000Y81750000D03*
X32000000Y86250000D03*
X32000000Y6750000D03*
X32000000Y30750000D03*
X33500000Y83250000D03*
X33500000Y93750000D03*
X32000000Y87750000D03*
X33500000Y77250000D03*
X32000000Y39750000D03*
X33500000Y2250000D03*
X32000000Y105750000D03*
X33500000Y6750000D03*
X32000000Y108750000D03*
X33500000Y86250000D03*
X33500000Y18750000D03*
X32000000Y74250000D03*
X33500000Y65250000D03*
X32000000Y56250000D03*
X33500000Y69750000D03*
D13*
%TO.N,Net-(R7-Pad2)*%
X12992544Y-16162561D03*
X15240000Y-18304000D03*
%TD*%
D14*
%TO.N,+VDC*%
X-21474528Y-12346528D02*
X-19431000Y-10303000D01*
D15*
%TO.N,GND*%
X-20000000Y0D02*
X-24500000Y4500000D01*
X-20000000Y0D02*
X-15000000Y-5000000D01*
X-20000000Y0D02*
X-24500000Y-4500000D01*
X-20000000Y0D02*
X-16000000Y4000000D01*
X-19050000Y0D02*
X-19050000Y-50000D01*
X-19050000Y0D02*
X-19050000Y50000D01*
D14*
%TO.N,VCC*%
X19177000Y-19701000D02*
X14986000Y-19701000D01*
X-25677000Y-20105000D02*
X-25781000Y-20209000D01*
X14986000Y-19701000D02*
X14732000Y-19447000D01*
X9210000Y-15322000D02*
X9017000Y-15129000D01*
X-25781000Y-20209000D02*
X-23622000Y-20209000D01*
X9121000Y-20105000D02*
X-25677000Y-20105000D01*
X9525000Y-19701000D02*
X9121000Y-20105000D01*
X19685000Y-15510000D02*
X19685000Y-19193000D01*
X19685000Y-19193000D02*
X19177000Y-19701000D01*
X-23622000Y-20209000D02*
X-22860000Y-19447000D01*
X9210000Y-19386000D02*
X9210000Y-15322000D01*
D16*
%TO.N,Net-(Q1-Pad1)*%
X5207000Y-16145000D02*
X5207000Y-16129000D01*
X3048000Y-16145000D02*
X5207000Y-16145000D01*
D14*
%TO.N,Net-(Q4-Pad1)*%
X31164000Y-10000000D02*
X29250000Y-10000000D01*
X37084000Y-4080000D02*
X31164000Y-10000000D01*
D16*
%TO.N,Net-(R6-Pad2)*%
X10160000Y-17034000D02*
X14351000Y-17034000D01*
X10160000Y-17399000D02*
X10160000Y-17034000D01*
%TO.N,Net-(R7-Pad2)*%
X15240000Y-18304000D02*
X15240000Y-16933051D01*
X12974983Y-16145000D02*
X12992544Y-16162561D01*
X15240000Y-16933051D02*
X14451949Y-16145000D01*
X14451949Y-16145000D02*
X12974983Y-16145000D01*
%TD*%
%TA.AperFunction,Conductor*%
%TO.N,GND*%
G36*
X30937509Y12709258D02*
G01*
X30980056Y12652423D01*
X30988000Y12608390D01*
X30988000Y11282617D01*
X30987438Y11272560D01*
X30987406Y11270275D01*
X30986719Y11264149D01*
X30987235Y11258005D01*
X30987558Y11254157D01*
X30988000Y11243614D01*
X30988000Y9782617D01*
X30987438Y9772560D01*
X30987406Y9770275D01*
X30986719Y9764149D01*
X30987235Y9758005D01*
X30987558Y9754157D01*
X30988000Y9743614D01*
X30988000Y8282617D01*
X30987438Y8272560D01*
X30987406Y8270275D01*
X30986719Y8264149D01*
X30987235Y8258005D01*
X30987558Y8254157D01*
X30988000Y8243614D01*
X30988000Y6782617D01*
X30987438Y6772560D01*
X30987406Y6770275D01*
X30986719Y6764149D01*
X30987235Y6758005D01*
X30987558Y6754157D01*
X30988000Y6743614D01*
X30988000Y5282617D01*
X30987438Y5272560D01*
X30987406Y5270275D01*
X30986719Y5264149D01*
X30987235Y5258005D01*
X30987558Y5254157D01*
X30988000Y5243614D01*
X30988000Y3782617D01*
X30987438Y3772560D01*
X30987406Y3770275D01*
X30986719Y3764149D01*
X30987235Y3758005D01*
X30987558Y3754157D01*
X30988000Y3743614D01*
X30988000Y2282617D01*
X30987438Y2272560D01*
X30987406Y2270275D01*
X30986719Y2264149D01*
X30987235Y2258005D01*
X30987558Y2254157D01*
X30988000Y2243614D01*
X30988000Y-3064000D01*
X36380314Y-3064000D01*
X36448435Y-3084002D01*
X36494928Y-3137658D01*
X36505032Y-3207932D01*
X36475538Y-3272512D01*
X36459270Y-3288193D01*
X36453447Y-3292875D01*
X36411027Y-3326738D01*
X36410104Y-3327661D01*
X36408688Y-3328862D01*
X36374975Y-3355968D01*
X36371008Y-3360696D01*
X36342933Y-3394154D01*
X36335507Y-3402258D01*
X30783171Y-8954595D01*
X30720859Y-8988621D01*
X30694076Y-8991500D01*
X29309873Y-8991500D01*
X29296703Y-8990810D01*
X29263204Y-8987289D01*
X29263202Y-8987289D01*
X29257075Y-8986645D01*
X29206827Y-8991218D01*
X29202793Y-8991500D01*
X29200231Y-8991500D01*
X29197173Y-8991800D01*
X29197169Y-8991800D01*
X29155404Y-8995895D01*
X29154529Y-8995977D01*
X29132830Y-8997952D01*
X29060112Y-9004570D01*
X29056703Y-9005573D01*
X29053167Y-9005920D01*
X28962279Y-9033361D01*
X28961610Y-9033561D01*
X28870381Y-9060410D01*
X28867228Y-9062058D01*
X28863831Y-9063084D01*
X28779899Y-9107711D01*
X28779319Y-9108016D01*
X28695110Y-9152040D01*
X28692342Y-9154265D01*
X28689204Y-9155934D01*
X28684426Y-9159831D01*
X28615628Y-9215941D01*
X28614944Y-9216494D01*
X28545782Y-9272102D01*
X28545776Y-9272108D01*
X28540975Y-9275968D01*
X28538692Y-9278689D01*
X28535938Y-9280935D01*
X28532011Y-9285682D01*
X28532009Y-9285684D01*
X28514447Y-9306913D01*
X28486946Y-9340157D01*
X28475441Y-9354064D01*
X28474935Y-9354671D01*
X28459570Y-9372983D01*
X28422944Y-9416632D01*
X28413846Y-9427474D01*
X28412134Y-9430589D01*
X28409870Y-9433325D01*
X28406939Y-9438746D01*
X28364700Y-9516865D01*
X28364298Y-9517603D01*
X28318567Y-9600787D01*
X28317494Y-9604170D01*
X28315802Y-9607299D01*
X28311447Y-9621368D01*
X28287725Y-9698002D01*
X28287462Y-9698842D01*
X28273707Y-9742204D01*
X28258765Y-9789306D01*
X28258369Y-9792837D01*
X28257318Y-9796232D01*
X28256674Y-9802363D01*
X28247397Y-9890625D01*
X28247302Y-9891500D01*
X28237406Y-9979725D01*
X28236719Y-9985851D01*
X28237016Y-9989392D01*
X28236645Y-9992925D01*
X28245254Y-10087518D01*
X28245310Y-10088159D01*
X28253268Y-10182934D01*
X28254248Y-10186353D01*
X28254570Y-10189888D01*
X28259336Y-10206080D01*
X28281364Y-10280928D01*
X28281577Y-10281660D01*
X28307783Y-10373050D01*
X28309406Y-10376208D01*
X28310410Y-10379619D01*
X28329260Y-10415675D01*
X28354410Y-10463783D01*
X28354814Y-10464563D01*
X28387167Y-10527513D01*
X28398187Y-10548956D01*
X28400393Y-10551739D01*
X28402040Y-10554890D01*
X28444924Y-10608226D01*
X28461466Y-10628800D01*
X28462015Y-10629488D01*
X28498054Y-10674958D01*
X28521035Y-10703953D01*
X28523743Y-10706258D01*
X28525968Y-10709025D01*
X28598781Y-10770123D01*
X28599247Y-10770516D01*
X28671650Y-10832136D01*
X28674751Y-10833869D01*
X28677474Y-10836154D01*
X28682869Y-10839120D01*
X28682872Y-10839122D01*
X28760718Y-10881919D01*
X28761485Y-10882344D01*
X28844294Y-10928624D01*
X28847677Y-10929723D01*
X28850787Y-10931433D01*
X28856668Y-10933298D01*
X28856669Y-10933299D01*
X28941233Y-10960124D01*
X28942071Y-10960393D01*
X28962513Y-10967035D01*
X29032392Y-10989740D01*
X29035919Y-10990161D01*
X29039306Y-10991235D01*
X29045427Y-10991922D01*
X29045429Y-10991922D01*
X29133594Y-11001811D01*
X29134468Y-11001912D01*
X29228777Y-11013158D01*
X29234912Y-11012686D01*
X29234914Y-11012686D01*
X29284489Y-11008871D01*
X29294156Y-11008500D01*
X31102157Y-11008500D01*
X31115764Y-11009237D01*
X31147262Y-11012659D01*
X31147267Y-11012659D01*
X31153388Y-11013324D01*
X31179638Y-11011027D01*
X31203388Y-11008950D01*
X31208214Y-11008621D01*
X31210686Y-11008500D01*
X31213769Y-11008500D01*
X31225738Y-11007326D01*
X31256506Y-11004310D01*
X31257819Y-11004188D01*
X31302084Y-11000315D01*
X31350413Y-10996087D01*
X31355532Y-10994600D01*
X31360833Y-10994080D01*
X31449834Y-10967209D01*
X31450967Y-10966874D01*
X31534414Y-10942630D01*
X31534418Y-10942628D01*
X31540336Y-10940909D01*
X31545068Y-10938456D01*
X31550169Y-10936916D01*
X31560481Y-10931433D01*
X31632260Y-10893269D01*
X31633426Y-10892657D01*
X31710453Y-10852729D01*
X31715926Y-10849892D01*
X31720089Y-10846569D01*
X31724796Y-10844066D01*
X31796918Y-10785245D01*
X31797774Y-10784554D01*
X31836973Y-10753262D01*
X31839477Y-10750758D01*
X31840195Y-10750116D01*
X31844528Y-10746415D01*
X31878062Y-10719065D01*
X31883094Y-10712983D01*
X31907287Y-10683738D01*
X31915277Y-10674958D01*
X37747797Y-4842437D01*
X37759309Y-4832251D01*
X37782847Y-4813861D01*
X37820687Y-4770023D01*
X37826959Y-4763275D01*
X37832309Y-4757925D01*
X37854552Y-4730847D01*
X37856487Y-4728548D01*
X37912078Y-4664145D01*
X37915121Y-4658787D01*
X37918672Y-4653754D01*
X37918929Y-4653935D01*
X37919024Y-4653798D01*
X37918762Y-4653623D01*
X37922194Y-4648497D01*
X37926102Y-4643739D01*
X37966269Y-4568829D01*
X37967757Y-4566133D01*
X38006726Y-4497535D01*
X38009769Y-4492179D01*
X38011714Y-4486332D01*
X38014221Y-4480701D01*
X38014506Y-4480828D01*
X38014569Y-4480681D01*
X38014280Y-4480561D01*
X38016649Y-4474870D01*
X38019562Y-4469437D01*
X38044419Y-4388133D01*
X38045347Y-4385226D01*
X38070251Y-4310362D01*
X38072197Y-4304513D01*
X38072970Y-4298398D01*
X38074335Y-4292390D01*
X38074638Y-4292459D01*
X38074674Y-4292292D01*
X38074368Y-4292230D01*
X38075584Y-4286200D01*
X38077387Y-4280302D01*
X38078010Y-4274169D01*
X38085978Y-4195732D01*
X38086326Y-4192675D01*
X38096545Y-4111776D01*
X38096985Y-4108295D01*
X38097139Y-4097305D01*
X38097272Y-4087779D01*
X38097272Y-4087777D01*
X38097324Y-4084033D01*
X38097374Y-4083538D01*
X38097336Y-4083138D01*
X38097380Y-4080000D01*
X38095180Y-4057563D01*
X38087920Y-3983517D01*
X38087878Y-3983080D01*
X38079318Y-3892526D01*
X38079317Y-3892522D01*
X38078761Y-3886638D01*
X38078253Y-3884935D01*
X38078080Y-3883167D01*
X38076375Y-3877521D01*
X38076374Y-3877514D01*
X38050154Y-3790669D01*
X38050027Y-3790249D01*
X38023937Y-3702732D01*
X38023936Y-3702730D01*
X38022259Y-3697104D01*
X38021429Y-3695529D01*
X38020916Y-3693831D01*
X37975323Y-3608083D01*
X37930018Y-3522154D01*
X37928901Y-3520775D01*
X37928066Y-3519204D01*
X37866587Y-3443823D01*
X37866431Y-3443630D01*
X37809253Y-3373021D01*
X37809248Y-3373016D01*
X37805553Y-3368453D01*
X37804190Y-3367317D01*
X37803065Y-3365938D01*
X37728262Y-3304056D01*
X37727985Y-3303825D01*
X37707554Y-3286802D01*
X37668022Y-3227830D01*
X37666649Y-3156847D01*
X37703870Y-3096389D01*
X37767869Y-3065653D01*
X37788209Y-3064000D01*
X58365500Y-3064000D01*
X58433621Y-3084002D01*
X58480114Y-3137658D01*
X58491500Y-3190000D01*
X58491500Y-19950633D01*
X58490000Y-19970018D01*
X58489269Y-19974716D01*
X58486309Y-19993724D01*
X58487473Y-20002626D01*
X58487489Y-20002750D01*
X58487760Y-20033193D01*
X58480766Y-20095264D01*
X58474487Y-20122771D01*
X58447515Y-20199853D01*
X58435273Y-20225274D01*
X58391822Y-20294426D01*
X58374230Y-20316485D01*
X58316485Y-20374230D01*
X58294426Y-20391822D01*
X58225274Y-20435273D01*
X58199853Y-20447515D01*
X58122772Y-20474487D01*
X58095264Y-20480766D01*
X58039774Y-20487018D01*
X58024132Y-20486923D01*
X58024121Y-20487800D01*
X58015149Y-20487690D01*
X58006276Y-20486309D01*
X57997374Y-20487473D01*
X57997372Y-20487473D01*
X57986385Y-20488910D01*
X57974714Y-20490436D01*
X57958379Y-20491500D01*
X20116925Y-20491500D01*
X20048804Y-20471498D01*
X20002311Y-20417842D01*
X19992207Y-20347568D01*
X20021701Y-20282988D01*
X20027830Y-20276405D01*
X20354384Y-19949851D01*
X20364527Y-19940749D01*
X20389218Y-19920897D01*
X20394025Y-19917032D01*
X20426312Y-19878554D01*
X20429467Y-19874938D01*
X20431123Y-19873112D01*
X20433309Y-19870926D01*
X20435264Y-19868546D01*
X20435273Y-19868536D01*
X20460576Y-19837732D01*
X20461418Y-19836717D01*
X20517194Y-19770245D01*
X20521154Y-19765526D01*
X20523723Y-19760852D01*
X20527102Y-19756739D01*
X20570975Y-19674915D01*
X20571584Y-19673793D01*
X20590682Y-19639055D01*
X20616433Y-19592213D01*
X20618045Y-19587131D01*
X20620562Y-19582437D01*
X20647762Y-19493469D01*
X20648108Y-19492358D01*
X20649424Y-19488212D01*
X20676235Y-19403694D01*
X20676829Y-19398398D01*
X20678387Y-19393302D01*
X20687785Y-19300778D01*
X20687905Y-19299658D01*
X20693500Y-19249773D01*
X20693500Y-19246246D01*
X20693556Y-19245243D01*
X20694003Y-19239559D01*
X20698373Y-19196538D01*
X20694059Y-19150899D01*
X20693500Y-19139043D01*
X20693500Y-15581722D01*
X20694492Y-15565944D01*
X20697985Y-15538295D01*
X20698202Y-15522767D01*
X20698331Y-15513523D01*
X20698331Y-15513520D01*
X20698380Y-15510000D01*
X20679080Y-15313167D01*
X20621916Y-15123831D01*
X20618084Y-15116623D01*
X20531959Y-14954645D01*
X20529066Y-14949204D01*
X20458709Y-14862938D01*
X20407960Y-14800713D01*
X20407957Y-14800710D01*
X20404065Y-14795938D01*
X20397724Y-14790692D01*
X20256425Y-14673799D01*
X20256421Y-14673797D01*
X20251675Y-14669870D01*
X20077701Y-14575802D01*
X19888768Y-14517318D01*
X19882643Y-14516674D01*
X19882642Y-14516674D01*
X19698204Y-14497289D01*
X19698202Y-14497289D01*
X19692075Y-14496645D01*
X19609576Y-14504153D01*
X19501251Y-14514011D01*
X19501248Y-14514012D01*
X19495112Y-14514570D01*
X19489206Y-14516308D01*
X19489202Y-14516309D01*
X19384076Y-14547249D01*
X19305381Y-14570410D01*
X19299923Y-14573263D01*
X19299919Y-14573265D01*
X19233597Y-14607938D01*
X19130110Y-14662040D01*
X18975975Y-14785968D01*
X18848846Y-14937474D01*
X18845879Y-14942872D01*
X18845875Y-14942877D01*
X18795234Y-15034994D01*
X18753567Y-15110787D01*
X18751706Y-15116654D01*
X18751705Y-15116656D01*
X18745700Y-15135587D01*
X18693765Y-15299306D01*
X18689342Y-15338737D01*
X18678733Y-15433328D01*
X18678604Y-15434474D01*
X18671719Y-15495851D01*
X18672613Y-15506495D01*
X18676058Y-15547524D01*
X18676500Y-15558067D01*
X18676500Y-18566500D01*
X18656498Y-18634621D01*
X18602842Y-18681114D01*
X18550500Y-18692500D01*
X16086498Y-18692500D01*
X16018377Y-18672498D01*
X15971884Y-18618842D01*
X15961780Y-18548568D01*
X15968709Y-18521759D01*
X15976818Y-18500412D01*
X15976820Y-18500403D01*
X15979319Y-18493825D01*
X15984744Y-18455224D01*
X15985001Y-18453395D01*
X15987386Y-18440984D01*
X15996473Y-18403848D01*
X15996474Y-18403842D01*
X15997808Y-18398390D01*
X15998500Y-18387236D01*
X15998500Y-18366151D01*
X15999726Y-18348615D01*
X16002452Y-18329221D01*
X16002452Y-18329218D01*
X16003001Y-18325313D01*
X16003299Y-18304000D01*
X15999285Y-18268213D01*
X15998500Y-18254169D01*
X15998500Y-17000114D01*
X15999933Y-16981165D01*
X16002097Y-16966937D01*
X16003198Y-16959702D01*
X15998915Y-16907041D01*
X15998500Y-16896828D01*
X15998500Y-16888758D01*
X15998078Y-16885138D01*
X15998077Y-16885120D01*
X15995208Y-16860512D01*
X15994775Y-16856137D01*
X15994466Y-16852330D01*
X15992050Y-16822627D01*
X15989454Y-16790712D01*
X15989453Y-16790709D01*
X15988860Y-16783414D01*
X15986604Y-16776450D01*
X15985413Y-16770491D01*
X15984029Y-16764636D01*
X15983182Y-16757370D01*
X15958265Y-16688724D01*
X15956848Y-16684596D01*
X15936607Y-16622115D01*
X15936606Y-16622113D01*
X15934351Y-16615152D01*
X15930555Y-16608897D01*
X15928049Y-16603423D01*
X15925330Y-16597993D01*
X15922833Y-16591114D01*
X15918509Y-16584518D01*
X15907007Y-16566975D01*
X15882809Y-16530067D01*
X15880472Y-16526363D01*
X15878653Y-16523364D01*
X15846990Y-16471185D01*
X15845509Y-16468744D01*
X15845505Y-16468739D01*
X15842595Y-16463943D01*
X15835197Y-16455567D01*
X15835223Y-16455544D01*
X15832574Y-16452554D01*
X15829866Y-16449315D01*
X15825856Y-16443199D01*
X15820549Y-16438172D01*
X15820546Y-16438168D01*
X15769617Y-16389923D01*
X15767175Y-16387545D01*
X15035719Y-15656089D01*
X15023333Y-15641677D01*
X15014800Y-15630082D01*
X15014795Y-15630077D01*
X15010457Y-15624182D01*
X15004879Y-15619443D01*
X15004876Y-15619440D01*
X14970181Y-15589965D01*
X14962665Y-15583035D01*
X14956970Y-15577340D01*
X14950829Y-15572482D01*
X14934698Y-15559719D01*
X14931294Y-15556928D01*
X14881246Y-15514409D01*
X14881244Y-15514408D01*
X14875664Y-15509667D01*
X14869148Y-15506339D01*
X14864099Y-15502972D01*
X14858970Y-15499805D01*
X14853233Y-15495266D01*
X14787074Y-15464345D01*
X14783174Y-15462439D01*
X14718141Y-15429231D01*
X14711033Y-15427492D01*
X14705390Y-15425393D01*
X14699627Y-15423476D01*
X14692999Y-15420378D01*
X14684216Y-15418551D01*
X14639677Y-15409287D01*
X14621532Y-15405513D01*
X14617248Y-15404543D01*
X14546339Y-15387192D01*
X14540737Y-15386844D01*
X14540734Y-15386844D01*
X14535185Y-15386500D01*
X14535187Y-15386464D01*
X14531194Y-15386225D01*
X14527002Y-15385851D01*
X14519834Y-15384360D01*
X14459174Y-15386001D01*
X14442428Y-15386454D01*
X14439021Y-15386500D01*
X13062924Y-15386500D01*
X13051723Y-15386001D01*
X13050033Y-15385850D01*
X13042868Y-15384360D01*
X12971750Y-15386284D01*
X12965462Y-15386454D01*
X12962055Y-15386500D01*
X12930690Y-15386500D01*
X12926270Y-15387015D01*
X12915100Y-15387816D01*
X12879058Y-15388791D01*
X12873379Y-15388945D01*
X12873378Y-15388945D01*
X12866062Y-15389143D01*
X12858988Y-15391019D01*
X12858985Y-15391019D01*
X12841862Y-15395559D01*
X12824164Y-15398919D01*
X12806574Y-15400970D01*
X12806573Y-15400970D01*
X12799302Y-15401818D01*
X12792422Y-15404315D01*
X12792415Y-15404317D01*
X12753202Y-15418551D01*
X12742505Y-15421904D01*
X12695099Y-15434474D01*
X12688646Y-15437927D01*
X12688643Y-15437928D01*
X12673029Y-15446283D01*
X12656573Y-15453627D01*
X12639927Y-15459669D01*
X12639925Y-15459670D01*
X12633046Y-15462167D01*
X12606699Y-15479441D01*
X12592035Y-15489055D01*
X12582394Y-15494779D01*
X12545609Y-15514461D01*
X12545606Y-15514463D01*
X12539149Y-15517918D01*
X12529407Y-15526522D01*
X12520385Y-15534490D01*
X12506062Y-15545421D01*
X12485131Y-15559144D01*
X12451399Y-15594752D01*
X12443346Y-15602528D01*
X12424197Y-15619440D01*
X12412148Y-15630082D01*
X12406579Y-15635000D01*
X12402354Y-15640978D01*
X12402347Y-15640986D01*
X12392128Y-15655445D01*
X12380707Y-15669374D01*
X12368531Y-15682227D01*
X12368525Y-15682235D01*
X12363493Y-15687547D01*
X12359816Y-15693878D01*
X12338864Y-15729949D01*
X12332807Y-15739384D01*
X12308724Y-15773460D01*
X12308720Y-15773468D01*
X12304499Y-15779440D01*
X12301765Y-15786225D01*
X12301764Y-15786226D01*
X12295142Y-15802658D01*
X12287229Y-15818846D01*
X12274657Y-15840490D01*
X12263636Y-15876879D01*
X12260444Y-15887417D01*
X12256720Y-15897993D01*
X12241121Y-15936698D01*
X12241119Y-15936704D01*
X12238385Y-15943489D01*
X12237285Y-15950723D01*
X12234620Y-15968239D01*
X12230644Y-15985809D01*
X12223388Y-16009767D01*
X12222935Y-16017073D01*
X12222934Y-16017078D01*
X12220352Y-16058709D01*
X12219161Y-16069856D01*
X12211784Y-16118349D01*
X12212377Y-16125641D01*
X12212377Y-16125643D01*
X12213487Y-16139285D01*
X12199074Y-16208803D01*
X12149364Y-16259493D01*
X12087902Y-16275500D01*
X10344500Y-16275500D01*
X10276379Y-16255498D01*
X10229886Y-16201842D01*
X10218500Y-16149500D01*
X10218500Y-15383842D01*
X10219237Y-15370235D01*
X10222659Y-15338737D01*
X10222659Y-15338732D01*
X10223324Y-15332611D01*
X10221515Y-15311934D01*
X10218950Y-15282609D01*
X10218621Y-15277784D01*
X10218500Y-15275313D01*
X10218500Y-15272231D01*
X10214309Y-15229489D01*
X10214187Y-15228174D01*
X10206623Y-15141719D01*
X10206087Y-15135587D01*
X10204600Y-15130468D01*
X10204080Y-15125167D01*
X10201501Y-15116623D01*
X10177237Y-15036259D01*
X10176862Y-15034994D01*
X10171906Y-15017935D01*
X10150909Y-14945663D01*
X10148455Y-14940929D01*
X10146916Y-14935831D01*
X10139439Y-14921768D01*
X10103316Y-14853831D01*
X10102702Y-14852663D01*
X10062726Y-14775541D01*
X10062725Y-14775540D01*
X10059892Y-14770074D01*
X10056569Y-14765911D01*
X10054066Y-14761204D01*
X9995245Y-14689082D01*
X9994554Y-14688226D01*
X9963262Y-14649027D01*
X9960758Y-14646523D01*
X9960116Y-14645805D01*
X9956415Y-14641472D01*
X9929065Y-14607938D01*
X9893736Y-14578711D01*
X9884955Y-14570721D01*
X9771067Y-14456833D01*
X9762519Y-14447373D01*
X9739958Y-14419711D01*
X9739957Y-14419710D01*
X9736065Y-14414938D01*
X9731323Y-14411015D01*
X9731321Y-14411013D01*
X9697244Y-14382822D01*
X9695838Y-14381604D01*
X9694925Y-14380691D01*
X9658560Y-14350820D01*
X9583675Y-14288870D01*
X9582112Y-14288025D01*
X9580739Y-14286897D01*
X9573438Y-14282982D01*
X9495289Y-14241080D01*
X9494901Y-14240870D01*
X9414917Y-14197622D01*
X9414914Y-14197621D01*
X9409701Y-14194802D01*
X9407997Y-14194275D01*
X9406437Y-14193438D01*
X9400799Y-14191714D01*
X9400796Y-14191713D01*
X9314004Y-14165178D01*
X9313584Y-14165049D01*
X9226386Y-14138057D01*
X9220768Y-14136318D01*
X9219000Y-14136132D01*
X9217302Y-14135613D01*
X9120804Y-14125811D01*
X9120540Y-14125784D01*
X9024075Y-14115645D01*
X9022308Y-14115806D01*
X9020538Y-14115626D01*
X9014656Y-14116182D01*
X9014655Y-14116182D01*
X8923822Y-14124768D01*
X8923385Y-14124808D01*
X8878269Y-14128914D01*
X8827112Y-14133570D01*
X8825407Y-14134072D01*
X8823638Y-14134239D01*
X8817989Y-14135923D01*
X8817984Y-14135924D01*
X8730728Y-14161936D01*
X8730307Y-14162061D01*
X8637381Y-14189410D01*
X8635805Y-14190234D01*
X8634104Y-14190741D01*
X8548252Y-14236006D01*
X8462110Y-14281040D01*
X8460725Y-14282154D01*
X8459154Y-14282982D01*
X8454572Y-14286692D01*
X8454568Y-14286695D01*
X8383918Y-14343907D01*
X8383576Y-14344183D01*
X8312591Y-14401256D01*
X8312588Y-14401259D01*
X8307975Y-14404968D01*
X8306832Y-14406331D01*
X8305453Y-14407447D01*
X8301663Y-14411996D01*
X8243555Y-14481739D01*
X8243273Y-14482076D01*
X8214548Y-14516309D01*
X8180846Y-14556474D01*
X8179988Y-14558035D01*
X8178854Y-14559396D01*
X8176037Y-14564563D01*
X8176034Y-14564567D01*
X8168311Y-14578732D01*
X8132375Y-14644642D01*
X8085567Y-14729787D01*
X8085031Y-14731476D01*
X8084178Y-14733041D01*
X8082420Y-14738652D01*
X8082418Y-14738656D01*
X8068803Y-14782104D01*
X8055074Y-14825914D01*
X8025765Y-14918306D01*
X8025567Y-14920070D01*
X8025035Y-14921768D01*
X8024400Y-14927615D01*
X8024399Y-14927619D01*
X8019511Y-14972620D01*
X8014541Y-15018373D01*
X8003719Y-15114851D01*
X8003868Y-15116623D01*
X8003676Y-15118388D01*
X8004190Y-15124264D01*
X8004190Y-15124265D01*
X8005287Y-15136801D01*
X8012134Y-15215071D01*
X8020268Y-15311934D01*
X8020758Y-15313644D01*
X8020913Y-15315413D01*
X8047996Y-15408634D01*
X8074783Y-15502050D01*
X8075596Y-15503632D01*
X8076091Y-15505336D01*
X8106737Y-15564458D01*
X8120788Y-15591565D01*
X8120989Y-15591956D01*
X8150247Y-15648885D01*
X8165187Y-15677956D01*
X8166290Y-15679347D01*
X8167108Y-15680926D01*
X8173972Y-15689524D01*
X8200839Y-15755239D01*
X8201500Y-15768132D01*
X8201500Y-18970500D01*
X8181498Y-19038621D01*
X8127842Y-19085114D01*
X8075500Y-19096500D01*
X-2173876Y-19096500D01*
X-2241997Y-19076498D01*
X-2288490Y-19022842D01*
X-2298594Y-18952568D01*
X-2269100Y-18887988D01*
X-2206489Y-18848793D01*
X-2128223Y-18827822D01*
X-2092388Y-18811112D01*
X-1938384Y-18739299D01*
X-1938381Y-18739297D01*
X-1933403Y-18736976D01*
X-1757319Y-18613681D01*
X-1605319Y-18461681D01*
X-1482024Y-18285596D01*
X-1473918Y-18268214D01*
X-1393501Y-18095759D01*
X-1393500Y-18095757D01*
X-1391178Y-18090777D01*
X-1378923Y-18045043D01*
X-1336966Y-17888457D01*
X-1336966Y-17888455D01*
X-1335542Y-17883142D01*
X-1316807Y-17669000D01*
X-1335542Y-17454858D01*
X-1378634Y-17294038D01*
X-1389755Y-17252533D01*
X-1389756Y-17252531D01*
X-1391178Y-17247223D01*
X-1482024Y-17052404D01*
X-1605319Y-16876319D01*
X-1757319Y-16724319D01*
X-1933403Y-16601024D01*
X-1938381Y-16598703D01*
X-1938384Y-16598701D01*
X-2123241Y-16512501D01*
X-2123242Y-16512500D01*
X-2128223Y-16510178D01*
X-2133531Y-16508756D01*
X-2133533Y-16508755D01*
X-2330543Y-16455966D01*
X-2330545Y-16455966D01*
X-2335858Y-16454542D01*
X-2550000Y-16435807D01*
X-2764142Y-16454542D01*
X-2769455Y-16455966D01*
X-2769457Y-16455966D01*
X-2966467Y-16508755D01*
X-2966469Y-16508756D01*
X-2971777Y-16510178D01*
X-2976757Y-16512500D01*
X-2976759Y-16512501D01*
X-3161615Y-16598701D01*
X-3161618Y-16598703D01*
X-3166596Y-16601024D01*
X-3342681Y-16724319D01*
X-3494681Y-16876319D01*
X-3617976Y-17052404D01*
X-3620297Y-17057382D01*
X-3620299Y-17057385D01*
X-3705805Y-17240753D01*
X-3752723Y-17294038D01*
X-3821000Y-17313499D01*
X-3888960Y-17292957D01*
X-3934195Y-17240753D01*
X-4019701Y-17057385D01*
X-4019703Y-17057382D01*
X-4022024Y-17052404D01*
X-4145319Y-16876319D01*
X-4297319Y-16724319D01*
X-4473403Y-16601024D01*
X-4478381Y-16598703D01*
X-4478384Y-16598701D01*
X-4663241Y-16512501D01*
X-4663242Y-16512500D01*
X-4668223Y-16510178D01*
X-4673531Y-16508756D01*
X-4673533Y-16508755D01*
X-4870543Y-16455966D01*
X-4870545Y-16455966D01*
X-4875858Y-16454542D01*
X-5090000Y-16435807D01*
X-5304142Y-16454542D01*
X-5309455Y-16455966D01*
X-5309457Y-16455966D01*
X-5506467Y-16508755D01*
X-5506469Y-16508756D01*
X-5511777Y-16510178D01*
X-5516757Y-16512500D01*
X-5516759Y-16512501D01*
X-5701615Y-16598701D01*
X-5701618Y-16598703D01*
X-5706596Y-16601024D01*
X-5882681Y-16724319D01*
X-6034681Y-16876319D01*
X-6157976Y-17052404D01*
X-6160297Y-17057382D01*
X-6160299Y-17057385D01*
X-6245805Y-17240753D01*
X-6292723Y-17294038D01*
X-6361000Y-17313499D01*
X-6428960Y-17292957D01*
X-6474195Y-17240753D01*
X-6559701Y-17057385D01*
X-6559703Y-17057382D01*
X-6562024Y-17052404D01*
X-6685319Y-16876319D01*
X-6837319Y-16724319D01*
X-7013403Y-16601024D01*
X-7018381Y-16598703D01*
X-7018384Y-16598701D01*
X-7203241Y-16512501D01*
X-7203242Y-16512500D01*
X-7208223Y-16510178D01*
X-7213531Y-16508756D01*
X-7213533Y-16508755D01*
X-7410543Y-16455966D01*
X-7410545Y-16455966D01*
X-7415858Y-16454542D01*
X-7630000Y-16435807D01*
X-7844142Y-16454542D01*
X-7849455Y-16455966D01*
X-7849457Y-16455966D01*
X-8046467Y-16508755D01*
X-8046469Y-16508756D01*
X-8051777Y-16510178D01*
X-8056757Y-16512500D01*
X-8056759Y-16512501D01*
X-8241615Y-16598701D01*
X-8241618Y-16598703D01*
X-8246596Y-16601024D01*
X-8422681Y-16724319D01*
X-8574681Y-16876319D01*
X-8697976Y-17052404D01*
X-8788822Y-17247223D01*
X-8790244Y-17252531D01*
X-8790245Y-17252533D01*
X-8801366Y-17294038D01*
X-8844458Y-17454858D01*
X-8863193Y-17669000D01*
X-8844458Y-17883142D01*
X-8843034Y-17888455D01*
X-8843034Y-17888457D01*
X-8801076Y-18045043D01*
X-8788822Y-18090777D01*
X-8786500Y-18095757D01*
X-8786499Y-18095759D01*
X-8706081Y-18268214D01*
X-8697976Y-18285596D01*
X-8574681Y-18461681D01*
X-8422681Y-18613681D01*
X-8246597Y-18736976D01*
X-8241619Y-18739297D01*
X-8241616Y-18739299D01*
X-8087612Y-18811112D01*
X-8051777Y-18827822D01*
X-7973511Y-18848793D01*
X-7912890Y-18885745D01*
X-7881868Y-18949606D01*
X-7890297Y-19020100D01*
X-7935500Y-19074847D01*
X-8006124Y-19096500D01*
X-21828411Y-19096500D01*
X-21896532Y-19076498D01*
X-21939661Y-19029654D01*
X-21968538Y-18975344D01*
X-21968743Y-18974957D01*
X-22011244Y-18894347D01*
X-22013982Y-18889153D01*
X-22015100Y-18887772D01*
X-22015934Y-18886204D01*
X-22077299Y-18810963D01*
X-22086086Y-18800112D01*
X-22134729Y-18740042D01*
X-22134735Y-18740036D01*
X-22138447Y-18735452D01*
X-22139813Y-18734314D01*
X-22140935Y-18732938D01*
X-22151339Y-18724331D01*
X-22215618Y-18671154D01*
X-22215955Y-18670874D01*
X-22285889Y-18612608D01*
X-22290396Y-18608853D01*
X-22291956Y-18608002D01*
X-22293325Y-18606870D01*
X-22378410Y-18560864D01*
X-22378796Y-18560655D01*
X-22400965Y-18548568D01*
X-22464041Y-18514178D01*
X-22465737Y-18513646D01*
X-22467299Y-18512802D01*
X-22559837Y-18484157D01*
X-22560257Y-18484026D01*
X-22619132Y-18465576D01*
X-22652768Y-18455035D01*
X-22654536Y-18454843D01*
X-22656232Y-18454318D01*
X-22662083Y-18453703D01*
X-22662088Y-18453702D01*
X-22752525Y-18444197D01*
X-22752962Y-18444150D01*
X-22843541Y-18434310D01*
X-22843543Y-18434310D01*
X-22849388Y-18433675D01*
X-22851162Y-18433830D01*
X-22852925Y-18433645D01*
X-22925752Y-18440273D01*
X-22949046Y-18442393D01*
X-22949485Y-18442433D01*
X-23046413Y-18450913D01*
X-23048121Y-18451409D01*
X-23049888Y-18451570D01*
X-23055527Y-18453230D01*
X-23055529Y-18453230D01*
X-23143057Y-18478991D01*
X-23143204Y-18479034D01*
X-23236336Y-18506091D01*
X-23237911Y-18506907D01*
X-23239619Y-18507410D01*
X-23244826Y-18510132D01*
X-23244828Y-18510133D01*
X-23325614Y-18552367D01*
X-23325908Y-18552520D01*
X-23411926Y-18597108D01*
X-23413314Y-18598216D01*
X-23414890Y-18599040D01*
X-23490644Y-18659948D01*
X-23530227Y-18691546D01*
X-23530233Y-18691552D01*
X-23532972Y-18693738D01*
X-23533887Y-18694653D01*
X-23535309Y-18695859D01*
X-23564217Y-18719102D01*
X-23569025Y-18722968D01*
X-23572992Y-18727696D01*
X-23601072Y-18761160D01*
X-23608498Y-18769264D01*
X-23898829Y-19059595D01*
X-23961141Y-19093621D01*
X-23987924Y-19096500D01*
X-25615158Y-19096500D01*
X-25628765Y-19095763D01*
X-25660263Y-19092341D01*
X-25660268Y-19092341D01*
X-25666389Y-19091676D01*
X-25684389Y-19093251D01*
X-25716391Y-19096050D01*
X-25721216Y-19096379D01*
X-25723687Y-19096500D01*
X-25726769Y-19096500D01*
X-25749237Y-19098703D01*
X-25769511Y-19100691D01*
X-25770826Y-19100813D01*
X-25803087Y-19103636D01*
X-25863413Y-19108913D01*
X-25868532Y-19110400D01*
X-25873833Y-19110920D01*
X-25962806Y-19137782D01*
X-25963946Y-19138120D01*
X-26053337Y-19164091D01*
X-26058071Y-19166545D01*
X-26063169Y-19168084D01*
X-26068613Y-19170978D01*
X-26068614Y-19170979D01*
X-26145169Y-19211684D01*
X-26146337Y-19212298D01*
X-26209894Y-19245243D01*
X-26228926Y-19255108D01*
X-26233089Y-19258431D01*
X-26237796Y-19260934D01*
X-26309918Y-19319755D01*
X-26310774Y-19320446D01*
X-26349973Y-19351738D01*
X-26352477Y-19354242D01*
X-26353195Y-19354884D01*
X-26357528Y-19358585D01*
X-26391062Y-19385935D01*
X-26394990Y-19390683D01*
X-26394991Y-19390684D01*
X-26420289Y-19421264D01*
X-26428278Y-19430043D01*
X-26450382Y-19452147D01*
X-26460524Y-19461248D01*
X-26490025Y-19484968D01*
X-26492308Y-19487689D01*
X-26495062Y-19489935D01*
X-26498989Y-19494682D01*
X-26498991Y-19494684D01*
X-26527187Y-19528766D01*
X-26528398Y-19530164D01*
X-26529309Y-19531075D01*
X-26556642Y-19564349D01*
X-26557304Y-19565147D01*
X-26617154Y-19636474D01*
X-26618866Y-19639589D01*
X-26621130Y-19642325D01*
X-26621975Y-19643888D01*
X-26623103Y-19645261D01*
X-26625889Y-19650457D01*
X-26666977Y-19727086D01*
X-26667606Y-19728245D01*
X-26690695Y-19770245D01*
X-26712433Y-19809787D01*
X-26713506Y-19813170D01*
X-26715198Y-19816299D01*
X-26715725Y-19818003D01*
X-26716562Y-19819563D01*
X-26743762Y-19908531D01*
X-26744082Y-19909559D01*
X-26772235Y-19998306D01*
X-26772631Y-20001837D01*
X-26773682Y-20005232D01*
X-26773868Y-20007000D01*
X-26774387Y-20008698D01*
X-26774981Y-20014547D01*
X-26783781Y-20101178D01*
X-26783914Y-20102427D01*
X-26794281Y-20194851D01*
X-26793984Y-20198392D01*
X-26794355Y-20201925D01*
X-26794194Y-20203692D01*
X-26794374Y-20205462D01*
X-26787863Y-20274338D01*
X-26785625Y-20298016D01*
X-26785508Y-20299331D01*
X-26780837Y-20354957D01*
X-26795069Y-20424512D01*
X-26844646Y-20475332D01*
X-26906395Y-20491500D01*
X-27950634Y-20491500D01*
X-27970019Y-20490000D01*
X-27984852Y-20487690D01*
X-27984856Y-20487690D01*
X-27993725Y-20486309D01*
X-28002627Y-20487473D01*
X-28002632Y-20487473D01*
X-28002751Y-20487489D01*
X-28033188Y-20487760D01*
X-28095263Y-20480766D01*
X-28122768Y-20474488D01*
X-28199859Y-20447513D01*
X-28225275Y-20435273D01*
X-28225930Y-20434861D01*
X-28294427Y-20391822D01*
X-28316486Y-20374230D01*
X-28374230Y-20316486D01*
X-28391822Y-20294427D01*
X-28435273Y-20225275D01*
X-28447513Y-20199859D01*
X-28474488Y-20122768D01*
X-28480766Y-20095264D01*
X-28487018Y-20039776D01*
X-28486923Y-20024133D01*
X-28487800Y-20024122D01*
X-28487690Y-20015150D01*
X-28486309Y-20006277D01*
X-28487476Y-19997347D01*
X-28490436Y-19974716D01*
X-28491500Y-19958379D01*
X-28491500Y-16134343D01*
X2284775Y-16134343D01*
X2285954Y-16146366D01*
X2286181Y-16148681D01*
X2286540Y-16168774D01*
X2285453Y-16186298D01*
X2286693Y-16193514D01*
X2286693Y-16193516D01*
X2294965Y-16241654D01*
X2296184Y-16250697D01*
X2300693Y-16296688D01*
X2300694Y-16296693D01*
X2301381Y-16303699D01*
X2303604Y-16310381D01*
X2303605Y-16310387D01*
X2307155Y-16321058D01*
X2311776Y-16339489D01*
X2315406Y-16360614D01*
X2333903Y-16404083D01*
X2335892Y-16408758D01*
X2339511Y-16418322D01*
X2352871Y-16458486D01*
X2352873Y-16458490D01*
X2355094Y-16465167D01*
X2366589Y-16484148D01*
X2374744Y-16500067D01*
X2384657Y-16523364D01*
X2388996Y-16529260D01*
X2413390Y-16562408D01*
X2419684Y-16571818D01*
X2443246Y-16610723D01*
X2448143Y-16615794D01*
X2461349Y-16629469D01*
X2472195Y-16642314D01*
X2485154Y-16659924D01*
X2485156Y-16659927D01*
X2489492Y-16665818D01*
X2523510Y-16694718D01*
X2532561Y-16703212D01*
X2556559Y-16728063D01*
X2556563Y-16728067D01*
X2561455Y-16733132D01*
X2567346Y-16736987D01*
X2586520Y-16749535D01*
X2599099Y-16758937D01*
X2624285Y-16780333D01*
X2654134Y-16795575D01*
X2660590Y-16798871D01*
X2672284Y-16805656D01*
X2703846Y-16826310D01*
X2735563Y-16838106D01*
X2748931Y-16843981D01*
X2772737Y-16856137D01*
X2781808Y-16860769D01*
X2814979Y-16868886D01*
X2817656Y-16869541D01*
X2831626Y-16873832D01*
X2856736Y-16883170D01*
X2856739Y-16883171D01*
X2863341Y-16885626D01*
X2870324Y-16886558D01*
X2870325Y-16886558D01*
X2879943Y-16887841D01*
X2900734Y-16890616D01*
X2914005Y-16893117D01*
X2953610Y-16902808D01*
X2959215Y-16903156D01*
X2959217Y-16903156D01*
X2962825Y-16903380D01*
X2962835Y-16903380D01*
X2964764Y-16903500D01*
X2988933Y-16903500D01*
X3005595Y-16904607D01*
X3012765Y-16905563D01*
X3025035Y-16907201D01*
X3025038Y-16907201D01*
X3032015Y-16908132D01*
X3039026Y-16907494D01*
X3039030Y-16907494D01*
X3077208Y-16904019D01*
X3088628Y-16903500D01*
X5179165Y-16903500D01*
X5186966Y-16903742D01*
X5248298Y-16907547D01*
X5311889Y-16896620D01*
X5318610Y-16895652D01*
X5340337Y-16893119D01*
X5375411Y-16889030D01*
X5375414Y-16889029D01*
X5382681Y-16888182D01*
X5391607Y-16884942D01*
X5413258Y-16879201D01*
X5422614Y-16877594D01*
X5481996Y-16852327D01*
X5488289Y-16849848D01*
X5548937Y-16827833D01*
X5555739Y-16823374D01*
X5556878Y-16822627D01*
X5576615Y-16812067D01*
X5578623Y-16811213D01*
X5578635Y-16811206D01*
X5585364Y-16808343D01*
X5591256Y-16804007D01*
X5591261Y-16804004D01*
X5637332Y-16770100D01*
X5642928Y-16766210D01*
X5661792Y-16753842D01*
X5696852Y-16730856D01*
X5703384Y-16723961D01*
X5720166Y-16709139D01*
X5727818Y-16703508D01*
X5732553Y-16697935D01*
X5732560Y-16697928D01*
X5769581Y-16654351D01*
X5774133Y-16649277D01*
X5813457Y-16607766D01*
X5813458Y-16607765D01*
X5818490Y-16602453D01*
X5822165Y-16596126D01*
X5822172Y-16596117D01*
X5823267Y-16594232D01*
X5836185Y-16575953D01*
X5837594Y-16574294D01*
X5837596Y-16574291D01*
X5842333Y-16568715D01*
X5845659Y-16562201D01*
X5845662Y-16562197D01*
X5871670Y-16511264D01*
X5874932Y-16505281D01*
X5903649Y-16455841D01*
X5903650Y-16455839D01*
X5907326Y-16449510D01*
X5909447Y-16442506D01*
X5909449Y-16442502D01*
X5910078Y-16440425D01*
X5918451Y-16419649D01*
X5922769Y-16411192D01*
X5938108Y-16348505D01*
X5939891Y-16341988D01*
X5958595Y-16280233D01*
X5959183Y-16270754D01*
X5962551Y-16248617D01*
X5963474Y-16244846D01*
X5963476Y-16244834D01*
X5964808Y-16239390D01*
X5965500Y-16228236D01*
X5965500Y-16191151D01*
X5966726Y-16173615D01*
X5969452Y-16154221D01*
X5969452Y-16154218D01*
X5970001Y-16150313D01*
X5970155Y-16139285D01*
X5970244Y-16132955D01*
X5970244Y-16132950D01*
X5970299Y-16129000D01*
X5969857Y-16125064D01*
X5969664Y-16121115D01*
X5969893Y-16121104D01*
X5969823Y-16118301D01*
X5969489Y-16118319D01*
X5969093Y-16111011D01*
X5969547Y-16103702D01*
X5964425Y-16073894D01*
X5963452Y-16067145D01*
X5961069Y-16046701D01*
X5961007Y-16046158D01*
X5951755Y-15963672D01*
X5951331Y-15959892D01*
X5950756Y-15958240D01*
X5950182Y-15953319D01*
X5922393Y-15876765D01*
X5921880Y-15875322D01*
X5897685Y-15805843D01*
X5895368Y-15799189D01*
X5893300Y-15795878D01*
X5892332Y-15793945D01*
X5889833Y-15787063D01*
X5847041Y-15721794D01*
X5845575Y-15719504D01*
X5808925Y-15660853D01*
X5805192Y-15654879D01*
X5800744Y-15650399D01*
X5798125Y-15646772D01*
X5796872Y-15645274D01*
X5792856Y-15639148D01*
X5787540Y-15634113D01*
X5787535Y-15634106D01*
X5738816Y-15587954D01*
X5736084Y-15585286D01*
X5685286Y-15534132D01*
X5679334Y-15530354D01*
X5674567Y-15526522D01*
X5671481Y-15523827D01*
X5669770Y-15522547D01*
X5664453Y-15517510D01*
X5650951Y-15509667D01*
X5603334Y-15482009D01*
X5599138Y-15479460D01*
X5541608Y-15442951D01*
X5534972Y-15440588D01*
X5528637Y-15437498D01*
X5528719Y-15437330D01*
X5520087Y-15433328D01*
X5517841Y-15432351D01*
X5511510Y-15428674D01*
X5447493Y-15409285D01*
X5441754Y-15407395D01*
X5433108Y-15404316D01*
X5381300Y-15385868D01*
X5373952Y-15384992D01*
X5352346Y-15380468D01*
X5342233Y-15377405D01*
X5279282Y-15373499D01*
X5272186Y-15372857D01*
X5212329Y-15365720D01*
X5205326Y-15366456D01*
X5205323Y-15366456D01*
X5201100Y-15366900D01*
X5180129Y-15367348D01*
X5178634Y-15367255D01*
X5165702Y-15366453D01*
X5158487Y-15367693D01*
X5158483Y-15367693D01*
X5107313Y-15376486D01*
X5099145Y-15377616D01*
X5082551Y-15379360D01*
X5043093Y-15383507D01*
X5041261Y-15384131D01*
X5019449Y-15386500D01*
X3100905Y-15386500D01*
X3085987Y-15385614D01*
X3060323Y-15382554D01*
X3053329Y-15381720D01*
X3046326Y-15382456D01*
X3046325Y-15382456D01*
X3011368Y-15386130D01*
X3006834Y-15386500D01*
X3003707Y-15386500D01*
X2983507Y-15388855D01*
X2966541Y-15390833D01*
X2965120Y-15390991D01*
X2937032Y-15393943D01*
X2884093Y-15399507D01*
X2880257Y-15400813D01*
X2879592Y-15400970D01*
X2872319Y-15401818D01*
X2798220Y-15428716D01*
X2795967Y-15429508D01*
X2756477Y-15442951D01*
X2729676Y-15452074D01*
X2729673Y-15452075D01*
X2723003Y-15454346D01*
X2718032Y-15457404D01*
X2714700Y-15458789D01*
X2712939Y-15459671D01*
X2706063Y-15462167D01*
X2699946Y-15466178D01*
X2699943Y-15466179D01*
X2643251Y-15503348D01*
X2640189Y-15505293D01*
X2584068Y-15539819D01*
X2584065Y-15539822D01*
X2578066Y-15543512D01*
X2573032Y-15548442D01*
X2569641Y-15551091D01*
X2565859Y-15553801D01*
X2564267Y-15555132D01*
X2558148Y-15559144D01*
X2532086Y-15586656D01*
X2509027Y-15610997D01*
X2505712Y-15614367D01*
X2467425Y-15651861D01*
X2456486Y-15662573D01*
X2452674Y-15668489D01*
X2448217Y-15673953D01*
X2448009Y-15673783D01*
X2444925Y-15677714D01*
X2441545Y-15682232D01*
X2436510Y-15687547D01*
X2432836Y-15693873D01*
X2402529Y-15746049D01*
X2399505Y-15750989D01*
X2364304Y-15805610D01*
X2361895Y-15812229D01*
X2361163Y-15813703D01*
X2352592Y-15832023D01*
X2347674Y-15840490D01*
X2345553Y-15847492D01*
X2345549Y-15847502D01*
X2329170Y-15901582D01*
X2326981Y-15908153D01*
X2308513Y-15958892D01*
X2308511Y-15958900D01*
X2306103Y-15965516D01*
X2304785Y-15975950D01*
X2300371Y-15996671D01*
X2298526Y-16002762D01*
X2298525Y-16002766D01*
X2296405Y-16009767D01*
X2294377Y-16042460D01*
X2292689Y-16069659D01*
X2291940Y-16077630D01*
X2284775Y-16134343D01*
X-28491500Y-16134343D01*
X-28491500Y-12342990D01*
X-22487902Y-12342990D01*
X-22487322Y-12349121D01*
X-22479153Y-12435544D01*
X-22479036Y-12436859D01*
X-22471260Y-12529462D01*
X-22469790Y-12534588D01*
X-22469289Y-12539890D01*
X-22467529Y-12545793D01*
X-22442736Y-12628961D01*
X-22442368Y-12630219D01*
X-22416745Y-12719578D01*
X-22414309Y-12724317D01*
X-22412787Y-12729424D01*
X-22369383Y-12811749D01*
X-22368862Y-12812749D01*
X-22326341Y-12895484D01*
X-22323032Y-12899659D01*
X-22320546Y-12904374D01*
X-22262110Y-12976536D01*
X-22261286Y-12977565D01*
X-22219877Y-13029810D01*
X-22203493Y-13050481D01*
X-22199431Y-13053938D01*
X-22196081Y-13058075D01*
X-22191346Y-13062020D01*
X-22191342Y-13062024D01*
X-22124762Y-13117495D01*
X-22123752Y-13118346D01*
X-22057574Y-13174668D01*
X-22057570Y-13174671D01*
X-22052878Y-13178664D01*
X-22048223Y-13181266D01*
X-22044132Y-13184674D01*
X-21962525Y-13229168D01*
X-21961370Y-13229806D01*
X-21885617Y-13272144D01*
X-21885613Y-13272146D01*
X-21880234Y-13275152D01*
X-21875167Y-13276798D01*
X-21870487Y-13279350D01*
X-21781687Y-13307178D01*
X-21780579Y-13307532D01*
X-21692136Y-13336268D01*
X-21686848Y-13336899D01*
X-21681760Y-13338493D01*
X-21675633Y-13339159D01*
X-21675631Y-13339159D01*
X-21589420Y-13348524D01*
X-21588108Y-13348673D01*
X-21505485Y-13358525D01*
X-21495751Y-13359686D01*
X-21490434Y-13359277D01*
X-21485140Y-13359852D01*
X-21424490Y-13354546D01*
X-21392559Y-13351753D01*
X-21391246Y-13351645D01*
X-21304699Y-13344985D01*
X-21304696Y-13344985D01*
X-21298556Y-13344512D01*
X-21293426Y-13343080D01*
X-21288115Y-13342615D01*
X-21198822Y-13316672D01*
X-21197557Y-13316312D01*
X-21113996Y-13292982D01*
X-21113995Y-13292982D01*
X-21108065Y-13291326D01*
X-21103309Y-13288924D01*
X-21098192Y-13287437D01*
X-21015681Y-13244667D01*
X-21014513Y-13244069D01*
X-20937035Y-13204933D01*
X-20937033Y-13204932D01*
X-20931532Y-13202153D01*
X-20927333Y-13198872D01*
X-20922602Y-13196420D01*
X-20849876Y-13138364D01*
X-20848844Y-13137550D01*
X-20780537Y-13084183D01*
X-20780536Y-13084183D01*
X-20775681Y-13080389D01*
X-20737860Y-13036573D01*
X-20731575Y-13029810D01*
X-19831730Y-12129965D01*
X-18767203Y-11065437D01*
X-18755691Y-11055251D01*
X-18732153Y-11036861D01*
X-18694313Y-10993023D01*
X-18688041Y-10986275D01*
X-18682691Y-10980925D01*
X-18660441Y-10953838D01*
X-18658523Y-10951559D01*
X-18602922Y-10887145D01*
X-18599876Y-10881783D01*
X-18596326Y-10876751D01*
X-18596070Y-10876932D01*
X-18595976Y-10876794D01*
X-18596236Y-10876620D01*
X-18592811Y-10871504D01*
X-18588897Y-10866739D01*
X-18579922Y-10850001D01*
X-18548728Y-10791825D01*
X-18547240Y-10789129D01*
X-18508279Y-10720545D01*
X-18508278Y-10720543D01*
X-18505231Y-10715179D01*
X-18503284Y-10709324D01*
X-18500781Y-10703703D01*
X-18500495Y-10703830D01*
X-18500431Y-10703681D01*
X-18500720Y-10703561D01*
X-18498351Y-10697870D01*
X-18495438Y-10692437D01*
X-18470581Y-10611133D01*
X-18469653Y-10608226D01*
X-18448759Y-10545418D01*
X-18442803Y-10527513D01*
X-18442030Y-10521398D01*
X-18440665Y-10515390D01*
X-18440362Y-10515459D01*
X-18440326Y-10515292D01*
X-18440632Y-10515230D01*
X-18439416Y-10509200D01*
X-18437613Y-10503302D01*
X-18433640Y-10464190D01*
X-18429022Y-10418732D01*
X-18428674Y-10415675D01*
X-18418455Y-10334776D01*
X-18418015Y-10331295D01*
X-18417676Y-10307033D01*
X-18417626Y-10306538D01*
X-18417664Y-10306138D01*
X-18417620Y-10303000D01*
X-18419784Y-10280928D01*
X-18427080Y-10206517D01*
X-18427122Y-10206080D01*
X-18435682Y-10115526D01*
X-18435683Y-10115522D01*
X-18436239Y-10109638D01*
X-18436747Y-10107935D01*
X-18436920Y-10106167D01*
X-18438625Y-10100521D01*
X-18438626Y-10100514D01*
X-18464846Y-10013669D01*
X-18464973Y-10013249D01*
X-18491063Y-9925732D01*
X-18491064Y-9925730D01*
X-18492741Y-9920104D01*
X-18493571Y-9918529D01*
X-18494084Y-9916831D01*
X-18539677Y-9831083D01*
X-18584982Y-9745154D01*
X-18586099Y-9743775D01*
X-18586934Y-9742204D01*
X-18648413Y-9666823D01*
X-18648569Y-9666630D01*
X-18705747Y-9596021D01*
X-18705752Y-9596016D01*
X-18709447Y-9591453D01*
X-18710810Y-9590317D01*
X-18711935Y-9588938D01*
X-18786920Y-9526905D01*
X-18861396Y-9464854D01*
X-18862953Y-9464005D01*
X-18864325Y-9462870D01*
X-18949840Y-9416632D01*
X-19035041Y-9370178D01*
X-19036737Y-9369646D01*
X-19038299Y-9368802D01*
X-19046921Y-9366133D01*
X-19130837Y-9340157D01*
X-19131257Y-9340026D01*
X-19164857Y-9329496D01*
X-19223768Y-9311035D01*
X-19225536Y-9310843D01*
X-19227232Y-9310318D01*
X-19233085Y-9309703D01*
X-19233089Y-9309702D01*
X-19310501Y-9301566D01*
X-19323730Y-9300176D01*
X-19323924Y-9300155D01*
X-19420388Y-9289676D01*
X-19422157Y-9289831D01*
X-19423925Y-9289645D01*
X-19520625Y-9298445D01*
X-19611552Y-9306400D01*
X-19611554Y-9306400D01*
X-19617413Y-9306913D01*
X-19619121Y-9307409D01*
X-19620888Y-9307570D01*
X-19626519Y-9309227D01*
X-19626528Y-9309229D01*
X-19714057Y-9334991D01*
X-19714204Y-9335034D01*
X-19807336Y-9362091D01*
X-19808911Y-9362907D01*
X-19810619Y-9363410D01*
X-19815826Y-9366132D01*
X-19815828Y-9366133D01*
X-19896614Y-9408367D01*
X-19896908Y-9408520D01*
X-19982926Y-9453108D01*
X-19984314Y-9454216D01*
X-19985890Y-9455040D01*
X-20061553Y-9515875D01*
X-20103973Y-9549738D01*
X-20104896Y-9550661D01*
X-20106312Y-9551862D01*
X-20140025Y-9578968D01*
X-20161172Y-9604170D01*
X-20172067Y-9617154D01*
X-20179493Y-9625258D01*
X-22143907Y-11589673D01*
X-22154050Y-11598775D01*
X-22183553Y-11622496D01*
X-22187520Y-11627224D01*
X-22215819Y-11660949D01*
X-22219000Y-11664597D01*
X-22220643Y-11666409D01*
X-22222837Y-11668603D01*
X-22250170Y-11701877D01*
X-22250832Y-11702675D01*
X-22310682Y-11774002D01*
X-22313250Y-11778672D01*
X-22316631Y-11782789D01*
X-22347668Y-11840673D01*
X-22360505Y-11864614D01*
X-22361134Y-11865773D01*
X-22402990Y-11941909D01*
X-22402993Y-11941917D01*
X-22405961Y-11947315D01*
X-22407573Y-11952397D01*
X-22410090Y-11957091D01*
X-22437290Y-12046059D01*
X-22437610Y-12047087D01*
X-22465763Y-12135834D01*
X-22466357Y-12141130D01*
X-22467915Y-12146226D01*
X-22468538Y-12152362D01*
X-22477309Y-12238706D01*
X-22477442Y-12239955D01*
X-22487809Y-12332379D01*
X-22487363Y-12337687D01*
X-22487902Y-12342990D01*
X-28491500Y-12342990D01*
X-28491500Y-4071507D01*
X-23705966Y-4071507D01*
X-23705961Y-4071582D01*
X-23699855Y-4080558D01*
X-23516070Y-4246038D01*
X-23511986Y-4249416D01*
X-23148433Y-4525368D01*
X-23144088Y-4528388D01*
X-22758712Y-4772955D01*
X-22754151Y-4775589D01*
X-22349645Y-4987060D01*
X-22344875Y-4989304D01*
X-21924095Y-5166184D01*
X-21919156Y-5168021D01*
X-21485061Y-5309066D01*
X-21479973Y-5310486D01*
X-21035595Y-5414715D01*
X-21030413Y-5415703D01*
X-20578888Y-5482378D01*
X-20573613Y-5482933D01*
X-20118089Y-5511592D01*
X-20112816Y-5511703D01*
X-19656487Y-5502143D01*
X-19651209Y-5501812D01*
X-19197281Y-5454103D01*
X-19192046Y-5453329D01*
X-18743701Y-5367802D01*
X-18738564Y-5366598D01*
X-18298938Y-5243852D01*
X-18293940Y-5242228D01*
X-17866112Y-5083121D01*
X-17861245Y-5081074D01*
X-17448251Y-4886734D01*
X-17443580Y-4884292D01*
X-17048293Y-4656073D01*
X-17043840Y-4653247D01*
X-16669019Y-4392740D01*
X-16664842Y-4389569D01*
X-16313129Y-4098608D01*
X-16309227Y-4095094D01*
X-16299380Y-4085451D01*
X-16291622Y-4071589D01*
X-16291712Y-4070105D01*
X-16296253Y-4062958D01*
X-19987188Y-372022D01*
X-20001132Y-364408D01*
X-20002965Y-364539D01*
X-20009580Y-368790D01*
X-23698352Y-4057563D01*
X-23705966Y-4071507D01*
X-28491500Y-4071507D01*
X-28491500Y-228229D01*
X-25508131Y-228229D01*
X-25507911Y-233482D01*
X-25469717Y-688321D01*
X-25469054Y-693571D01*
X-25392936Y-1143605D01*
X-25391841Y-1148757D01*
X-25278326Y-1590872D01*
X-25276801Y-1595922D01*
X-25126695Y-2026966D01*
X-25124757Y-2031862D01*
X-24939102Y-2448849D01*
X-24936758Y-2453571D01*
X-24716859Y-2853566D01*
X-24714139Y-2858058D01*
X-24461542Y-3238247D01*
X-24458449Y-3242503D01*
X-24174936Y-3600208D01*
X-24171474Y-3604218D01*
X-24083123Y-3698304D01*
X-24069426Y-3706351D01*
X-24068646Y-3706319D01*
X-24060432Y-3701221D01*
X-20372022Y-12812D01*
X-20365644Y-1132D01*
X-19635592Y-1132D01*
X-19635461Y-2965D01*
X-19631210Y-9580D01*
X-15941071Y-3699718D01*
X-15927444Y-3707159D01*
X-15917878Y-3700504D01*
X-15681259Y-3426377D01*
X-15677965Y-3422222D01*
X-15409684Y-3052964D01*
X-15406769Y-3048577D01*
X-15170311Y-2658139D01*
X-15167781Y-2653537D01*
X-14964828Y-2244691D01*
X-14962682Y-2239871D01*
X-14794653Y-1815477D01*
X-14792922Y-1810507D01*
X-14660994Y-1373539D01*
X-14659687Y-1368452D01*
X-14564783Y-921964D01*
X-14563905Y-916771D01*
X-14506700Y-463939D01*
X-14506257Y-458667D01*
X-14496710Y-230880D01*
X-5508632Y-230880D01*
X-5469993Y-691021D01*
X-5469551Y-693634D01*
X-5393443Y-1143605D01*
X-5392985Y-1146314D01*
X-5392323Y-1148891D01*
X-5278842Y-1590872D01*
X-5278150Y-1593568D01*
X-5126293Y-2029643D01*
X-4938478Y-2451482D01*
X-4716023Y-2856125D01*
X-4714571Y-2858311D01*
X-4714567Y-2858317D01*
X-4570308Y-3075444D01*
X-4460489Y-3240735D01*
X-4316399Y-3422532D01*
X-4238590Y-3520702D01*
X-4173668Y-3602614D01*
X-4171855Y-3604544D01*
X-4171853Y-3604547D01*
X-3906951Y-3886638D01*
X-3857571Y-3939222D01*
X-3514417Y-4248200D01*
X-3146611Y-4527380D01*
X-3144380Y-4528796D01*
X-3144374Y-4528800D01*
X-2829620Y-4728548D01*
X-2756734Y-4774803D01*
X-2754407Y-4776019D01*
X-2754401Y-4776023D01*
X-2349858Y-4987513D01*
X-2349853Y-4987515D01*
X-2347520Y-4988735D01*
X-1921841Y-5167674D01*
X-1919333Y-5168489D01*
X-1919330Y-5168490D01*
X-1485196Y-5309549D01*
X-1485192Y-5309550D01*
X-1482681Y-5310366D01*
X-1161498Y-5385699D01*
X-1035697Y-5415205D01*
X-1035693Y-5415206D01*
X-1033121Y-5415809D01*
X-1030504Y-5416196D01*
X-1030501Y-5416196D01*
X-578936Y-5482878D01*
X-578932Y-5482878D01*
X-576314Y-5483265D01*
X-115465Y-5512259D01*
X-112833Y-5512204D01*
X-112826Y-5512204D01*
X63193Y-5508516D01*
X346194Y-5502588D01*
X805424Y-5454321D01*
X1259005Y-5367796D01*
X1261534Y-5367090D01*
X1261542Y-5367088D01*
X1701221Y-5244328D01*
X1701232Y-5244324D01*
X1703755Y-5243620D01*
X1979857Y-5140938D01*
X2134082Y-5083583D01*
X2134088Y-5083580D01*
X2136555Y-5082663D01*
X2554368Y-4886055D01*
X2954264Y-4655175D01*
X3333438Y-4391642D01*
X3689230Y-4097305D01*
X3898344Y-3892526D01*
X4017256Y-3776079D01*
X4017258Y-3776077D01*
X4019145Y-3774229D01*
X4080860Y-3702732D01*
X4319134Y-3426688D01*
X4320869Y-3424678D01*
X4592285Y-3051107D01*
X4593818Y-3048577D01*
X4830115Y-2658401D01*
X4831489Y-2656133D01*
X5036804Y-2242529D01*
X5206789Y-1813196D01*
X5340252Y-1371144D01*
X5340825Y-1368452D01*
X5435711Y-922047D01*
X5436258Y-919474D01*
X5494131Y-461355D01*
X5503791Y-230880D01*
X14491368Y-230880D01*
X14530007Y-691021D01*
X14530449Y-693634D01*
X14606557Y-1143605D01*
X14607015Y-1146314D01*
X14607677Y-1148891D01*
X14721158Y-1590872D01*
X14721850Y-1593568D01*
X14873707Y-2029643D01*
X15061522Y-2451482D01*
X15283977Y-2856125D01*
X15285429Y-2858311D01*
X15285433Y-2858317D01*
X15429692Y-3075444D01*
X15539511Y-3240735D01*
X15683601Y-3422532D01*
X15761410Y-3520702D01*
X15826332Y-3602614D01*
X15828145Y-3604544D01*
X15828147Y-3604547D01*
X16093049Y-3886638D01*
X16142429Y-3939222D01*
X16485583Y-4248200D01*
X16853389Y-4527380D01*
X16855620Y-4528796D01*
X16855626Y-4528800D01*
X17170380Y-4728548D01*
X17243266Y-4774803D01*
X17245593Y-4776019D01*
X17245599Y-4776023D01*
X17650142Y-4987513D01*
X17650147Y-4987515D01*
X17652480Y-4988735D01*
X18078159Y-5167674D01*
X18080667Y-5168489D01*
X18080670Y-5168490D01*
X18514804Y-5309549D01*
X18514808Y-5309550D01*
X18517319Y-5310366D01*
X18838502Y-5385699D01*
X18964303Y-5415205D01*
X18964307Y-5415206D01*
X18966879Y-5415809D01*
X18969496Y-5416196D01*
X18969499Y-5416196D01*
X19421064Y-5482878D01*
X19421068Y-5482878D01*
X19423686Y-5483265D01*
X19884535Y-5512259D01*
X19887167Y-5512204D01*
X19887174Y-5512204D01*
X20063193Y-5508516D01*
X20346194Y-5502588D01*
X20805424Y-5454321D01*
X21259005Y-5367796D01*
X21261534Y-5367090D01*
X21261542Y-5367088D01*
X21701221Y-5244328D01*
X21701232Y-5244324D01*
X21703755Y-5243620D01*
X21979857Y-5140938D01*
X22134082Y-5083583D01*
X22134088Y-5083580D01*
X22136555Y-5082663D01*
X22554368Y-4886055D01*
X22954264Y-4655175D01*
X23333438Y-4391642D01*
X23689230Y-4097305D01*
X23898344Y-3892526D01*
X24017256Y-3776079D01*
X24017258Y-3776077D01*
X24019145Y-3774229D01*
X24080860Y-3702732D01*
X24319134Y-3426688D01*
X24320869Y-3424678D01*
X24592285Y-3051107D01*
X24593818Y-3048577D01*
X24830115Y-2658401D01*
X24831489Y-2656133D01*
X25036804Y-2242529D01*
X25206789Y-1813196D01*
X25340252Y-1371144D01*
X25340825Y-1368452D01*
X25435711Y-922047D01*
X25436258Y-919474D01*
X25494131Y-461355D01*
X25513468Y0D01*
X25494131Y461355D01*
X25436258Y919474D01*
X25388599Y1143691D01*
X25340798Y1368577D01*
X25340796Y1368585D01*
X25340252Y1371144D01*
X25206789Y1813196D01*
X25036804Y2242529D01*
X24831489Y2656133D01*
X24622769Y3000772D01*
X24593651Y3048852D01*
X24593647Y3048858D01*
X24592285Y3051107D01*
X24320869Y3424678D01*
X24019145Y3774229D01*
X24010580Y3782617D01*
X23691120Y4095454D01*
X23689230Y4097305D01*
X23333438Y4391642D01*
X22954264Y4655175D01*
X22554368Y4886055D01*
X22136555Y5082663D01*
X22134088Y5083580D01*
X22134082Y5083583D01*
X21905773Y5168490D01*
X21703755Y5243620D01*
X21701232Y5244324D01*
X21701221Y5244328D01*
X21261542Y5367088D01*
X21261534Y5367090D01*
X21259005Y5367796D01*
X20805424Y5454321D01*
X20346194Y5502588D01*
X20063193Y5508516D01*
X19887174Y5512204D01*
X19887167Y5512204D01*
X19884535Y5512259D01*
X19423686Y5483265D01*
X19421068Y5482878D01*
X19421064Y5482878D01*
X18969499Y5416196D01*
X18969496Y5416196D01*
X18966879Y5415809D01*
X18964307Y5415206D01*
X18964303Y5415205D01*
X18838502Y5385699D01*
X18517319Y5310366D01*
X18514808Y5309550D01*
X18514804Y5309549D01*
X18309071Y5242702D01*
X18078159Y5167674D01*
X17652480Y4988735D01*
X17650147Y4987515D01*
X17650142Y4987513D01*
X17245599Y4776023D01*
X17245593Y4776019D01*
X17243266Y4774803D01*
X17241038Y4773389D01*
X16855626Y4528800D01*
X16855620Y4528796D01*
X16853389Y4527380D01*
X16851282Y4525781D01*
X16851281Y4525780D01*
X16818334Y4500772D01*
X16485583Y4248200D01*
X16142429Y3939222D01*
X16140626Y3937302D01*
X16140625Y3937301D01*
X15918635Y3700906D01*
X15826332Y3602614D01*
X15539511Y3240735D01*
X15538048Y3238533D01*
X15411842Y3048577D01*
X15283977Y2856125D01*
X15061522Y2451482D01*
X14873707Y2029643D01*
X14721850Y1593568D01*
X14721195Y1591017D01*
X14721192Y1591007D01*
X14676737Y1417864D01*
X14607015Y1146314D01*
X14606573Y1143699D01*
X14606571Y1143691D01*
X14568647Y919474D01*
X14530007Y691021D01*
X14491368Y230880D01*
X14491368Y-230880D01*
X5503791Y-230880D01*
X5513468Y0D01*
X5494131Y461355D01*
X5436258Y919474D01*
X5388599Y1143691D01*
X5340798Y1368577D01*
X5340796Y1368585D01*
X5340252Y1371144D01*
X5206789Y1813196D01*
X5036804Y2242529D01*
X4831489Y2656133D01*
X4622769Y3000772D01*
X4593651Y3048852D01*
X4593647Y3048858D01*
X4592285Y3051107D01*
X4320869Y3424678D01*
X4019145Y3774229D01*
X4010580Y3782617D01*
X3691120Y4095454D01*
X3689230Y4097305D01*
X3333438Y4391642D01*
X2954264Y4655175D01*
X2554368Y4886055D01*
X2136555Y5082663D01*
X2134088Y5083580D01*
X2134082Y5083583D01*
X1905773Y5168490D01*
X1703755Y5243620D01*
X1701232Y5244324D01*
X1701221Y5244328D01*
X1261542Y5367088D01*
X1261534Y5367090D01*
X1259005Y5367796D01*
X805424Y5454321D01*
X346194Y5502588D01*
X63193Y5508516D01*
X-112826Y5512204D01*
X-112833Y5512204D01*
X-115465Y5512259D01*
X-576314Y5483265D01*
X-578932Y5482878D01*
X-578936Y5482878D01*
X-1030501Y5416196D01*
X-1030504Y5416196D01*
X-1033121Y5415809D01*
X-1035693Y5415206D01*
X-1035697Y5415205D01*
X-1161498Y5385699D01*
X-1482681Y5310366D01*
X-1485192Y5309550D01*
X-1485196Y5309549D01*
X-1690929Y5242702D01*
X-1921841Y5167674D01*
X-2347520Y4988735D01*
X-2349853Y4987515D01*
X-2349858Y4987513D01*
X-2754401Y4776023D01*
X-2754407Y4776019D01*
X-2756734Y4774803D01*
X-2758962Y4773389D01*
X-3144374Y4528800D01*
X-3144380Y4528796D01*
X-3146611Y4527380D01*
X-3148718Y4525781D01*
X-3148719Y4525780D01*
X-3181666Y4500772D01*
X-3514417Y4248200D01*
X-3857571Y3939222D01*
X-3859374Y3937302D01*
X-3859375Y3937301D01*
X-4081365Y3700906D01*
X-4173668Y3602614D01*
X-4460489Y3240735D01*
X-4461952Y3238533D01*
X-4588158Y3048577D01*
X-4716023Y2856125D01*
X-4938478Y2451482D01*
X-5126293Y2029643D01*
X-5278150Y1593568D01*
X-5278805Y1591017D01*
X-5278808Y1591007D01*
X-5323263Y1417864D01*
X-5392985Y1146314D01*
X-5393427Y1143699D01*
X-5393429Y1143691D01*
X-5431353Y919474D01*
X-5469993Y691021D01*
X-5508632Y230880D01*
X-5508632Y-230880D01*
X-14496710Y-230880D01*
X-14487144Y-2648D01*
X-14487144Y2648D01*
X-14506257Y458667D01*
X-14506700Y463939D01*
X-14563905Y916771D01*
X-14564783Y921964D01*
X-14659687Y1368452D01*
X-14660994Y1373539D01*
X-14792922Y1810507D01*
X-14794653Y1815477D01*
X-14962682Y2239871D01*
X-14964828Y2244691D01*
X-15167781Y2653537D01*
X-15170311Y2658139D01*
X-15406769Y3048577D01*
X-15409684Y3052964D01*
X-15677965Y3422222D01*
X-15681259Y3426377D01*
X-15916421Y3698815D01*
X-15929464Y3707233D01*
X-15939495Y3701294D01*
X-19627978Y12812D01*
X-19635592Y-1132D01*
X-20365644Y-1132D01*
X-20364408Y1132D01*
X-20364539Y2965D01*
X-20368790Y9580D01*
X-24057909Y3698698D01*
X-24071853Y3706312D01*
X-24072634Y3706257D01*
X-24080678Y3700906D01*
X-24171474Y3604218D01*
X-24174936Y3600208D01*
X-24458449Y3242503D01*
X-24461542Y3238247D01*
X-24714139Y2858058D01*
X-24716859Y2853566D01*
X-24936758Y2453571D01*
X-24939102Y2448849D01*
X-25124757Y2031862D01*
X-25126695Y2026966D01*
X-25276801Y1595922D01*
X-25278326Y1590872D01*
X-25391841Y1148757D01*
X-25392936Y1143605D01*
X-25469054Y693571D01*
X-25469717Y688321D01*
X-25507911Y233482D01*
X-25508131Y228229D01*
X-25508131Y-228229D01*
X-28491500Y-228229D01*
X-28491500Y4068974D01*
X-23706032Y4068974D01*
X-23706031Y4068898D01*
X-23700401Y4059612D01*
X-20012812Y372022D01*
X-19998868Y364408D01*
X-19997035Y364539D01*
X-19990420Y368790D01*
X-16299248Y4059963D01*
X-16291634Y4073907D01*
X-16291740Y4075390D01*
X-16296353Y4082486D01*
X-16309227Y4095094D01*
X-16313129Y4098608D01*
X-16664842Y4389569D01*
X-16669019Y4392740D01*
X-17043840Y4653247D01*
X-17048293Y4656073D01*
X-17443580Y4884292D01*
X-17448251Y4886734D01*
X-17861245Y5081074D01*
X-17866112Y5083121D01*
X-18293940Y5242228D01*
X-18298938Y5243852D01*
X-18738564Y5366598D01*
X-18743701Y5367802D01*
X-19192046Y5453329D01*
X-19197281Y5454103D01*
X-19651209Y5501812D01*
X-19656487Y5502143D01*
X-20112816Y5511703D01*
X-20118089Y5511592D01*
X-20573613Y5482933D01*
X-20578888Y5482378D01*
X-21030413Y5415703D01*
X-21035595Y5414715D01*
X-21479973Y5310486D01*
X-21485061Y5309066D01*
X-21919156Y5168021D01*
X-21924095Y5166184D01*
X-22344885Y4989300D01*
X-22349631Y4987067D01*
X-22754150Y4775589D01*
X-22758716Y4772952D01*
X-23144088Y4528388D01*
X-23148433Y4525368D01*
X-23511986Y4249416D01*
X-23516070Y4246038D01*
X-23697701Y4082497D01*
X-23706032Y4068974D01*
X-28491500Y4068974D01*
X-28491500Y11950634D01*
X-28490000Y11970019D01*
X-28487690Y11984852D01*
X-28487690Y11984856D01*
X-28486309Y11993725D01*
X-28487473Y12002627D01*
X-28487473Y12002632D01*
X-28487489Y12002751D01*
X-28487760Y12033188D01*
X-28480766Y12095263D01*
X-28474488Y12122770D01*
X-28459412Y12165855D01*
X-28447513Y12199859D01*
X-28435273Y12225275D01*
X-28391822Y12294427D01*
X-28374230Y12316486D01*
X-28316486Y12374230D01*
X-28294427Y12391822D01*
X-28225275Y12435273D01*
X-28199859Y12447513D01*
X-28122768Y12474488D01*
X-28095264Y12480766D01*
X-28039776Y12487018D01*
X-28024133Y12486923D01*
X-28024122Y12487800D01*
X-28015150Y12487690D01*
X-28006277Y12486309D01*
X-27997375Y12487473D01*
X-27997372Y12487473D01*
X-27974716Y12490436D01*
X-27958379Y12491500D01*
X29946750Y12491500D01*
X29967655Y12489754D01*
X29982656Y12487230D01*
X29982659Y12487230D01*
X29987448Y12486424D01*
X29993687Y12486348D01*
X29995140Y12486330D01*
X29995143Y12486330D01*
X30000000Y12486271D01*
X30014790Y12488389D01*
X30023643Y12489338D01*
X30210742Y12502720D01*
X30215230Y12503041D01*
X30266771Y12514253D01*
X30421682Y12547951D01*
X30421689Y12547953D01*
X30426079Y12548908D01*
X30430294Y12550480D01*
X30430297Y12550481D01*
X30585557Y12608390D01*
X30628254Y12624315D01*
X30801614Y12718977D01*
X30870989Y12734069D01*
X30937509Y12709258D01*
G37*
%TD.AperFunction*%
%TD*%
%TA.AperFunction,Conductor*%
%TO.N,Net-(F1-Pad2)*%
G36*
X57980299Y122490862D02*
G01*
X58012424Y122487617D01*
X58012425Y122487617D01*
X58021356Y122486715D01*
X58030182Y122488356D01*
X58036917Y122488636D01*
X58060614Y122490033D01*
X58117640Y122486259D01*
X58147259Y122480686D01*
X58219077Y122458008D01*
X58246525Y122445562D01*
X58310908Y122406475D01*
X58334613Y122387866D01*
X58387866Y122334613D01*
X58406475Y122310908D01*
X58438539Y122258092D01*
X58445562Y122246524D01*
X58458008Y122219077D01*
X58480686Y122147259D01*
X58486259Y122117642D01*
X58489683Y122065917D01*
X58489683Y122049280D01*
X58489246Y122042671D01*
X58487390Y122033890D01*
X58488073Y122024944D01*
X58488073Y122024941D01*
X58491134Y121984867D01*
X58491500Y121975272D01*
X58491500Y-2424500D01*
X58471498Y-2492621D01*
X58417842Y-2539114D01*
X58365500Y-2550500D01*
X44830000Y-2550500D01*
X44761879Y-2530498D01*
X44715386Y-2476842D01*
X44704000Y-2424500D01*
X44704000Y2398000D01*
X44724002Y2466121D01*
X44777658Y2512614D01*
X44830000Y2524000D01*
X51562000Y2524000D01*
X51562000Y122365500D01*
X51582002Y122433621D01*
X51635658Y122480114D01*
X51688000Y122491500D01*
X57967637Y122491500D01*
X57980299Y122490862D01*
G37*
%TD.AperFunction*%
%TD*%
%TA.AperFunction,Conductor*%
%TO.N,Net-(F2-Pad2)*%
G36*
X38042121Y122471498D02*
G01*
X38088614Y122417842D01*
X38100000Y122365500D01*
X38100000Y2524000D01*
X44064500Y2524000D01*
X44132621Y2503998D01*
X44179114Y2450342D01*
X44190500Y2398000D01*
X44190500Y-2424500D01*
X44170498Y-2492621D01*
X44116842Y-2539114D01*
X44064500Y-2550500D01*
X37788209Y-2550500D01*
X37765555Y-2551419D01*
X37747917Y-2552134D01*
X37747907Y-2552135D01*
X37746615Y-2552187D01*
X37745351Y-2552290D01*
X37745330Y-2552291D01*
X37727573Y-2553734D01*
X37727548Y-2553737D01*
X37726275Y-2553840D01*
X37724979Y-2553998D01*
X37724973Y-2553999D01*
X37716822Y-2554995D01*
X37684980Y-2558887D01*
X37545565Y-2602767D01*
X37541505Y-2604717D01*
X37541502Y-2604718D01*
X37485628Y-2631552D01*
X37481566Y-2633503D01*
X37477831Y-2636007D01*
X37477827Y-2636009D01*
X37399844Y-2688285D01*
X37360153Y-2714891D01*
X37318691Y-2764655D01*
X37259719Y-2804186D01*
X37221888Y-2810000D01*
X36948011Y-2810000D01*
X36879890Y-2789998D01*
X36852787Y-2766513D01*
X36839454Y-2751126D01*
X36839453Y-2751125D01*
X36836513Y-2747732D01*
X36806602Y-2721814D01*
X36732864Y-2657919D01*
X36732861Y-2657917D01*
X36726053Y-2652018D01*
X36593104Y-2591302D01*
X36569350Y-2584327D01*
X36529306Y-2572569D01*
X36529302Y-2572568D01*
X36524983Y-2571300D01*
X36520534Y-2570660D01*
X36520528Y-2570659D01*
X36384761Y-2551139D01*
X36384756Y-2551139D01*
X36380314Y-2550500D01*
X31627500Y-2550500D01*
X31559379Y-2530498D01*
X31512886Y-2476842D01*
X31501500Y-2424500D01*
X31501500Y2243614D01*
X31501331Y2251653D01*
X31501098Y2262811D01*
X31501119Y2268965D01*
X31501475Y2281722D01*
X31501475Y2281723D01*
X31501500Y2282617D01*
X31501500Y3743614D01*
X31501331Y3751653D01*
X31501098Y3762811D01*
X31501119Y3768965D01*
X31501475Y3781722D01*
X31501475Y3781723D01*
X31501500Y3782617D01*
X31501500Y5243614D01*
X31501331Y5251653D01*
X31501098Y5262811D01*
X31501119Y5268965D01*
X31501475Y5281722D01*
X31501475Y5281723D01*
X31501500Y5282617D01*
X31501500Y6743614D01*
X31501331Y6751653D01*
X31501098Y6762811D01*
X31501119Y6768965D01*
X31501475Y6781722D01*
X31501475Y6781723D01*
X31501500Y6782617D01*
X31501500Y8243614D01*
X31501331Y8251653D01*
X31501098Y8262811D01*
X31501119Y8268965D01*
X31501475Y8281722D01*
X31501475Y8281723D01*
X31501500Y8282617D01*
X31501500Y9743614D01*
X31501331Y9751653D01*
X31501098Y9762811D01*
X31501119Y9768965D01*
X31501475Y9781722D01*
X31501475Y9781723D01*
X31501500Y9782617D01*
X31501500Y11243614D01*
X31501331Y11251653D01*
X31501098Y11262811D01*
X31501119Y11268965D01*
X31501475Y11281722D01*
X31501475Y11281723D01*
X31501500Y11282617D01*
X31501500Y12608390D01*
X31498971Y12636654D01*
X31493593Y12696759D01*
X31493592Y12696769D01*
X31493342Y12699559D01*
X31485398Y12743592D01*
X31461178Y12831877D01*
X31391131Y12960156D01*
X31375235Y12981390D01*
X31351289Y13013378D01*
X31351287Y13013380D01*
X31348584Y13016991D01*
X31307514Y13058061D01*
X31273488Y13120373D01*
X31278553Y13191188D01*
X31286022Y13207542D01*
X31375685Y13371746D01*
X31421583Y13494805D01*
X31449519Y13569703D01*
X31449520Y13569706D01*
X31451092Y13573921D01*
X31496959Y13784770D01*
X31509459Y13959535D01*
X31510884Y13971446D01*
X31512769Y13982648D01*
X31512770Y13982655D01*
X31513576Y13987448D01*
X31513729Y14000000D01*
X31509773Y14027624D01*
X31508500Y14045486D01*
X31508500Y121946750D01*
X31510246Y121967655D01*
X31512770Y121982656D01*
X31512770Y121982659D01*
X31513576Y121987448D01*
X31513729Y122000000D01*
X31513040Y122004812D01*
X31512723Y122009673D01*
X31513008Y122009692D01*
X31512607Y122036451D01*
X31519234Y122095264D01*
X31525513Y122122771D01*
X31552485Y122199853D01*
X31564727Y122225274D01*
X31608178Y122294426D01*
X31625770Y122316485D01*
X31683515Y122374230D01*
X31705574Y122391822D01*
X31774726Y122435273D01*
X31800147Y122447515D01*
X31877228Y122474487D01*
X31904736Y122480766D01*
X31960226Y122487018D01*
X31975868Y122486923D01*
X31975879Y122487800D01*
X31984851Y122487690D01*
X31993724Y122486309D01*
X32002626Y122487473D01*
X32002628Y122487473D01*
X32017677Y122489441D01*
X32025286Y122490436D01*
X32041621Y122491500D01*
X37974000Y122491500D01*
X38042121Y122471498D01*
G37*
%TD.AperFunction*%
%TD*%
%TA.AperFunction,Conductor*%
%TO.N,Net-(Q4-Pad2)*%
G36*
X50990621Y122471498D02*
G01*
X51037114Y122417842D01*
X51048500Y122365500D01*
X51048500Y3163500D01*
X51028498Y3095379D01*
X50974842Y3048886D01*
X50922500Y3037500D01*
X44830000Y3037500D01*
X44826654Y3037140D01*
X44826649Y3037140D01*
X44724215Y3026128D01*
X44724208Y3026127D01*
X44720851Y3025766D01*
X44717551Y3025048D01*
X44717550Y3025048D01*
X44671790Y3015094D01*
X44671785Y3015093D01*
X44668509Y3014380D01*
X44564343Y2979710D01*
X44557711Y2975448D01*
X44557709Y2975447D01*
X44518427Y2950202D01*
X44450306Y2930201D01*
X44397966Y2941587D01*
X44309036Y2982200D01*
X44277290Y2996698D01*
X44253536Y3003673D01*
X44213492Y3015431D01*
X44213488Y3015432D01*
X44209169Y3016700D01*
X44204720Y3017340D01*
X44204714Y3017341D01*
X44068947Y3036861D01*
X44068942Y3036861D01*
X44064500Y3037500D01*
X38739500Y3037500D01*
X38671379Y3057502D01*
X38624886Y3111158D01*
X38613500Y3163500D01*
X38613500Y122365500D01*
X38633502Y122433621D01*
X38687158Y122480114D01*
X38739500Y122491500D01*
X50922500Y122491500D01*
X50990621Y122471498D01*
G37*
%TD.AperFunction*%
%TD*%
M02*
