M48
; DRILL file {KiCad (6.0.8-1)-1} date 2022 October 22, Saturday 21:58:42
; FORMAT={-:-/ absolute / inch / decimal}
; #@! TF.CreationDate,2022-10-22T21:58:42+02:00
; #@! TF.GenerationSoftware,Kicad,Pcbnew,(6.0.8-1)-1
; #@! TF.FileFunction,Plated,1,2,PTH
FMAT,2
INCH
; #@! TA.AperFunction,Plated,PTH,ViaDrill
T1C0.0118
; #@! TA.AperFunction,Plated,PTH,ViaDrill
T2C0.0157
; #@! TA.AperFunction,Plated,PTH,ViaDrill
T3C0.0197
; #@! TA.AperFunction,Plated,PTH,ComponentDrill
T4C0.0315
; #@! TA.AperFunction,Plated,PTH,ComponentDrill
T5C0.2441
%
G90
G05
T1
X0.12Y-0.6356
X0.22Y-0.6506
X0.4Y-0.6706
X0.5115Y-0.6363
X0.565Y-0.6706
X0.6Y-0.7206
T2
X1.3009Y2.8194
X1.3009Y2.7603
X1.3009Y2.7013
X1.3009Y2.6422
X1.3009Y2.5831
X1.3009Y2.5241
X1.3009Y2.465
X1.3009Y2.406
X1.3009Y2.3469
X1.3009Y2.2879
X1.3009Y2.2288
X1.3009Y2.1698
X1.3009Y2.1107
X1.3009Y2.0517
X1.3009Y1.9926
X1.3009Y1.9335
X1.3009Y1.8745
X1.3009Y1.8154
X1.3009Y1.7564
X1.3009Y1.6973
X1.3009Y1.6383
X1.3009Y1.5792
X1.3009Y1.5202
X1.3009Y1.4611
X1.3009Y1.402
X1.3009Y1.343
X1.3009Y1.2839
X1.3009Y1.2249
X1.3009Y1.1658
X1.3009Y1.1068
X1.3009Y1.0477
X1.3009Y0.9887
X1.3009Y0.9296
X1.3009Y0.8706
X1.3009Y0.8115
X1.3009Y0.7524
X1.3009Y0.6934
X1.3009Y0.6343
X1.3009Y0.5753
X1.3009Y0.5162
X1.3009Y0.4572
X1.3009Y0.3981
X1.3009Y0.3391
X1.3009Y0.28
X1.36Y2.8194
X1.36Y2.7603
X1.36Y2.7013
X1.36Y2.6422
X1.36Y2.5831
X1.36Y2.5241
X1.36Y2.465
X1.36Y2.406
X1.36Y2.3469
X1.36Y2.2879
X1.36Y2.2288
X1.36Y2.1698
X1.36Y2.1107
X1.36Y2.0517
X1.36Y1.9926
X1.36Y1.9335
X1.36Y1.8745
X1.36Y1.8154
X1.36Y1.7564
X1.36Y1.6973
X1.36Y1.6383
X1.36Y1.5792
X1.36Y1.5202
X1.36Y1.4611
X1.36Y1.402
X1.36Y1.343
X1.36Y1.2839
X1.36Y1.2249
X1.36Y1.1658
X1.36Y1.1068
X1.36Y1.0477
X1.36Y0.9887
X1.36Y0.9296
X1.36Y0.8706
X1.36Y0.8115
X1.36Y0.7524
X1.36Y0.6934
X1.36Y0.6343
X1.36Y0.5753
X1.36Y0.5162
X1.36Y0.4572
X1.36Y0.3981
X1.36Y0.3391
X1.36Y0.28
X1.64Y2.8194
X1.64Y2.7603
X1.64Y2.7013
X1.64Y2.6422
X1.64Y2.5831
X1.64Y2.5241
X1.64Y2.465
X1.64Y2.406
X1.64Y2.3469
X1.64Y2.2879
X1.64Y2.2288
X1.64Y2.1698
X1.64Y2.1107
X1.64Y2.0517
X1.64Y1.9926
X1.64Y1.9335
X1.64Y1.8745
X1.64Y1.8154
X1.64Y1.7564
X1.64Y1.6973
X1.64Y1.6383
X1.64Y1.5792
X1.64Y1.5202
X1.64Y1.4611
X1.64Y1.402
X1.64Y1.343
X1.64Y1.2839
X1.64Y1.2249
X1.64Y1.1658
X1.64Y1.1068
X1.64Y1.0477
X1.64Y0.9887
X1.64Y0.9296
X1.64Y0.8706
X1.64Y0.8115
X1.64Y0.7524
X1.64Y0.6934
X1.64Y0.6343
X1.64Y0.5753
X1.64Y0.5162
X1.64Y0.4572
X1.64Y0.3981
X1.64Y0.3391
X1.64Y0.28
X1.6991Y2.8194
X1.6991Y2.7603
X1.6991Y2.7013
X1.6991Y2.6422
X1.6991Y2.5831
X1.6991Y2.5241
X1.6991Y2.465
X1.6991Y2.406
X1.6991Y2.3469
X1.6991Y2.2879
X1.6991Y2.2288
X1.6991Y2.1698
X1.6991Y2.1107
X1.6991Y2.0517
X1.6991Y1.9926
X1.6991Y1.9335
X1.6991Y1.8745
X1.6991Y1.8154
X1.6991Y1.7564
X1.6991Y1.6973
X1.6991Y1.6383
X1.6991Y1.5792
X1.6991Y1.5202
X1.6991Y1.4611
X1.6991Y1.402
X1.6991Y1.343
X1.6991Y1.2839
X1.6991Y1.2249
X1.6991Y1.1658
X1.6991Y1.1068
X1.6991Y1.0477
X1.6991Y0.9887
X1.6991Y0.9296
X1.6991Y0.8706
X1.6991Y0.8115
X1.6991Y0.7524
X1.6991Y0.6934
X1.6991Y0.6343
X1.6991Y0.5753
X1.6991Y0.5162
X1.6991Y0.4572
X1.6991Y0.3981
X1.6991Y0.3391
X1.6991Y0.28
X1.7581Y2.8194
X1.7581Y2.7603
X1.7581Y2.7013
X1.7581Y2.6422
X1.7581Y2.5831
X1.7581Y2.5241
X1.7581Y2.465
X1.7581Y2.406
X1.7581Y2.3469
X1.7581Y2.2879
X1.7581Y2.2288
X1.7581Y2.1698
X1.7581Y2.1107
X1.7581Y2.0517
X1.7581Y1.9926
X1.7581Y1.9335
X1.7581Y1.8745
X1.7581Y1.8154
X1.7581Y1.7564
X1.7581Y1.6973
X1.7581Y1.6383
X1.7581Y1.5792
X1.7581Y1.5202
X1.7581Y1.4611
X1.7581Y1.402
X1.7581Y1.343
X1.7581Y1.2839
X1.7581Y1.2249
X1.7581Y1.1658
X1.7581Y1.1068
X1.7581Y1.0477
X1.7581Y0.9887
X1.7581Y0.9296
X1.7581Y0.8706
X1.7581Y0.8115
X1.7581Y0.7524
X1.7581Y0.6934
X1.7581Y0.6343
X1.7581Y0.5753
X1.7581Y0.5162
X1.7581Y0.4572
X1.7581Y0.3981
X1.7581Y0.3391
X1.7581Y0.28
X1.8172Y2.8194
X1.8172Y2.7603
X1.8172Y2.7013
X1.8172Y2.6422
X1.8172Y2.5831
X1.8172Y2.5241
X1.8172Y2.465
X1.8172Y2.406
X1.8172Y2.3469
X1.8172Y2.2879
X1.8172Y2.2288
X1.8172Y2.1698
X1.8172Y2.1107
X1.8172Y2.0517
X1.8172Y1.9926
X1.8172Y1.9335
X1.8172Y1.8745
X1.8172Y1.8154
X1.8172Y1.7564
X1.8172Y1.6973
X1.8172Y1.6383
X1.8172Y1.5792
X1.8172Y1.5202
X1.8172Y1.4611
X1.8172Y1.402
X1.8172Y1.343
X1.8172Y1.2839
X1.8172Y1.2249
X1.8172Y1.1658
X1.8172Y1.1068
X1.8172Y1.0477
X1.8172Y0.9887
X1.8172Y0.9296
X1.8172Y0.8706
X1.8172Y0.8115
X1.8172Y0.7524
X1.8172Y0.6934
X1.8172Y0.6343
X1.8172Y0.5753
X1.8172Y0.5162
X1.8172Y0.4572
X1.8172Y0.3981
X1.8172Y0.3391
X1.8172Y0.28
X1.8762Y2.8194
X1.8762Y2.7603
X1.8762Y2.7013
X1.8762Y2.6422
X1.8762Y2.5831
X1.8762Y2.5241
X1.8762Y2.465
X1.8762Y2.406
X1.8762Y2.3469
X1.8762Y2.2879
X1.8762Y2.2288
X1.8762Y2.1698
X1.8762Y2.1107
X1.8762Y2.0517
X1.8762Y1.9926
X1.8762Y1.9335
X1.8762Y1.8745
X1.8762Y1.8154
X1.8762Y1.7564
X1.8762Y1.6973
X1.8762Y1.6383
X1.8762Y1.5792
X1.8762Y1.5202
X1.8762Y1.4611
X1.8762Y1.402
X1.8762Y1.343
X1.8762Y1.2839
X1.8762Y1.2249
X1.8762Y1.1658
X1.8762Y1.1068
X1.8762Y1.0477
X1.8762Y0.9887
X1.8762Y0.9296
X1.8762Y0.8706
X1.8762Y0.8115
X1.8762Y0.7524
X1.8762Y0.6934
X1.8762Y0.6343
X1.8762Y0.5753
X1.8762Y0.5162
X1.8762Y0.4572
X1.8762Y0.3981
X1.8762Y0.3391
X1.8762Y0.28
X2.1609Y2.8194
X2.1609Y2.7603
X2.1609Y2.7013
X2.1609Y2.6422
X2.1609Y2.5831
X2.1609Y2.5241
X2.1609Y2.465
X2.1609Y2.406
X2.1609Y2.3469
X2.1609Y2.2879
X2.1609Y2.2288
X2.1609Y2.1698
X2.1609Y2.1107
X2.1609Y2.0517
X2.1609Y1.9926
X2.1609Y1.9335
X2.1609Y1.8745
X2.1609Y1.8154
X2.1609Y1.7564
X2.1609Y1.6973
X2.1609Y1.6383
X2.1609Y1.5792
X2.1609Y1.5202
X2.1609Y1.4611
X2.1609Y1.402
X2.1609Y1.343
X2.1609Y1.2839
X2.1609Y1.2249
X2.1609Y1.1658
X2.1609Y1.1068
X2.1609Y1.0477
X2.1609Y0.9887
X2.1609Y0.9296
X2.1609Y0.8706
X2.1609Y0.8115
X2.1609Y0.7524
X2.1609Y0.6934
X2.1609Y0.6343
X2.1609Y0.5753
X2.1609Y0.5162
X2.1609Y0.4572
X2.1609Y0.3981
X2.1609Y0.3391
X2.1609Y0.28
X2.22Y2.8194
X2.22Y2.7603
X2.22Y2.7013
X2.22Y2.6422
X2.22Y2.5831
X2.22Y2.5241
X2.22Y2.465
X2.22Y2.406
X2.22Y2.3469
X2.22Y2.2879
X2.22Y2.2288
X2.22Y2.1698
X2.22Y2.1107
X2.22Y2.0517
X2.22Y1.9926
X2.22Y1.9335
X2.22Y1.8745
X2.22Y1.8154
X2.22Y1.7564
X2.22Y1.6973
X2.22Y1.6383
X2.22Y1.5792
X2.22Y1.5202
X2.22Y1.4611
X2.22Y1.402
X2.22Y1.343
X2.22Y1.2839
X2.22Y1.2249
X2.22Y1.1658
X2.22Y1.1068
X2.22Y1.0477
X2.22Y0.9887
X2.22Y0.9296
X2.22Y0.8706
X2.22Y0.8115
X2.22Y0.7524
X2.22Y0.6934
X2.22Y0.6343
X2.22Y0.5753
X2.22Y0.5162
X2.22Y0.4572
X2.22Y0.3981
X2.22Y0.3391
X2.22Y0.28
T3
X-1.09Y-0.7906
X-1.015Y-0.7956
X-0.9Y-0.7656
X-0.8455Y-0.4861
X-0.765Y-0.4056
X-0.24Y-0.5456
X0.045Y-0.5356
X0.07Y-0.7443
X0.355Y-0.5956
X0.375Y-0.7756
X0.385Y-0.5456
X0.58Y-0.7656
X0.65Y-0.5656
X0.775Y-0.6106
X0.905Y-0.4556
X1.13Y-0.7706
X1.2724Y-0.3482
X1.46Y-0.1606
X1.572Y-0.7087
X1.632Y-0.7087
X1.64Y-0.3406
X1.692Y-0.7087
X1.7Y-0.3406
X1.7409Y-0.1756
X1.7409Y-0.2606
X1.752Y-0.7087
X1.76Y-0.3406
X1.79Y-0.1756
X1.795Y-0.2606
X1.812Y-0.7087
X1.82Y-0.3406
X1.872Y-0.7087
X1.88Y-0.3406
X1.932Y-0.7087
T4
X-0.3004Y-0.6956
X-0.2004Y-0.6956
X-0.1004Y-0.6956
T5
X-0.75Y0.0
X0.0Y0.0
X0.75Y0.0
T0
M30
