%TF.GenerationSoftware,KiCad,Pcbnew,(6.0.8-1)-1*%
%TF.CreationDate,2022-10-22T21:38:29+02:00*%
%TF.ProjectId,shunt_regulator,7368756e-745f-4726-9567-756c61746f72,rev?*%
%TF.SameCoordinates,Original*%
%TF.FileFunction,Drillmap*%
%TF.FilePolarity,Positive*%
%FSLAX45Y45*%
G04 Gerber Fmt 4.5, Leading zero omitted, Abs format (unit mm)*
G04 Created by KiCad (PCBNEW (6.0.8-1)-1) date 2022-10-22 21:38:29*
%MOMM*%
%LPD*%
G01*
G04 APERTURE LIST*
%ADD10C,0.100000*%
%ADD11C,0.200000*%
G04 APERTURE END LIST*
D10*
X3000000Y1300000D02*
G75*
G03*
X3100000Y1400000I0J100000D01*
G01*
X3100000Y1500000D02*
G75*
G03*
X3100000Y1500000I0J0D01*
G01*
X3200000Y7300000D02*
G75*
G03*
X3100000Y7200000I0J-100000D01*
G01*
X5800000Y7200000D02*
G75*
G03*
X5700000Y7300000I-100000J0D01*
G01*
X5700000Y-2100000D02*
G75*
G03*
X5800000Y-2000000I0J100000D01*
G01*
X-2900000Y-2000000D02*
G75*
G03*
X-2800000Y-2100000I100000J0D01*
G01*
X-2800000Y1300000D02*
G75*
G03*
X-2900000Y1200000I0J-100000D01*
G01*
X-2900000Y1200000D02*
X-2900000Y-2000000D01*
X3100000Y7200000D02*
X3100000Y1400000D01*
X5700000Y7300000D02*
X3200000Y7300000D01*
X5800000Y-2000000D02*
X5800000Y7200000D01*
X-2800000Y-2100000D02*
X5700000Y-2100000D01*
X-2800000Y1300000D02*
X3000000Y1300000D01*
D11*
X-2647381Y-2415476D02*
X-2647381Y-2215476D01*
X-2599762Y-2215476D01*
X-2571190Y-2225000D01*
X-2552143Y-2244048D01*
X-2542619Y-2263095D01*
X-2533095Y-2301190D01*
X-2533095Y-2329762D01*
X-2542619Y-2367857D01*
X-2552143Y-2386905D01*
X-2571190Y-2405952D01*
X-2599762Y-2415476D01*
X-2647381Y-2415476D01*
X-2447381Y-2415476D02*
X-2447381Y-2282143D01*
X-2447381Y-2320238D02*
X-2437857Y-2301190D01*
X-2428333Y-2291667D01*
X-2409286Y-2282143D01*
X-2390238Y-2282143D01*
X-2323571Y-2415476D02*
X-2323571Y-2282143D01*
X-2323571Y-2215476D02*
X-2333095Y-2225000D01*
X-2323571Y-2234524D01*
X-2314048Y-2225000D01*
X-2323571Y-2215476D01*
X-2323571Y-2234524D01*
X-2199762Y-2415476D02*
X-2218810Y-2405952D01*
X-2228333Y-2386905D01*
X-2228333Y-2215476D01*
X-2095000Y-2415476D02*
X-2114048Y-2405952D01*
X-2123571Y-2386905D01*
X-2123571Y-2215476D01*
X-1866428Y-2415476D02*
X-1866428Y-2215476D01*
X-1799762Y-2358333D01*
X-1733095Y-2215476D01*
X-1733095Y-2415476D01*
X-1552143Y-2415476D02*
X-1552143Y-2310714D01*
X-1561667Y-2291667D01*
X-1580714Y-2282143D01*
X-1618809Y-2282143D01*
X-1637857Y-2291667D01*
X-1552143Y-2405952D02*
X-1571190Y-2415476D01*
X-1618809Y-2415476D01*
X-1637857Y-2405952D01*
X-1647381Y-2386905D01*
X-1647381Y-2367857D01*
X-1637857Y-2348810D01*
X-1618809Y-2339286D01*
X-1571190Y-2339286D01*
X-1552143Y-2329762D01*
X-1456905Y-2282143D02*
X-1456905Y-2482143D01*
X-1456905Y-2291667D02*
X-1437857Y-2282143D01*
X-1399762Y-2282143D01*
X-1380714Y-2291667D01*
X-1371190Y-2301190D01*
X-1361667Y-2320238D01*
X-1361667Y-2377381D01*
X-1371190Y-2396429D01*
X-1380714Y-2405952D01*
X-1399762Y-2415476D01*
X-1437857Y-2415476D01*
X-1456905Y-2405952D01*
X-1275952Y-2396429D02*
X-1266429Y-2405952D01*
X-1275952Y-2415476D01*
X-1285476Y-2405952D01*
X-1275952Y-2396429D01*
X-1275952Y-2415476D01*
X-1275952Y-2291667D02*
X-1266429Y-2301190D01*
X-1275952Y-2310714D01*
X-1285476Y-2301190D01*
X-1275952Y-2291667D01*
X-1275952Y-2310714D01*
M02*
