M48
; DRILL file {KiCad (6.0.8-1)-1} date 2022 October 22, Saturday 21:37:58
; FORMAT={-:-/ absolute / metric / decimal}
; #@! TF.CreationDate,2022-10-22T21:37:58+02:00
; #@! TF.GenerationSoftware,Kicad,Pcbnew,(6.0.8-1)-1
; #@! TF.FileFunction,Plated,1,2,PTH
FMAT,2
METRIC
; #@! TA.AperFunction,Plated,PTH,ViaDrill
T1C0.300
; #@! TA.AperFunction,Plated,PTH,ViaDrill
T2C0.400
; #@! TA.AperFunction,Plated,PTH,ViaDrill
T3C0.500
; #@! TA.AperFunction,Plated,PTH,ComponentDrill
T4C0.800
; #@! TA.AperFunction,Plated,PTH,ComponentDrill
T5C6.200
%
G90
G05
T1
X3.048Y-16.145
X5.588Y-16.526
X10.16Y-17.034
X12.993Y-16.163
X14.351Y-17.034
X15.24Y-18.304
T2
X33.044Y71.612
X33.044Y70.112
X33.044Y68.612
X33.044Y67.112
X33.044Y65.612
X33.044Y64.112
X33.044Y62.612
X33.044Y61.112
X33.044Y59.612
X33.044Y58.112
X33.044Y56.612
X33.044Y55.112
X33.044Y53.612
X33.044Y52.112
X33.044Y50.612
X33.044Y49.112
X33.044Y47.612
X33.044Y46.112
X33.044Y44.612
X33.044Y43.112
X33.044Y41.612
X33.044Y40.112
X33.044Y38.612
X33.044Y37.112
X33.044Y35.612
X33.044Y34.112
X33.044Y32.612
X33.044Y31.112
X33.044Y29.612
X33.044Y28.112
X33.044Y26.612
X33.044Y25.112
X33.044Y23.612
X33.044Y22.112
X33.044Y20.612
X33.044Y19.112
X33.044Y17.612
X33.044Y16.112
X33.044Y14.612
X33.044Y13.112
X33.044Y11.612
X33.044Y10.112
X33.044Y8.612
X33.044Y7.112
X34.544Y71.612
X34.544Y70.112
X34.544Y68.612
X34.544Y67.112
X34.544Y65.612
X34.544Y64.112
X34.544Y62.612
X34.544Y61.112
X34.544Y59.612
X34.544Y58.112
X34.544Y56.612
X34.544Y55.112
X34.544Y53.612
X34.544Y52.112
X34.544Y50.612
X34.544Y49.112
X34.544Y47.612
X34.544Y46.112
X34.544Y44.612
X34.544Y43.112
X34.544Y41.612
X34.544Y40.112
X34.544Y38.612
X34.544Y37.112
X34.544Y35.612
X34.544Y34.112
X34.544Y32.612
X34.544Y31.112
X34.544Y29.612
X34.544Y28.112
X34.544Y26.612
X34.544Y25.112
X34.544Y23.612
X34.544Y22.112
X34.544Y20.612
X34.544Y19.112
X34.544Y17.612
X34.544Y16.112
X34.544Y14.612
X34.544Y13.112
X34.544Y11.612
X34.544Y10.112
X34.544Y8.612
X34.544Y7.112
X41.656Y71.612
X41.656Y70.112
X41.656Y68.612
X41.656Y67.112
X41.656Y65.612
X41.656Y64.112
X41.656Y62.612
X41.656Y61.112
X41.656Y59.612
X41.656Y58.112
X41.656Y56.612
X41.656Y55.112
X41.656Y53.612
X41.656Y52.112
X41.656Y50.612
X41.656Y49.112
X41.656Y47.612
X41.656Y46.112
X41.656Y44.612
X41.656Y43.112
X41.656Y41.612
X41.656Y40.112
X41.656Y38.612
X41.656Y37.112
X41.656Y35.612
X41.656Y34.112
X41.656Y32.612
X41.656Y31.112
X41.656Y29.612
X41.656Y28.112
X41.656Y26.612
X41.656Y25.112
X41.656Y23.612
X41.656Y22.112
X41.656Y20.612
X41.656Y19.112
X41.656Y17.612
X41.656Y16.112
X41.656Y14.612
X41.656Y13.112
X41.656Y11.612
X41.656Y10.112
X41.656Y8.612
X41.656Y7.112
X43.156Y71.612
X43.156Y70.112
X43.156Y68.612
X43.156Y67.112
X43.156Y65.612
X43.156Y64.112
X43.156Y62.612
X43.156Y61.112
X43.156Y59.612
X43.156Y58.112
X43.156Y56.612
X43.156Y55.112
X43.156Y53.612
X43.156Y52.112
X43.156Y50.612
X43.156Y49.112
X43.156Y47.612
X43.156Y46.112
X43.156Y44.612
X43.156Y43.112
X43.156Y41.612
X43.156Y40.112
X43.156Y38.612
X43.156Y37.112
X43.156Y35.612
X43.156Y34.112
X43.156Y32.612
X43.156Y31.112
X43.156Y29.612
X43.156Y28.112
X43.156Y26.612
X43.156Y25.112
X43.156Y23.612
X43.156Y22.112
X43.156Y20.612
X43.156Y19.112
X43.156Y17.612
X43.156Y16.112
X43.156Y14.612
X43.156Y13.112
X43.156Y11.612
X43.156Y10.112
X43.156Y8.612
X43.156Y7.112
X44.656Y71.612
X44.656Y70.112
X44.656Y68.612
X44.656Y67.112
X44.656Y65.612
X44.656Y64.112
X44.656Y62.612
X44.656Y61.112
X44.656Y59.612
X44.656Y58.112
X44.656Y56.612
X44.656Y55.112
X44.656Y53.612
X44.656Y52.112
X44.656Y50.612
X44.656Y49.112
X44.656Y47.612
X44.656Y46.112
X44.656Y44.612
X44.656Y43.112
X44.656Y41.612
X44.656Y40.112
X44.656Y38.612
X44.656Y37.112
X44.656Y35.612
X44.656Y34.112
X44.656Y32.612
X44.656Y31.112
X44.656Y29.612
X44.656Y28.112
X44.656Y26.612
X44.656Y25.112
X44.656Y23.612
X44.656Y22.112
X44.656Y20.612
X44.656Y19.112
X44.656Y17.612
X44.656Y16.112
X44.656Y14.612
X44.656Y13.112
X44.656Y11.612
X44.656Y10.112
X44.656Y8.612
X44.656Y7.112
X46.156Y71.612
X46.156Y70.112
X46.156Y68.612
X46.156Y67.112
X46.156Y65.612
X46.156Y64.112
X46.156Y62.612
X46.156Y61.112
X46.156Y59.612
X46.156Y58.112
X46.156Y56.612
X46.156Y55.112
X46.156Y53.612
X46.156Y52.112
X46.156Y50.612
X46.156Y49.112
X46.156Y47.612
X46.156Y46.112
X46.156Y44.612
X46.156Y43.112
X46.156Y41.612
X46.156Y40.112
X46.156Y38.612
X46.156Y37.112
X46.156Y35.612
X46.156Y34.112
X46.156Y32.612
X46.156Y31.112
X46.156Y29.612
X46.156Y28.112
X46.156Y26.612
X46.156Y25.112
X46.156Y23.612
X46.156Y22.112
X46.156Y20.612
X46.156Y19.112
X46.156Y17.612
X46.156Y16.112
X46.156Y14.612
X46.156Y13.112
X46.156Y11.612
X46.156Y10.112
X46.156Y8.612
X46.156Y7.112
X47.656Y71.612
X47.656Y70.112
X47.656Y68.612
X47.656Y67.112
X47.656Y65.612
X47.656Y64.112
X47.656Y62.612
X47.656Y61.112
X47.656Y59.612
X47.656Y58.112
X47.656Y56.612
X47.656Y55.112
X47.656Y53.612
X47.656Y52.112
X47.656Y50.612
X47.656Y49.112
X47.656Y47.612
X47.656Y46.112
X47.656Y44.612
X47.656Y43.112
X47.656Y41.612
X47.656Y40.112
X47.656Y38.612
X47.656Y37.112
X47.656Y35.612
X47.656Y34.112
X47.656Y32.612
X47.656Y31.112
X47.656Y29.612
X47.656Y28.112
X47.656Y26.612
X47.656Y25.112
X47.656Y23.612
X47.656Y22.112
X47.656Y20.612
X47.656Y19.112
X47.656Y17.612
X47.656Y16.112
X47.656Y14.612
X47.656Y13.112
X47.656Y11.612
X47.656Y10.112
X47.656Y8.612
X47.656Y7.112
X54.888Y71.612
X54.888Y70.112
X54.888Y68.612
X54.888Y67.112
X54.888Y65.612
X54.888Y64.112
X54.888Y62.612
X54.888Y61.112
X54.888Y59.612
X54.888Y58.112
X54.888Y56.612
X54.888Y55.112
X54.888Y53.612
X54.888Y52.112
X54.888Y50.612
X54.888Y49.112
X54.888Y47.612
X54.888Y46.112
X54.888Y44.612
X54.888Y43.112
X54.888Y41.612
X54.888Y40.112
X54.888Y38.612
X54.888Y37.112
X54.888Y35.612
X54.888Y34.112
X54.888Y32.612
X54.888Y31.112
X54.888Y29.612
X54.888Y28.112
X54.888Y26.612
X54.888Y25.112
X54.888Y23.612
X54.888Y22.112
X54.888Y20.612
X54.888Y19.112
X54.888Y17.612
X54.888Y16.112
X54.888Y14.612
X54.888Y13.112
X54.888Y11.612
X54.888Y10.112
X54.888Y8.612
X54.888Y7.112
X56.388Y71.612
X56.388Y70.112
X56.388Y68.612
X56.388Y67.112
X56.388Y65.612
X56.388Y64.112
X56.388Y62.612
X56.388Y61.112
X56.388Y59.612
X56.388Y58.112
X56.388Y56.612
X56.388Y55.112
X56.388Y53.612
X56.388Y52.112
X56.388Y50.612
X56.388Y49.112
X56.388Y47.612
X56.388Y46.112
X56.388Y44.612
X56.388Y43.112
X56.388Y41.612
X56.388Y40.112
X56.388Y38.612
X56.388Y37.112
X56.388Y35.612
X56.388Y34.112
X56.388Y32.612
X56.388Y31.112
X56.388Y29.612
X56.388Y28.112
X56.388Y26.612
X56.388Y25.112
X56.388Y23.612
X56.388Y22.112
X56.388Y20.612
X56.388Y19.112
X56.388Y17.612
X56.388Y16.112
X56.388Y14.612
X56.388Y13.112
X56.388Y11.612
X56.388Y10.112
X56.388Y8.612
X56.388Y7.112
T3
X-27.686Y-20.082
X-25.781Y-20.209
X-22.86Y-19.447
X-21.475Y-12.347
X-19.431Y-10.303
X-6.096Y-13.859
X1.143Y-13.605
X1.778Y-18.905
X9.017Y-15.129
X9.525Y-19.701
X9.779Y-13.859
X14.732Y-19.447
X16.51Y-14.367
X19.685Y-15.51
X22.987Y-11.573
X28.702Y-19.574
X32.32Y-8.844
X37.084Y-4.08
X39.928Y-18.0
X41.452Y-18.0
X41.656Y-8.652
X42.976Y-18.0
X43.18Y-8.652
X44.218Y-4.461
X44.218Y-6.62
X44.5Y-18.0
X44.704Y-8.652
X45.466Y-4.461
X45.593Y-6.62
X46.024Y-18.0
X46.228Y-8.652
X47.548Y-18.0
X47.752Y-8.652
X49.072Y-18.0
T4
X-7.63Y-17.669
X-5.09Y-17.669
X-2.55Y-17.669
T5
X-19.05Y0.0
X0.0Y0.0
X19.05Y0.0
T0
M30
