%TF.GenerationSoftware,KiCad,Pcbnew,(6.0.8-1)-1*%
%TF.CreationDate,2022-10-22T21:38:29+02:00*%
%TF.ProjectId,shunt_regulator,7368756e-745f-4726-9567-756c61746f72,rev?*%
%TF.SameCoordinates,Original*%
%TF.FileFunction,Drillmap*%
%TF.FilePolarity,Positive*%
%FSLAX45Y45*%
G04 Gerber Fmt 4.5, Leading zero omitted, Abs format (unit mm)*
G04 Created by KiCad (PCBNEW (6.0.8-1)-1) date 2022-10-22 21:38:29*
%MOMM*%
%LPD*%
G01*
G04 APERTURE LIST*
%ADD10C,0.100000*%
%ADD11C,0.200000*%
%ADD12C,0.030000*%
%ADD13C,0.040000*%
%ADD14C,0.050000*%
%ADD15C,0.080000*%
%ADD16C,0.620000*%
G04 APERTURE END LIST*
D10*
X3000000Y1300000D02*
G75*
G03*
X3100000Y1400000I0J100000D01*
G01*
X3100000Y1500000D02*
G75*
G03*
X3100000Y1500000I0J0D01*
G01*
X3200000Y7300000D02*
G75*
G03*
X3100000Y7200000I0J-100000D01*
G01*
X5800000Y7200000D02*
G75*
G03*
X5700000Y7300000I-100000J0D01*
G01*
X5700000Y-2100000D02*
G75*
G03*
X5800000Y-2000000I0J100000D01*
G01*
X-2900000Y-2000000D02*
G75*
G03*
X-2800000Y-2100000I100000J0D01*
G01*
X-2800000Y1300000D02*
G75*
G03*
X-2900000Y1200000I0J-100000D01*
G01*
X-2900000Y1200000D02*
X-2900000Y-2000000D01*
X3100000Y7200000D02*
X3100000Y1400000D01*
X5700000Y7300000D02*
X3200000Y7300000D01*
X5800000Y-2000000D02*
X5800000Y7200000D01*
X-2800000Y-2100000D02*
X5700000Y-2100000D01*
X-2800000Y1300000D02*
X3000000Y1300000D01*
D11*
D12*
X289800Y-1599500D02*
X319800Y-1629500D01*
X319800Y-1599500D02*
X289800Y-1629500D01*
X543800Y-1637600D02*
X573800Y-1667600D01*
X573800Y-1637600D02*
X543800Y-1667600D01*
X1001000Y-1688400D02*
X1031000Y-1718400D01*
X1031000Y-1688400D02*
X1001000Y-1718400D01*
X1284254Y-1601256D02*
X1314254Y-1631256D01*
X1314254Y-1601256D02*
X1284254Y-1631256D01*
X1420100Y-1688400D02*
X1450100Y-1718400D01*
X1450100Y-1688400D02*
X1420100Y-1718400D01*
X1509000Y-1815400D02*
X1539000Y-1845400D01*
X1539000Y-1815400D02*
X1509000Y-1845400D01*
D13*
X3324400Y7161200D02*
G75*
G03*
X3324400Y7161200I-20000J0D01*
G01*
X3324400Y7011200D02*
G75*
G03*
X3324400Y7011200I-20000J0D01*
G01*
X3324400Y6861200D02*
G75*
G03*
X3324400Y6861200I-20000J0D01*
G01*
X3324400Y6711200D02*
G75*
G03*
X3324400Y6711200I-20000J0D01*
G01*
X3324400Y6561200D02*
G75*
G03*
X3324400Y6561200I-20000J0D01*
G01*
X3324400Y6411200D02*
G75*
G03*
X3324400Y6411200I-20000J0D01*
G01*
X3324400Y6261200D02*
G75*
G03*
X3324400Y6261200I-20000J0D01*
G01*
X3324400Y6111200D02*
G75*
G03*
X3324400Y6111200I-20000J0D01*
G01*
X3324400Y5961200D02*
G75*
G03*
X3324400Y5961200I-20000J0D01*
G01*
X3324400Y5811200D02*
G75*
G03*
X3324400Y5811200I-20000J0D01*
G01*
X3324400Y5661200D02*
G75*
G03*
X3324400Y5661200I-20000J0D01*
G01*
X3324400Y5511200D02*
G75*
G03*
X3324400Y5511200I-20000J0D01*
G01*
X3324400Y5361200D02*
G75*
G03*
X3324400Y5361200I-20000J0D01*
G01*
X3324400Y5211200D02*
G75*
G03*
X3324400Y5211200I-20000J0D01*
G01*
X3324400Y5061200D02*
G75*
G03*
X3324400Y5061200I-20000J0D01*
G01*
X3324400Y4911200D02*
G75*
G03*
X3324400Y4911200I-20000J0D01*
G01*
X3324400Y4761200D02*
G75*
G03*
X3324400Y4761200I-20000J0D01*
G01*
X3324400Y4611200D02*
G75*
G03*
X3324400Y4611200I-20000J0D01*
G01*
X3324400Y4461200D02*
G75*
G03*
X3324400Y4461200I-20000J0D01*
G01*
X3324400Y4311200D02*
G75*
G03*
X3324400Y4311200I-20000J0D01*
G01*
X3324400Y4161200D02*
G75*
G03*
X3324400Y4161200I-20000J0D01*
G01*
X3324400Y4011200D02*
G75*
G03*
X3324400Y4011200I-20000J0D01*
G01*
X3324400Y3861200D02*
G75*
G03*
X3324400Y3861200I-20000J0D01*
G01*
X3324400Y3711200D02*
G75*
G03*
X3324400Y3711200I-20000J0D01*
G01*
X3324400Y3561200D02*
G75*
G03*
X3324400Y3561200I-20000J0D01*
G01*
X3324400Y3411200D02*
G75*
G03*
X3324400Y3411200I-20000J0D01*
G01*
X3324400Y3261200D02*
G75*
G03*
X3324400Y3261200I-20000J0D01*
G01*
X3324400Y3111200D02*
G75*
G03*
X3324400Y3111200I-20000J0D01*
G01*
X3324400Y2961200D02*
G75*
G03*
X3324400Y2961200I-20000J0D01*
G01*
X3324400Y2811200D02*
G75*
G03*
X3324400Y2811200I-20000J0D01*
G01*
X3324400Y2661200D02*
G75*
G03*
X3324400Y2661200I-20000J0D01*
G01*
X3324400Y2511200D02*
G75*
G03*
X3324400Y2511200I-20000J0D01*
G01*
X3324400Y2361200D02*
G75*
G03*
X3324400Y2361200I-20000J0D01*
G01*
X3324400Y2211200D02*
G75*
G03*
X3324400Y2211200I-20000J0D01*
G01*
X3324400Y2061200D02*
G75*
G03*
X3324400Y2061200I-20000J0D01*
G01*
X3324400Y1911200D02*
G75*
G03*
X3324400Y1911200I-20000J0D01*
G01*
X3324400Y1761200D02*
G75*
G03*
X3324400Y1761200I-20000J0D01*
G01*
X3324400Y1611200D02*
G75*
G03*
X3324400Y1611200I-20000J0D01*
G01*
X3324400Y1461200D02*
G75*
G03*
X3324400Y1461200I-20000J0D01*
G01*
X3324400Y1311200D02*
G75*
G03*
X3324400Y1311200I-20000J0D01*
G01*
X3324400Y1161200D02*
G75*
G03*
X3324400Y1161200I-20000J0D01*
G01*
X3324400Y1011200D02*
G75*
G03*
X3324400Y1011200I-20000J0D01*
G01*
X3324400Y861200D02*
G75*
G03*
X3324400Y861200I-20000J0D01*
G01*
X3324400Y711200D02*
G75*
G03*
X3324400Y711200I-20000J0D01*
G01*
X3474400Y7161200D02*
G75*
G03*
X3474400Y7161200I-20000J0D01*
G01*
X3474400Y7011200D02*
G75*
G03*
X3474400Y7011200I-20000J0D01*
G01*
X3474400Y6861200D02*
G75*
G03*
X3474400Y6861200I-20000J0D01*
G01*
X3474400Y6711200D02*
G75*
G03*
X3474400Y6711200I-20000J0D01*
G01*
X3474400Y6561200D02*
G75*
G03*
X3474400Y6561200I-20000J0D01*
G01*
X3474400Y6411200D02*
G75*
G03*
X3474400Y6411200I-20000J0D01*
G01*
X3474400Y6261200D02*
G75*
G03*
X3474400Y6261200I-20000J0D01*
G01*
X3474400Y6111200D02*
G75*
G03*
X3474400Y6111200I-20000J0D01*
G01*
X3474400Y5961200D02*
G75*
G03*
X3474400Y5961200I-20000J0D01*
G01*
X3474400Y5811200D02*
G75*
G03*
X3474400Y5811200I-20000J0D01*
G01*
X3474400Y5661200D02*
G75*
G03*
X3474400Y5661200I-20000J0D01*
G01*
X3474400Y5511200D02*
G75*
G03*
X3474400Y5511200I-20000J0D01*
G01*
X3474400Y5361200D02*
G75*
G03*
X3474400Y5361200I-20000J0D01*
G01*
X3474400Y5211200D02*
G75*
G03*
X3474400Y5211200I-20000J0D01*
G01*
X3474400Y5061200D02*
G75*
G03*
X3474400Y5061200I-20000J0D01*
G01*
X3474400Y4911200D02*
G75*
G03*
X3474400Y4911200I-20000J0D01*
G01*
X3474400Y4761200D02*
G75*
G03*
X3474400Y4761200I-20000J0D01*
G01*
X3474400Y4611200D02*
G75*
G03*
X3474400Y4611200I-20000J0D01*
G01*
X3474400Y4461200D02*
G75*
G03*
X3474400Y4461200I-20000J0D01*
G01*
X3474400Y4311200D02*
G75*
G03*
X3474400Y4311200I-20000J0D01*
G01*
X3474400Y4161200D02*
G75*
G03*
X3474400Y4161200I-20000J0D01*
G01*
X3474400Y4011200D02*
G75*
G03*
X3474400Y4011200I-20000J0D01*
G01*
X3474400Y3861200D02*
G75*
G03*
X3474400Y3861200I-20000J0D01*
G01*
X3474400Y3711200D02*
G75*
G03*
X3474400Y3711200I-20000J0D01*
G01*
X3474400Y3561200D02*
G75*
G03*
X3474400Y3561200I-20000J0D01*
G01*
X3474400Y3411200D02*
G75*
G03*
X3474400Y3411200I-20000J0D01*
G01*
X3474400Y3261200D02*
G75*
G03*
X3474400Y3261200I-20000J0D01*
G01*
X3474400Y3111200D02*
G75*
G03*
X3474400Y3111200I-20000J0D01*
G01*
X3474400Y2961200D02*
G75*
G03*
X3474400Y2961200I-20000J0D01*
G01*
X3474400Y2811200D02*
G75*
G03*
X3474400Y2811200I-20000J0D01*
G01*
X3474400Y2661200D02*
G75*
G03*
X3474400Y2661200I-20000J0D01*
G01*
X3474400Y2511200D02*
G75*
G03*
X3474400Y2511200I-20000J0D01*
G01*
X3474400Y2361200D02*
G75*
G03*
X3474400Y2361200I-20000J0D01*
G01*
X3474400Y2211200D02*
G75*
G03*
X3474400Y2211200I-20000J0D01*
G01*
X3474400Y2061200D02*
G75*
G03*
X3474400Y2061200I-20000J0D01*
G01*
X3474400Y1911200D02*
G75*
G03*
X3474400Y1911200I-20000J0D01*
G01*
X3474400Y1761200D02*
G75*
G03*
X3474400Y1761200I-20000J0D01*
G01*
X3474400Y1611200D02*
G75*
G03*
X3474400Y1611200I-20000J0D01*
G01*
X3474400Y1461200D02*
G75*
G03*
X3474400Y1461200I-20000J0D01*
G01*
X3474400Y1311200D02*
G75*
G03*
X3474400Y1311200I-20000J0D01*
G01*
X3474400Y1161200D02*
G75*
G03*
X3474400Y1161200I-20000J0D01*
G01*
X3474400Y1011200D02*
G75*
G03*
X3474400Y1011200I-20000J0D01*
G01*
X3474400Y861200D02*
G75*
G03*
X3474400Y861200I-20000J0D01*
G01*
X3474400Y711200D02*
G75*
G03*
X3474400Y711200I-20000J0D01*
G01*
X4185600Y7161200D02*
G75*
G03*
X4185600Y7161200I-20000J0D01*
G01*
X4185600Y7011200D02*
G75*
G03*
X4185600Y7011200I-20000J0D01*
G01*
X4185600Y6861200D02*
G75*
G03*
X4185600Y6861200I-20000J0D01*
G01*
X4185600Y6711200D02*
G75*
G03*
X4185600Y6711200I-20000J0D01*
G01*
X4185600Y6561200D02*
G75*
G03*
X4185600Y6561200I-20000J0D01*
G01*
X4185600Y6411200D02*
G75*
G03*
X4185600Y6411200I-20000J0D01*
G01*
X4185600Y6261200D02*
G75*
G03*
X4185600Y6261200I-20000J0D01*
G01*
X4185600Y6111200D02*
G75*
G03*
X4185600Y6111200I-20000J0D01*
G01*
X4185600Y5961200D02*
G75*
G03*
X4185600Y5961200I-20000J0D01*
G01*
X4185600Y5811200D02*
G75*
G03*
X4185600Y5811200I-20000J0D01*
G01*
X4185600Y5661200D02*
G75*
G03*
X4185600Y5661200I-20000J0D01*
G01*
X4185600Y5511200D02*
G75*
G03*
X4185600Y5511200I-20000J0D01*
G01*
X4185600Y5361200D02*
G75*
G03*
X4185600Y5361200I-20000J0D01*
G01*
X4185600Y5211200D02*
G75*
G03*
X4185600Y5211200I-20000J0D01*
G01*
X4185600Y5061200D02*
G75*
G03*
X4185600Y5061200I-20000J0D01*
G01*
X4185600Y4911200D02*
G75*
G03*
X4185600Y4911200I-20000J0D01*
G01*
X4185600Y4761200D02*
G75*
G03*
X4185600Y4761200I-20000J0D01*
G01*
X4185600Y4611200D02*
G75*
G03*
X4185600Y4611200I-20000J0D01*
G01*
X4185600Y4461200D02*
G75*
G03*
X4185600Y4461200I-20000J0D01*
G01*
X4185600Y4311200D02*
G75*
G03*
X4185600Y4311200I-20000J0D01*
G01*
X4185600Y4161200D02*
G75*
G03*
X4185600Y4161200I-20000J0D01*
G01*
X4185600Y4011200D02*
G75*
G03*
X4185600Y4011200I-20000J0D01*
G01*
X4185600Y3861200D02*
G75*
G03*
X4185600Y3861200I-20000J0D01*
G01*
X4185600Y3711200D02*
G75*
G03*
X4185600Y3711200I-20000J0D01*
G01*
X4185600Y3561200D02*
G75*
G03*
X4185600Y3561200I-20000J0D01*
G01*
X4185600Y3411200D02*
G75*
G03*
X4185600Y3411200I-20000J0D01*
G01*
X4185600Y3261200D02*
G75*
G03*
X4185600Y3261200I-20000J0D01*
G01*
X4185600Y3111200D02*
G75*
G03*
X4185600Y3111200I-20000J0D01*
G01*
X4185600Y2961200D02*
G75*
G03*
X4185600Y2961200I-20000J0D01*
G01*
X4185600Y2811200D02*
G75*
G03*
X4185600Y2811200I-20000J0D01*
G01*
X4185600Y2661200D02*
G75*
G03*
X4185600Y2661200I-20000J0D01*
G01*
X4185600Y2511200D02*
G75*
G03*
X4185600Y2511200I-20000J0D01*
G01*
X4185600Y2361200D02*
G75*
G03*
X4185600Y2361200I-20000J0D01*
G01*
X4185600Y2211200D02*
G75*
G03*
X4185600Y2211200I-20000J0D01*
G01*
X4185600Y2061200D02*
G75*
G03*
X4185600Y2061200I-20000J0D01*
G01*
X4185600Y1911200D02*
G75*
G03*
X4185600Y1911200I-20000J0D01*
G01*
X4185600Y1761200D02*
G75*
G03*
X4185600Y1761200I-20000J0D01*
G01*
X4185600Y1611200D02*
G75*
G03*
X4185600Y1611200I-20000J0D01*
G01*
X4185600Y1461200D02*
G75*
G03*
X4185600Y1461200I-20000J0D01*
G01*
X4185600Y1311200D02*
G75*
G03*
X4185600Y1311200I-20000J0D01*
G01*
X4185600Y1161200D02*
G75*
G03*
X4185600Y1161200I-20000J0D01*
G01*
X4185600Y1011200D02*
G75*
G03*
X4185600Y1011200I-20000J0D01*
G01*
X4185600Y861200D02*
G75*
G03*
X4185600Y861200I-20000J0D01*
G01*
X4185600Y711200D02*
G75*
G03*
X4185600Y711200I-20000J0D01*
G01*
X4335600Y7161200D02*
G75*
G03*
X4335600Y7161200I-20000J0D01*
G01*
X4335600Y7011200D02*
G75*
G03*
X4335600Y7011200I-20000J0D01*
G01*
X4335600Y6861200D02*
G75*
G03*
X4335600Y6861200I-20000J0D01*
G01*
X4335600Y6711200D02*
G75*
G03*
X4335600Y6711200I-20000J0D01*
G01*
X4335600Y6561200D02*
G75*
G03*
X4335600Y6561200I-20000J0D01*
G01*
X4335600Y6411200D02*
G75*
G03*
X4335600Y6411200I-20000J0D01*
G01*
X4335600Y6261200D02*
G75*
G03*
X4335600Y6261200I-20000J0D01*
G01*
X4335600Y6111200D02*
G75*
G03*
X4335600Y6111200I-20000J0D01*
G01*
X4335600Y5961200D02*
G75*
G03*
X4335600Y5961200I-20000J0D01*
G01*
X4335600Y5811200D02*
G75*
G03*
X4335600Y5811200I-20000J0D01*
G01*
X4335600Y5661200D02*
G75*
G03*
X4335600Y5661200I-20000J0D01*
G01*
X4335600Y5511200D02*
G75*
G03*
X4335600Y5511200I-20000J0D01*
G01*
X4335600Y5361200D02*
G75*
G03*
X4335600Y5361200I-20000J0D01*
G01*
X4335600Y5211200D02*
G75*
G03*
X4335600Y5211200I-20000J0D01*
G01*
X4335600Y5061200D02*
G75*
G03*
X4335600Y5061200I-20000J0D01*
G01*
X4335600Y4911200D02*
G75*
G03*
X4335600Y4911200I-20000J0D01*
G01*
X4335600Y4761200D02*
G75*
G03*
X4335600Y4761200I-20000J0D01*
G01*
X4335600Y4611200D02*
G75*
G03*
X4335600Y4611200I-20000J0D01*
G01*
X4335600Y4461200D02*
G75*
G03*
X4335600Y4461200I-20000J0D01*
G01*
X4335600Y4311200D02*
G75*
G03*
X4335600Y4311200I-20000J0D01*
G01*
X4335600Y4161200D02*
G75*
G03*
X4335600Y4161200I-20000J0D01*
G01*
X4335600Y4011200D02*
G75*
G03*
X4335600Y4011200I-20000J0D01*
G01*
X4335600Y3861200D02*
G75*
G03*
X4335600Y3861200I-20000J0D01*
G01*
X4335600Y3711200D02*
G75*
G03*
X4335600Y3711200I-20000J0D01*
G01*
X4335600Y3561200D02*
G75*
G03*
X4335600Y3561200I-20000J0D01*
G01*
X4335600Y3411200D02*
G75*
G03*
X4335600Y3411200I-20000J0D01*
G01*
X4335600Y3261200D02*
G75*
G03*
X4335600Y3261200I-20000J0D01*
G01*
X4335600Y3111200D02*
G75*
G03*
X4335600Y3111200I-20000J0D01*
G01*
X4335600Y2961200D02*
G75*
G03*
X4335600Y2961200I-20000J0D01*
G01*
X4335600Y2811200D02*
G75*
G03*
X4335600Y2811200I-20000J0D01*
G01*
X4335600Y2661200D02*
G75*
G03*
X4335600Y2661200I-20000J0D01*
G01*
X4335600Y2511200D02*
G75*
G03*
X4335600Y2511200I-20000J0D01*
G01*
X4335600Y2361200D02*
G75*
G03*
X4335600Y2361200I-20000J0D01*
G01*
X4335600Y2211200D02*
G75*
G03*
X4335600Y2211200I-20000J0D01*
G01*
X4335600Y2061200D02*
G75*
G03*
X4335600Y2061200I-20000J0D01*
G01*
X4335600Y1911200D02*
G75*
G03*
X4335600Y1911200I-20000J0D01*
G01*
X4335600Y1761200D02*
G75*
G03*
X4335600Y1761200I-20000J0D01*
G01*
X4335600Y1611200D02*
G75*
G03*
X4335600Y1611200I-20000J0D01*
G01*
X4335600Y1461200D02*
G75*
G03*
X4335600Y1461200I-20000J0D01*
G01*
X4335600Y1311200D02*
G75*
G03*
X4335600Y1311200I-20000J0D01*
G01*
X4335600Y1161200D02*
G75*
G03*
X4335600Y1161200I-20000J0D01*
G01*
X4335600Y1011200D02*
G75*
G03*
X4335600Y1011200I-20000J0D01*
G01*
X4335600Y861200D02*
G75*
G03*
X4335600Y861200I-20000J0D01*
G01*
X4335600Y711200D02*
G75*
G03*
X4335600Y711200I-20000J0D01*
G01*
X4485600Y7161200D02*
G75*
G03*
X4485600Y7161200I-20000J0D01*
G01*
X4485600Y7011200D02*
G75*
G03*
X4485600Y7011200I-20000J0D01*
G01*
X4485600Y6861200D02*
G75*
G03*
X4485600Y6861200I-20000J0D01*
G01*
X4485600Y6711200D02*
G75*
G03*
X4485600Y6711200I-20000J0D01*
G01*
X4485600Y6561200D02*
G75*
G03*
X4485600Y6561200I-20000J0D01*
G01*
X4485600Y6411200D02*
G75*
G03*
X4485600Y6411200I-20000J0D01*
G01*
X4485600Y6261200D02*
G75*
G03*
X4485600Y6261200I-20000J0D01*
G01*
X4485600Y6111200D02*
G75*
G03*
X4485600Y6111200I-20000J0D01*
G01*
X4485600Y5961200D02*
G75*
G03*
X4485600Y5961200I-20000J0D01*
G01*
X4485600Y5811200D02*
G75*
G03*
X4485600Y5811200I-20000J0D01*
G01*
X4485600Y5661200D02*
G75*
G03*
X4485600Y5661200I-20000J0D01*
G01*
X4485600Y5511200D02*
G75*
G03*
X4485600Y5511200I-20000J0D01*
G01*
X4485600Y5361200D02*
G75*
G03*
X4485600Y5361200I-20000J0D01*
G01*
X4485600Y5211200D02*
G75*
G03*
X4485600Y5211200I-20000J0D01*
G01*
X4485600Y5061200D02*
G75*
G03*
X4485600Y5061200I-20000J0D01*
G01*
X4485600Y4911200D02*
G75*
G03*
X4485600Y4911200I-20000J0D01*
G01*
X4485600Y4761200D02*
G75*
G03*
X4485600Y4761200I-20000J0D01*
G01*
X4485600Y4611200D02*
G75*
G03*
X4485600Y4611200I-20000J0D01*
G01*
X4485600Y4461200D02*
G75*
G03*
X4485600Y4461200I-20000J0D01*
G01*
X4485600Y4311200D02*
G75*
G03*
X4485600Y4311200I-20000J0D01*
G01*
X4485600Y4161200D02*
G75*
G03*
X4485600Y4161200I-20000J0D01*
G01*
X4485600Y4011200D02*
G75*
G03*
X4485600Y4011200I-20000J0D01*
G01*
X4485600Y3861200D02*
G75*
G03*
X4485600Y3861200I-20000J0D01*
G01*
X4485600Y3711200D02*
G75*
G03*
X4485600Y3711200I-20000J0D01*
G01*
X4485600Y3561200D02*
G75*
G03*
X4485600Y3561200I-20000J0D01*
G01*
X4485600Y3411200D02*
G75*
G03*
X4485600Y3411200I-20000J0D01*
G01*
X4485600Y3261200D02*
G75*
G03*
X4485600Y3261200I-20000J0D01*
G01*
X4485600Y3111200D02*
G75*
G03*
X4485600Y3111200I-20000J0D01*
G01*
X4485600Y2961200D02*
G75*
G03*
X4485600Y2961200I-20000J0D01*
G01*
X4485600Y2811200D02*
G75*
G03*
X4485600Y2811200I-20000J0D01*
G01*
X4485600Y2661200D02*
G75*
G03*
X4485600Y2661200I-20000J0D01*
G01*
X4485600Y2511200D02*
G75*
G03*
X4485600Y2511200I-20000J0D01*
G01*
X4485600Y2361200D02*
G75*
G03*
X4485600Y2361200I-20000J0D01*
G01*
X4485600Y2211200D02*
G75*
G03*
X4485600Y2211200I-20000J0D01*
G01*
X4485600Y2061200D02*
G75*
G03*
X4485600Y2061200I-20000J0D01*
G01*
X4485600Y1911200D02*
G75*
G03*
X4485600Y1911200I-20000J0D01*
G01*
X4485600Y1761200D02*
G75*
G03*
X4485600Y1761200I-20000J0D01*
G01*
X4485600Y1611200D02*
G75*
G03*
X4485600Y1611200I-20000J0D01*
G01*
X4485600Y1461200D02*
G75*
G03*
X4485600Y1461200I-20000J0D01*
G01*
X4485600Y1311200D02*
G75*
G03*
X4485600Y1311200I-20000J0D01*
G01*
X4485600Y1161200D02*
G75*
G03*
X4485600Y1161200I-20000J0D01*
G01*
X4485600Y1011200D02*
G75*
G03*
X4485600Y1011200I-20000J0D01*
G01*
X4485600Y861200D02*
G75*
G03*
X4485600Y861200I-20000J0D01*
G01*
X4485600Y711200D02*
G75*
G03*
X4485600Y711200I-20000J0D01*
G01*
X4635600Y7161200D02*
G75*
G03*
X4635600Y7161200I-20000J0D01*
G01*
X4635600Y7011200D02*
G75*
G03*
X4635600Y7011200I-20000J0D01*
G01*
X4635600Y6861200D02*
G75*
G03*
X4635600Y6861200I-20000J0D01*
G01*
X4635600Y6711200D02*
G75*
G03*
X4635600Y6711200I-20000J0D01*
G01*
X4635600Y6561200D02*
G75*
G03*
X4635600Y6561200I-20000J0D01*
G01*
X4635600Y6411200D02*
G75*
G03*
X4635600Y6411200I-20000J0D01*
G01*
X4635600Y6261200D02*
G75*
G03*
X4635600Y6261200I-20000J0D01*
G01*
X4635600Y6111200D02*
G75*
G03*
X4635600Y6111200I-20000J0D01*
G01*
X4635600Y5961200D02*
G75*
G03*
X4635600Y5961200I-20000J0D01*
G01*
X4635600Y5811200D02*
G75*
G03*
X4635600Y5811200I-20000J0D01*
G01*
X4635600Y5661200D02*
G75*
G03*
X4635600Y5661200I-20000J0D01*
G01*
X4635600Y5511200D02*
G75*
G03*
X4635600Y5511200I-20000J0D01*
G01*
X4635600Y5361200D02*
G75*
G03*
X4635600Y5361200I-20000J0D01*
G01*
X4635600Y5211200D02*
G75*
G03*
X4635600Y5211200I-20000J0D01*
G01*
X4635600Y5061200D02*
G75*
G03*
X4635600Y5061200I-20000J0D01*
G01*
X4635600Y4911200D02*
G75*
G03*
X4635600Y4911200I-20000J0D01*
G01*
X4635600Y4761200D02*
G75*
G03*
X4635600Y4761200I-20000J0D01*
G01*
X4635600Y4611200D02*
G75*
G03*
X4635600Y4611200I-20000J0D01*
G01*
X4635600Y4461200D02*
G75*
G03*
X4635600Y4461200I-20000J0D01*
G01*
X4635600Y4311200D02*
G75*
G03*
X4635600Y4311200I-20000J0D01*
G01*
X4635600Y4161200D02*
G75*
G03*
X4635600Y4161200I-20000J0D01*
G01*
X4635600Y4011200D02*
G75*
G03*
X4635600Y4011200I-20000J0D01*
G01*
X4635600Y3861200D02*
G75*
G03*
X4635600Y3861200I-20000J0D01*
G01*
X4635600Y3711200D02*
G75*
G03*
X4635600Y3711200I-20000J0D01*
G01*
X4635600Y3561200D02*
G75*
G03*
X4635600Y3561200I-20000J0D01*
G01*
X4635600Y3411200D02*
G75*
G03*
X4635600Y3411200I-20000J0D01*
G01*
X4635600Y3261200D02*
G75*
G03*
X4635600Y3261200I-20000J0D01*
G01*
X4635600Y3111200D02*
G75*
G03*
X4635600Y3111200I-20000J0D01*
G01*
X4635600Y2961200D02*
G75*
G03*
X4635600Y2961200I-20000J0D01*
G01*
X4635600Y2811200D02*
G75*
G03*
X4635600Y2811200I-20000J0D01*
G01*
X4635600Y2661200D02*
G75*
G03*
X4635600Y2661200I-20000J0D01*
G01*
X4635600Y2511200D02*
G75*
G03*
X4635600Y2511200I-20000J0D01*
G01*
X4635600Y2361200D02*
G75*
G03*
X4635600Y2361200I-20000J0D01*
G01*
X4635600Y2211200D02*
G75*
G03*
X4635600Y2211200I-20000J0D01*
G01*
X4635600Y2061200D02*
G75*
G03*
X4635600Y2061200I-20000J0D01*
G01*
X4635600Y1911200D02*
G75*
G03*
X4635600Y1911200I-20000J0D01*
G01*
X4635600Y1761200D02*
G75*
G03*
X4635600Y1761200I-20000J0D01*
G01*
X4635600Y1611200D02*
G75*
G03*
X4635600Y1611200I-20000J0D01*
G01*
X4635600Y1461200D02*
G75*
G03*
X4635600Y1461200I-20000J0D01*
G01*
X4635600Y1311200D02*
G75*
G03*
X4635600Y1311200I-20000J0D01*
G01*
X4635600Y1161200D02*
G75*
G03*
X4635600Y1161200I-20000J0D01*
G01*
X4635600Y1011200D02*
G75*
G03*
X4635600Y1011200I-20000J0D01*
G01*
X4635600Y861200D02*
G75*
G03*
X4635600Y861200I-20000J0D01*
G01*
X4635600Y711200D02*
G75*
G03*
X4635600Y711200I-20000J0D01*
G01*
X4785600Y7161200D02*
G75*
G03*
X4785600Y7161200I-20000J0D01*
G01*
X4785600Y7011200D02*
G75*
G03*
X4785600Y7011200I-20000J0D01*
G01*
X4785600Y6861200D02*
G75*
G03*
X4785600Y6861200I-20000J0D01*
G01*
X4785600Y6711200D02*
G75*
G03*
X4785600Y6711200I-20000J0D01*
G01*
X4785600Y6561200D02*
G75*
G03*
X4785600Y6561200I-20000J0D01*
G01*
X4785600Y6411200D02*
G75*
G03*
X4785600Y6411200I-20000J0D01*
G01*
X4785600Y6261200D02*
G75*
G03*
X4785600Y6261200I-20000J0D01*
G01*
X4785600Y6111200D02*
G75*
G03*
X4785600Y6111200I-20000J0D01*
G01*
X4785600Y5961200D02*
G75*
G03*
X4785600Y5961200I-20000J0D01*
G01*
X4785600Y5811200D02*
G75*
G03*
X4785600Y5811200I-20000J0D01*
G01*
X4785600Y5661200D02*
G75*
G03*
X4785600Y5661200I-20000J0D01*
G01*
X4785600Y5511200D02*
G75*
G03*
X4785600Y5511200I-20000J0D01*
G01*
X4785600Y5361200D02*
G75*
G03*
X4785600Y5361200I-20000J0D01*
G01*
X4785600Y5211200D02*
G75*
G03*
X4785600Y5211200I-20000J0D01*
G01*
X4785600Y5061200D02*
G75*
G03*
X4785600Y5061200I-20000J0D01*
G01*
X4785600Y4911200D02*
G75*
G03*
X4785600Y4911200I-20000J0D01*
G01*
X4785600Y4761200D02*
G75*
G03*
X4785600Y4761200I-20000J0D01*
G01*
X4785600Y4611200D02*
G75*
G03*
X4785600Y4611200I-20000J0D01*
G01*
X4785600Y4461200D02*
G75*
G03*
X4785600Y4461200I-20000J0D01*
G01*
X4785600Y4311200D02*
G75*
G03*
X4785600Y4311200I-20000J0D01*
G01*
X4785600Y4161200D02*
G75*
G03*
X4785600Y4161200I-20000J0D01*
G01*
X4785600Y4011200D02*
G75*
G03*
X4785600Y4011200I-20000J0D01*
G01*
X4785600Y3861200D02*
G75*
G03*
X4785600Y3861200I-20000J0D01*
G01*
X4785600Y3711200D02*
G75*
G03*
X4785600Y3711200I-20000J0D01*
G01*
X4785600Y3561200D02*
G75*
G03*
X4785600Y3561200I-20000J0D01*
G01*
X4785600Y3411200D02*
G75*
G03*
X4785600Y3411200I-20000J0D01*
G01*
X4785600Y3261200D02*
G75*
G03*
X4785600Y3261200I-20000J0D01*
G01*
X4785600Y3111200D02*
G75*
G03*
X4785600Y3111200I-20000J0D01*
G01*
X4785600Y2961200D02*
G75*
G03*
X4785600Y2961200I-20000J0D01*
G01*
X4785600Y2811200D02*
G75*
G03*
X4785600Y2811200I-20000J0D01*
G01*
X4785600Y2661200D02*
G75*
G03*
X4785600Y2661200I-20000J0D01*
G01*
X4785600Y2511200D02*
G75*
G03*
X4785600Y2511200I-20000J0D01*
G01*
X4785600Y2361200D02*
G75*
G03*
X4785600Y2361200I-20000J0D01*
G01*
X4785600Y2211200D02*
G75*
G03*
X4785600Y2211200I-20000J0D01*
G01*
X4785600Y2061200D02*
G75*
G03*
X4785600Y2061200I-20000J0D01*
G01*
X4785600Y1911200D02*
G75*
G03*
X4785600Y1911200I-20000J0D01*
G01*
X4785600Y1761200D02*
G75*
G03*
X4785600Y1761200I-20000J0D01*
G01*
X4785600Y1611200D02*
G75*
G03*
X4785600Y1611200I-20000J0D01*
G01*
X4785600Y1461200D02*
G75*
G03*
X4785600Y1461200I-20000J0D01*
G01*
X4785600Y1311200D02*
G75*
G03*
X4785600Y1311200I-20000J0D01*
G01*
X4785600Y1161200D02*
G75*
G03*
X4785600Y1161200I-20000J0D01*
G01*
X4785600Y1011200D02*
G75*
G03*
X4785600Y1011200I-20000J0D01*
G01*
X4785600Y861200D02*
G75*
G03*
X4785600Y861200I-20000J0D01*
G01*
X4785600Y711200D02*
G75*
G03*
X4785600Y711200I-20000J0D01*
G01*
X5508800Y7161200D02*
G75*
G03*
X5508800Y7161200I-20000J0D01*
G01*
X5508800Y7011200D02*
G75*
G03*
X5508800Y7011200I-20000J0D01*
G01*
X5508800Y6861200D02*
G75*
G03*
X5508800Y6861200I-20000J0D01*
G01*
X5508800Y6711200D02*
G75*
G03*
X5508800Y6711200I-20000J0D01*
G01*
X5508800Y6561200D02*
G75*
G03*
X5508800Y6561200I-20000J0D01*
G01*
X5508800Y6411200D02*
G75*
G03*
X5508800Y6411200I-20000J0D01*
G01*
X5508800Y6261200D02*
G75*
G03*
X5508800Y6261200I-20000J0D01*
G01*
X5508800Y6111200D02*
G75*
G03*
X5508800Y6111200I-20000J0D01*
G01*
X5508800Y5961200D02*
G75*
G03*
X5508800Y5961200I-20000J0D01*
G01*
X5508800Y5811200D02*
G75*
G03*
X5508800Y5811200I-20000J0D01*
G01*
X5508800Y5661200D02*
G75*
G03*
X5508800Y5661200I-20000J0D01*
G01*
X5508800Y5511200D02*
G75*
G03*
X5508800Y5511200I-20000J0D01*
G01*
X5508800Y5361200D02*
G75*
G03*
X5508800Y5361200I-20000J0D01*
G01*
X5508800Y5211200D02*
G75*
G03*
X5508800Y5211200I-20000J0D01*
G01*
X5508800Y5061200D02*
G75*
G03*
X5508800Y5061200I-20000J0D01*
G01*
X5508800Y4911200D02*
G75*
G03*
X5508800Y4911200I-20000J0D01*
G01*
X5508800Y4761200D02*
G75*
G03*
X5508800Y4761200I-20000J0D01*
G01*
X5508800Y4611200D02*
G75*
G03*
X5508800Y4611200I-20000J0D01*
G01*
X5508800Y4461200D02*
G75*
G03*
X5508800Y4461200I-20000J0D01*
G01*
X5508800Y4311200D02*
G75*
G03*
X5508800Y4311200I-20000J0D01*
G01*
X5508800Y4161200D02*
G75*
G03*
X5508800Y4161200I-20000J0D01*
G01*
X5508800Y4011200D02*
G75*
G03*
X5508800Y4011200I-20000J0D01*
G01*
X5508800Y3861200D02*
G75*
G03*
X5508800Y3861200I-20000J0D01*
G01*
X5508800Y3711200D02*
G75*
G03*
X5508800Y3711200I-20000J0D01*
G01*
X5508800Y3561200D02*
G75*
G03*
X5508800Y3561200I-20000J0D01*
G01*
X5508800Y3411200D02*
G75*
G03*
X5508800Y3411200I-20000J0D01*
G01*
X5508800Y3261200D02*
G75*
G03*
X5508800Y3261200I-20000J0D01*
G01*
X5508800Y3111200D02*
G75*
G03*
X5508800Y3111200I-20000J0D01*
G01*
X5508800Y2961200D02*
G75*
G03*
X5508800Y2961200I-20000J0D01*
G01*
X5508800Y2811200D02*
G75*
G03*
X5508800Y2811200I-20000J0D01*
G01*
X5508800Y2661200D02*
G75*
G03*
X5508800Y2661200I-20000J0D01*
G01*
X5508800Y2511200D02*
G75*
G03*
X5508800Y2511200I-20000J0D01*
G01*
X5508800Y2361200D02*
G75*
G03*
X5508800Y2361200I-20000J0D01*
G01*
X5508800Y2211200D02*
G75*
G03*
X5508800Y2211200I-20000J0D01*
G01*
X5508800Y2061200D02*
G75*
G03*
X5508800Y2061200I-20000J0D01*
G01*
X5508800Y1911200D02*
G75*
G03*
X5508800Y1911200I-20000J0D01*
G01*
X5508800Y1761200D02*
G75*
G03*
X5508800Y1761200I-20000J0D01*
G01*
X5508800Y1611200D02*
G75*
G03*
X5508800Y1611200I-20000J0D01*
G01*
X5508800Y1461200D02*
G75*
G03*
X5508800Y1461200I-20000J0D01*
G01*
X5508800Y1311200D02*
G75*
G03*
X5508800Y1311200I-20000J0D01*
G01*
X5508800Y1161200D02*
G75*
G03*
X5508800Y1161200I-20000J0D01*
G01*
X5508800Y1011200D02*
G75*
G03*
X5508800Y1011200I-20000J0D01*
G01*
X5508800Y861200D02*
G75*
G03*
X5508800Y861200I-20000J0D01*
G01*
X5508800Y711200D02*
G75*
G03*
X5508800Y711200I-20000J0D01*
G01*
X5658800Y7161200D02*
G75*
G03*
X5658800Y7161200I-20000J0D01*
G01*
X5658800Y7011200D02*
G75*
G03*
X5658800Y7011200I-20000J0D01*
G01*
X5658800Y6861200D02*
G75*
G03*
X5658800Y6861200I-20000J0D01*
G01*
X5658800Y6711200D02*
G75*
G03*
X5658800Y6711200I-20000J0D01*
G01*
X5658800Y6561200D02*
G75*
G03*
X5658800Y6561200I-20000J0D01*
G01*
X5658800Y6411200D02*
G75*
G03*
X5658800Y6411200I-20000J0D01*
G01*
X5658800Y6261200D02*
G75*
G03*
X5658800Y6261200I-20000J0D01*
G01*
X5658800Y6111200D02*
G75*
G03*
X5658800Y6111200I-20000J0D01*
G01*
X5658800Y5961200D02*
G75*
G03*
X5658800Y5961200I-20000J0D01*
G01*
X5658800Y5811200D02*
G75*
G03*
X5658800Y5811200I-20000J0D01*
G01*
X5658800Y5661200D02*
G75*
G03*
X5658800Y5661200I-20000J0D01*
G01*
X5658800Y5511200D02*
G75*
G03*
X5658800Y5511200I-20000J0D01*
G01*
X5658800Y5361200D02*
G75*
G03*
X5658800Y5361200I-20000J0D01*
G01*
X5658800Y5211200D02*
G75*
G03*
X5658800Y5211200I-20000J0D01*
G01*
X5658800Y5061200D02*
G75*
G03*
X5658800Y5061200I-20000J0D01*
G01*
X5658800Y4911200D02*
G75*
G03*
X5658800Y4911200I-20000J0D01*
G01*
X5658800Y4761200D02*
G75*
G03*
X5658800Y4761200I-20000J0D01*
G01*
X5658800Y4611200D02*
G75*
G03*
X5658800Y4611200I-20000J0D01*
G01*
X5658800Y4461200D02*
G75*
G03*
X5658800Y4461200I-20000J0D01*
G01*
X5658800Y4311200D02*
G75*
G03*
X5658800Y4311200I-20000J0D01*
G01*
X5658800Y4161200D02*
G75*
G03*
X5658800Y4161200I-20000J0D01*
G01*
X5658800Y4011200D02*
G75*
G03*
X5658800Y4011200I-20000J0D01*
G01*
X5658800Y3861200D02*
G75*
G03*
X5658800Y3861200I-20000J0D01*
G01*
X5658800Y3711200D02*
G75*
G03*
X5658800Y3711200I-20000J0D01*
G01*
X5658800Y3561200D02*
G75*
G03*
X5658800Y3561200I-20000J0D01*
G01*
X5658800Y3411200D02*
G75*
G03*
X5658800Y3411200I-20000J0D01*
G01*
X5658800Y3261200D02*
G75*
G03*
X5658800Y3261200I-20000J0D01*
G01*
X5658800Y3111200D02*
G75*
G03*
X5658800Y3111200I-20000J0D01*
G01*
X5658800Y2961200D02*
G75*
G03*
X5658800Y2961200I-20000J0D01*
G01*
X5658800Y2811200D02*
G75*
G03*
X5658800Y2811200I-20000J0D01*
G01*
X5658800Y2661200D02*
G75*
G03*
X5658800Y2661200I-20000J0D01*
G01*
X5658800Y2511200D02*
G75*
G03*
X5658800Y2511200I-20000J0D01*
G01*
X5658800Y2361200D02*
G75*
G03*
X5658800Y2361200I-20000J0D01*
G01*
X5658800Y2211200D02*
G75*
G03*
X5658800Y2211200I-20000J0D01*
G01*
X5658800Y2061200D02*
G75*
G03*
X5658800Y2061200I-20000J0D01*
G01*
X5658800Y1911200D02*
G75*
G03*
X5658800Y1911200I-20000J0D01*
G01*
X5658800Y1761200D02*
G75*
G03*
X5658800Y1761200I-20000J0D01*
G01*
X5658800Y1611200D02*
G75*
G03*
X5658800Y1611200I-20000J0D01*
G01*
X5658800Y1461200D02*
G75*
G03*
X5658800Y1461200I-20000J0D01*
G01*
X5658800Y1311200D02*
G75*
G03*
X5658800Y1311200I-20000J0D01*
G01*
X5658800Y1161200D02*
G75*
G03*
X5658800Y1161200I-20000J0D01*
G01*
X5658800Y1011200D02*
G75*
G03*
X5658800Y1011200I-20000J0D01*
G01*
X5658800Y861200D02*
G75*
G03*
X5658800Y861200I-20000J0D01*
G01*
X5658800Y711200D02*
G75*
G03*
X5658800Y711200I-20000J0D01*
G01*
D14*
X-2768600Y-1983200D02*
X-2768600Y-2033200D01*
X-2793600Y-2008200D02*
X-2743600Y-2008200D01*
X-2578100Y-1995900D02*
X-2578100Y-2045900D01*
X-2603100Y-2020900D02*
X-2553100Y-2020900D01*
X-2286000Y-1919700D02*
X-2286000Y-1969700D01*
X-2311000Y-1944700D02*
X-2261000Y-1944700D01*
X-2147453Y-1209653D02*
X-2147453Y-1259653D01*
X-2172453Y-1234653D02*
X-2122453Y-1234653D01*
X-1943100Y-1005300D02*
X-1943100Y-1055300D01*
X-1968100Y-1030300D02*
X-1918100Y-1030300D01*
X-609600Y-1360900D02*
X-609600Y-1410900D01*
X-634600Y-1385900D02*
X-584600Y-1385900D01*
X114300Y-1335500D02*
X114300Y-1385500D01*
X89300Y-1360500D02*
X139300Y-1360500D01*
X177800Y-1865500D02*
X177800Y-1915500D01*
X152800Y-1890500D02*
X202800Y-1890500D01*
X901700Y-1487900D02*
X901700Y-1537900D01*
X876700Y-1512900D02*
X926700Y-1512900D01*
X952500Y-1945100D02*
X952500Y-1995100D01*
X927500Y-1970100D02*
X977500Y-1970100D01*
X977900Y-1360900D02*
X977900Y-1410900D01*
X952900Y-1385900D02*
X1002900Y-1385900D01*
X1473200Y-1919700D02*
X1473200Y-1969700D01*
X1448200Y-1944700D02*
X1498200Y-1944700D01*
X1651000Y-1411700D02*
X1651000Y-1461700D01*
X1626000Y-1436700D02*
X1676000Y-1436700D01*
X1968500Y-1526000D02*
X1968500Y-1576000D01*
X1943500Y-1551000D02*
X1993500Y-1551000D01*
X2298700Y-1132300D02*
X2298700Y-1182300D01*
X2273700Y-1157300D02*
X2323700Y-1157300D01*
X2870200Y-1932400D02*
X2870200Y-1982400D01*
X2845200Y-1957400D02*
X2895200Y-1957400D01*
X3231961Y-859439D02*
X3231961Y-909439D01*
X3206961Y-884439D02*
X3256961Y-884439D01*
X3708400Y-383000D02*
X3708400Y-433000D01*
X3683400Y-408000D02*
X3733400Y-408000D01*
X3992800Y-1775000D02*
X3992800Y-1825000D01*
X3967800Y-1800000D02*
X4017800Y-1800000D01*
X4145200Y-1775000D02*
X4145200Y-1825000D01*
X4120200Y-1800000D02*
X4170200Y-1800000D01*
X4165600Y-840200D02*
X4165600Y-890200D01*
X4140600Y-865200D02*
X4190600Y-865200D01*
X4297600Y-1775000D02*
X4297600Y-1825000D01*
X4272600Y-1800000D02*
X4322600Y-1800000D01*
X4318000Y-840200D02*
X4318000Y-890200D01*
X4293000Y-865200D02*
X4343000Y-865200D01*
X4421800Y-421100D02*
X4421800Y-471100D01*
X4396800Y-446100D02*
X4446800Y-446100D01*
X4421800Y-637000D02*
X4421800Y-687000D01*
X4396800Y-662000D02*
X4446800Y-662000D01*
X4450000Y-1775000D02*
X4450000Y-1825000D01*
X4425000Y-1800000D02*
X4475000Y-1800000D01*
X4470400Y-840200D02*
X4470400Y-890200D01*
X4445400Y-865200D02*
X4495400Y-865200D01*
X4546600Y-421100D02*
X4546600Y-471100D01*
X4521600Y-446100D02*
X4571600Y-446100D01*
X4559300Y-637000D02*
X4559300Y-687000D01*
X4534300Y-662000D02*
X4584300Y-662000D01*
X4602400Y-1775000D02*
X4602400Y-1825000D01*
X4577400Y-1800000D02*
X4627400Y-1800000D01*
X4622800Y-840200D02*
X4622800Y-890200D01*
X4597800Y-865200D02*
X4647800Y-865200D01*
X4754800Y-1775000D02*
X4754800Y-1825000D01*
X4729800Y-1800000D02*
X4779800Y-1800000D01*
X4775200Y-840200D02*
X4775200Y-890200D01*
X4750200Y-865200D02*
X4800200Y-865200D01*
X4907200Y-1775000D02*
X4907200Y-1825000D01*
X4882200Y-1800000D02*
X4932200Y-1800000D01*
D15*
X-734715Y-1795184D02*
X-734715Y-1738615D01*
X-791284Y-1738615D01*
X-791284Y-1795184D01*
X-734715Y-1795184D01*
X-480715Y-1795184D02*
X-480715Y-1738615D01*
X-537285Y-1738615D01*
X-537285Y-1795184D01*
X-480715Y-1795184D01*
X-226715Y-1795184D02*
X-226715Y-1738615D01*
X-283285Y-1738615D01*
X-283285Y-1795184D01*
X-226715Y-1795184D01*
D16*
X-1905000Y-310000D02*
X-1595000Y0D01*
X-1905000Y310000D01*
X-2215000Y0D01*
X-1905000Y-310000D01*
X0Y-310000D02*
X310000Y0D01*
X0Y310000D01*
X-310000Y0D01*
X0Y-310000D01*
X1905000Y-310000D02*
X2215000Y0D01*
X1905000Y310000D01*
X1595000Y0D01*
X1905000Y-310000D01*
D11*
X-2647381Y-2415476D02*
X-2647381Y-2215476D01*
X-2599762Y-2215476D01*
X-2571190Y-2225000D01*
X-2552143Y-2244048D01*
X-2542619Y-2263095D01*
X-2533095Y-2301190D01*
X-2533095Y-2329762D01*
X-2542619Y-2367857D01*
X-2552143Y-2386905D01*
X-2571190Y-2405952D01*
X-2599762Y-2415476D01*
X-2647381Y-2415476D01*
X-2447381Y-2415476D02*
X-2447381Y-2282143D01*
X-2447381Y-2320238D02*
X-2437857Y-2301190D01*
X-2428333Y-2291667D01*
X-2409286Y-2282143D01*
X-2390238Y-2282143D01*
X-2323571Y-2415476D02*
X-2323571Y-2282143D01*
X-2323571Y-2215476D02*
X-2333095Y-2225000D01*
X-2323571Y-2234524D01*
X-2314048Y-2225000D01*
X-2323571Y-2215476D01*
X-2323571Y-2234524D01*
X-2199762Y-2415476D02*
X-2218810Y-2405952D01*
X-2228333Y-2386905D01*
X-2228333Y-2215476D01*
X-2095000Y-2415476D02*
X-2114048Y-2405952D01*
X-2123571Y-2386905D01*
X-2123571Y-2215476D01*
X-1866428Y-2415476D02*
X-1866428Y-2215476D01*
X-1799762Y-2358333D01*
X-1733095Y-2215476D01*
X-1733095Y-2415476D01*
X-1552143Y-2415476D02*
X-1552143Y-2310714D01*
X-1561667Y-2291667D01*
X-1580714Y-2282143D01*
X-1618809Y-2282143D01*
X-1637857Y-2291667D01*
X-1552143Y-2405952D02*
X-1571190Y-2415476D01*
X-1618809Y-2415476D01*
X-1637857Y-2405952D01*
X-1647381Y-2386905D01*
X-1647381Y-2367857D01*
X-1637857Y-2348810D01*
X-1618809Y-2339286D01*
X-1571190Y-2339286D01*
X-1552143Y-2329762D01*
X-1456905Y-2282143D02*
X-1456905Y-2482143D01*
X-1456905Y-2291667D02*
X-1437857Y-2282143D01*
X-1399762Y-2282143D01*
X-1380714Y-2291667D01*
X-1371190Y-2301190D01*
X-1361667Y-2320238D01*
X-1361667Y-2377381D01*
X-1371190Y-2396429D01*
X-1380714Y-2405952D01*
X-1399762Y-2415476D01*
X-1437857Y-2415476D01*
X-1456905Y-2405952D01*
X-1275952Y-2396429D02*
X-1266429Y-2405952D01*
X-1275952Y-2415476D01*
X-1285476Y-2405952D01*
X-1275952Y-2396429D01*
X-1275952Y-2415476D01*
X-1275952Y-2291667D02*
X-1266429Y-2301190D01*
X-1275952Y-2310714D01*
X-1285476Y-2301190D01*
X-1275952Y-2291667D01*
X-1275952Y-2310714D01*
D12*
X-2935000Y-2730000D02*
X-2905000Y-2760000D01*
X-2905000Y-2730000D02*
X-2935000Y-2760000D01*
D11*
X-2609286Y-2635476D02*
X-2590238Y-2635476D01*
X-2571190Y-2645000D01*
X-2561667Y-2654524D01*
X-2552143Y-2673571D01*
X-2542619Y-2711667D01*
X-2542619Y-2759286D01*
X-2552143Y-2797381D01*
X-2561667Y-2816428D01*
X-2571190Y-2825952D01*
X-2590238Y-2835476D01*
X-2609286Y-2835476D01*
X-2628333Y-2825952D01*
X-2637857Y-2816428D01*
X-2647381Y-2797381D01*
X-2656905Y-2759286D01*
X-2656905Y-2711667D01*
X-2647381Y-2673571D01*
X-2637857Y-2654524D01*
X-2628333Y-2645000D01*
X-2609286Y-2635476D01*
X-2456905Y-2816428D02*
X-2447381Y-2825952D01*
X-2456905Y-2835476D01*
X-2466429Y-2825952D01*
X-2456905Y-2816428D01*
X-2456905Y-2835476D01*
X-2380714Y-2635476D02*
X-2256905Y-2635476D01*
X-2323571Y-2711667D01*
X-2295000Y-2711667D01*
X-2275952Y-2721190D01*
X-2266429Y-2730714D01*
X-2256905Y-2749762D01*
X-2256905Y-2797381D01*
X-2266429Y-2816428D01*
X-2275952Y-2825952D01*
X-2295000Y-2835476D01*
X-2352143Y-2835476D01*
X-2371190Y-2825952D01*
X-2380714Y-2816428D01*
X-2133095Y-2635476D02*
X-2114048Y-2635476D01*
X-2095000Y-2645000D01*
X-2085476Y-2654524D01*
X-2075952Y-2673571D01*
X-2066428Y-2711667D01*
X-2066428Y-2759286D01*
X-2075952Y-2797381D01*
X-2085476Y-2816428D01*
X-2095000Y-2825952D01*
X-2114048Y-2835476D01*
X-2133095Y-2835476D01*
X-2152143Y-2825952D01*
X-2161667Y-2816428D01*
X-2171190Y-2797381D01*
X-2180714Y-2759286D01*
X-2180714Y-2711667D01*
X-2171190Y-2673571D01*
X-2161667Y-2654524D01*
X-2152143Y-2645000D01*
X-2133095Y-2635476D01*
X-1942619Y-2635476D02*
X-1923571Y-2635476D01*
X-1904524Y-2645000D01*
X-1895000Y-2654524D01*
X-1885476Y-2673571D01*
X-1875952Y-2711667D01*
X-1875952Y-2759286D01*
X-1885476Y-2797381D01*
X-1895000Y-2816428D01*
X-1904524Y-2825952D01*
X-1923571Y-2835476D01*
X-1942619Y-2835476D01*
X-1961667Y-2825952D01*
X-1971190Y-2816428D01*
X-1980714Y-2797381D01*
X-1990238Y-2759286D01*
X-1990238Y-2711667D01*
X-1980714Y-2673571D01*
X-1971190Y-2654524D01*
X-1961667Y-2645000D01*
X-1942619Y-2635476D01*
X-1790238Y-2835476D02*
X-1790238Y-2702143D01*
X-1790238Y-2721190D02*
X-1780714Y-2711667D01*
X-1761667Y-2702143D01*
X-1733095Y-2702143D01*
X-1714048Y-2711667D01*
X-1704524Y-2730714D01*
X-1704524Y-2835476D01*
X-1704524Y-2730714D02*
X-1695000Y-2711667D01*
X-1675952Y-2702143D01*
X-1647381Y-2702143D01*
X-1628333Y-2711667D01*
X-1618809Y-2730714D01*
X-1618809Y-2835476D01*
X-1523571Y-2835476D02*
X-1523571Y-2702143D01*
X-1523571Y-2721190D02*
X-1514048Y-2711667D01*
X-1495000Y-2702143D01*
X-1466428Y-2702143D01*
X-1447381Y-2711667D01*
X-1437857Y-2730714D01*
X-1437857Y-2835476D01*
X-1437857Y-2730714D02*
X-1428333Y-2711667D01*
X-1409286Y-2702143D01*
X-1380714Y-2702143D01*
X-1361667Y-2711667D01*
X-1352143Y-2730714D01*
X-1352143Y-2835476D01*
X-961667Y-2625952D02*
X-1133095Y-2883095D01*
X-704524Y-2635476D02*
X-685476Y-2635476D01*
X-666429Y-2645000D01*
X-656905Y-2654524D01*
X-647381Y-2673571D01*
X-637857Y-2711667D01*
X-637857Y-2759286D01*
X-647381Y-2797381D01*
X-656905Y-2816428D01*
X-666429Y-2825952D01*
X-685476Y-2835476D01*
X-704524Y-2835476D01*
X-723571Y-2825952D01*
X-733095Y-2816428D01*
X-742619Y-2797381D01*
X-752143Y-2759286D01*
X-752143Y-2711667D01*
X-742619Y-2673571D01*
X-733095Y-2654524D01*
X-723571Y-2645000D01*
X-704524Y-2635476D01*
X-552143Y-2816428D02*
X-542619Y-2825952D01*
X-552143Y-2835476D01*
X-561667Y-2825952D01*
X-552143Y-2816428D01*
X-552143Y-2835476D01*
X-418809Y-2635476D02*
X-399762Y-2635476D01*
X-380714Y-2645000D01*
X-371190Y-2654524D01*
X-361667Y-2673571D01*
X-352143Y-2711667D01*
X-352143Y-2759286D01*
X-361667Y-2797381D01*
X-371190Y-2816428D01*
X-380714Y-2825952D01*
X-399762Y-2835476D01*
X-418809Y-2835476D01*
X-437857Y-2825952D01*
X-447381Y-2816428D01*
X-456905Y-2797381D01*
X-466428Y-2759286D01*
X-466428Y-2711667D01*
X-456905Y-2673571D01*
X-447381Y-2654524D01*
X-437857Y-2645000D01*
X-418809Y-2635476D01*
X-161667Y-2835476D02*
X-275952Y-2835476D01*
X-218809Y-2835476D02*
X-218809Y-2635476D01*
X-237857Y-2664048D01*
X-256905Y-2683095D01*
X-275952Y-2692619D01*
X28809Y-2835476D02*
X-85476Y-2835476D01*
X-28333Y-2835476D02*
X-28333Y-2635476D01*
X-47381Y-2664048D01*
X-66429Y-2683095D01*
X-85476Y-2692619D01*
X143095Y-2721190D02*
X124048Y-2711667D01*
X114524Y-2702143D01*
X105000Y-2683095D01*
X105000Y-2673571D01*
X114524Y-2654524D01*
X124048Y-2645000D01*
X143095Y-2635476D01*
X181190Y-2635476D01*
X200238Y-2645000D01*
X209762Y-2654524D01*
X219286Y-2673571D01*
X219286Y-2683095D01*
X209762Y-2702143D01*
X200238Y-2711667D01*
X181190Y-2721190D01*
X143095Y-2721190D01*
X124048Y-2730714D01*
X114524Y-2740238D01*
X105000Y-2759286D01*
X105000Y-2797381D01*
X114524Y-2816428D01*
X124048Y-2825952D01*
X143095Y-2835476D01*
X181190Y-2835476D01*
X200238Y-2825952D01*
X209762Y-2816428D01*
X219286Y-2797381D01*
X219286Y-2759286D01*
X209762Y-2740238D01*
X200238Y-2730714D01*
X181190Y-2721190D01*
X295476Y-2635476D02*
X295476Y-2673571D01*
X371667Y-2635476D02*
X371667Y-2673571D01*
X666905Y-2911667D02*
X657381Y-2902143D01*
X638333Y-2873571D01*
X628810Y-2854524D01*
X619286Y-2825952D01*
X609762Y-2778333D01*
X609762Y-2740238D01*
X619286Y-2692619D01*
X628810Y-2664048D01*
X638333Y-2645000D01*
X657381Y-2616429D01*
X666905Y-2606905D01*
X828809Y-2635476D02*
X790714Y-2635476D01*
X771667Y-2645000D01*
X762143Y-2654524D01*
X743095Y-2683095D01*
X733571Y-2721190D01*
X733571Y-2797381D01*
X743095Y-2816428D01*
X752619Y-2825952D01*
X771667Y-2835476D01*
X809762Y-2835476D01*
X828809Y-2825952D01*
X838333Y-2816428D01*
X847857Y-2797381D01*
X847857Y-2749762D01*
X838333Y-2730714D01*
X828809Y-2721190D01*
X809762Y-2711667D01*
X771667Y-2711667D01*
X752619Y-2721190D01*
X743095Y-2730714D01*
X733571Y-2749762D01*
X1085952Y-2835476D02*
X1085952Y-2635476D01*
X1171667Y-2835476D02*
X1171667Y-2730714D01*
X1162143Y-2711667D01*
X1143095Y-2702143D01*
X1114524Y-2702143D01*
X1095476Y-2711667D01*
X1085952Y-2721190D01*
X1295476Y-2835476D02*
X1276429Y-2825952D01*
X1266905Y-2816428D01*
X1257381Y-2797381D01*
X1257381Y-2740238D01*
X1266905Y-2721190D01*
X1276429Y-2711667D01*
X1295476Y-2702143D01*
X1324048Y-2702143D01*
X1343095Y-2711667D01*
X1352619Y-2721190D01*
X1362143Y-2740238D01*
X1362143Y-2797381D01*
X1352619Y-2816428D01*
X1343095Y-2825952D01*
X1324048Y-2835476D01*
X1295476Y-2835476D01*
X1476428Y-2835476D02*
X1457381Y-2825952D01*
X1447857Y-2806905D01*
X1447857Y-2635476D01*
X1628809Y-2825952D02*
X1609762Y-2835476D01*
X1571667Y-2835476D01*
X1552619Y-2825952D01*
X1543095Y-2806905D01*
X1543095Y-2730714D01*
X1552619Y-2711667D01*
X1571667Y-2702143D01*
X1609762Y-2702143D01*
X1628809Y-2711667D01*
X1638333Y-2730714D01*
X1638333Y-2749762D01*
X1543095Y-2768810D01*
X1714524Y-2825952D02*
X1733571Y-2835476D01*
X1771667Y-2835476D01*
X1790714Y-2825952D01*
X1800238Y-2806905D01*
X1800238Y-2797381D01*
X1790714Y-2778333D01*
X1771667Y-2768810D01*
X1743095Y-2768810D01*
X1724048Y-2759286D01*
X1714524Y-2740238D01*
X1714524Y-2730714D01*
X1724048Y-2711667D01*
X1743095Y-2702143D01*
X1771667Y-2702143D01*
X1790714Y-2711667D01*
X1866905Y-2911667D02*
X1876428Y-2902143D01*
X1895476Y-2873571D01*
X1905000Y-2854524D01*
X1914524Y-2825952D01*
X1924048Y-2778333D01*
X1924048Y-2740238D01*
X1914524Y-2692619D01*
X1905000Y-2664048D01*
X1895476Y-2645000D01*
X1876428Y-2616429D01*
X1866905Y-2606905D01*
D13*
X-2905000Y-3009000D02*
G75*
G03*
X-2905000Y-3009000I-20000J0D01*
G01*
D11*
X-2609286Y-2899476D02*
X-2590238Y-2899476D01*
X-2571190Y-2909000D01*
X-2561667Y-2918524D01*
X-2552143Y-2937571D01*
X-2542619Y-2975667D01*
X-2542619Y-3023286D01*
X-2552143Y-3061381D01*
X-2561667Y-3080428D01*
X-2571190Y-3089952D01*
X-2590238Y-3099476D01*
X-2609286Y-3099476D01*
X-2628333Y-3089952D01*
X-2637857Y-3080428D01*
X-2647381Y-3061381D01*
X-2656905Y-3023286D01*
X-2656905Y-2975667D01*
X-2647381Y-2937571D01*
X-2637857Y-2918524D01*
X-2628333Y-2909000D01*
X-2609286Y-2899476D01*
X-2456905Y-3080428D02*
X-2447381Y-3089952D01*
X-2456905Y-3099476D01*
X-2466429Y-3089952D01*
X-2456905Y-3080428D01*
X-2456905Y-3099476D01*
X-2275952Y-2966143D02*
X-2275952Y-3099476D01*
X-2323571Y-2889952D02*
X-2371190Y-3032809D01*
X-2247381Y-3032809D01*
X-2133095Y-2899476D02*
X-2114048Y-2899476D01*
X-2095000Y-2909000D01*
X-2085476Y-2918524D01*
X-2075952Y-2937571D01*
X-2066428Y-2975667D01*
X-2066428Y-3023286D01*
X-2075952Y-3061381D01*
X-2085476Y-3080428D01*
X-2095000Y-3089952D01*
X-2114048Y-3099476D01*
X-2133095Y-3099476D01*
X-2152143Y-3089952D01*
X-2161667Y-3080428D01*
X-2171190Y-3061381D01*
X-2180714Y-3023286D01*
X-2180714Y-2975667D01*
X-2171190Y-2937571D01*
X-2161667Y-2918524D01*
X-2152143Y-2909000D01*
X-2133095Y-2899476D01*
X-1942619Y-2899476D02*
X-1923571Y-2899476D01*
X-1904524Y-2909000D01*
X-1895000Y-2918524D01*
X-1885476Y-2937571D01*
X-1875952Y-2975667D01*
X-1875952Y-3023286D01*
X-1885476Y-3061381D01*
X-1895000Y-3080428D01*
X-1904524Y-3089952D01*
X-1923571Y-3099476D01*
X-1942619Y-3099476D01*
X-1961667Y-3089952D01*
X-1971190Y-3080428D01*
X-1980714Y-3061381D01*
X-1990238Y-3023286D01*
X-1990238Y-2975667D01*
X-1980714Y-2937571D01*
X-1971190Y-2918524D01*
X-1961667Y-2909000D01*
X-1942619Y-2899476D01*
X-1790238Y-3099476D02*
X-1790238Y-2966143D01*
X-1790238Y-2985190D02*
X-1780714Y-2975667D01*
X-1761667Y-2966143D01*
X-1733095Y-2966143D01*
X-1714048Y-2975667D01*
X-1704524Y-2994714D01*
X-1704524Y-3099476D01*
X-1704524Y-2994714D02*
X-1695000Y-2975667D01*
X-1675952Y-2966143D01*
X-1647381Y-2966143D01*
X-1628333Y-2975667D01*
X-1618809Y-2994714D01*
X-1618809Y-3099476D01*
X-1523571Y-3099476D02*
X-1523571Y-2966143D01*
X-1523571Y-2985190D02*
X-1514048Y-2975667D01*
X-1495000Y-2966143D01*
X-1466428Y-2966143D01*
X-1447381Y-2975667D01*
X-1437857Y-2994714D01*
X-1437857Y-3099476D01*
X-1437857Y-2994714D02*
X-1428333Y-2975667D01*
X-1409286Y-2966143D01*
X-1380714Y-2966143D01*
X-1361667Y-2975667D01*
X-1352143Y-2994714D01*
X-1352143Y-3099476D01*
X-961667Y-2889952D02*
X-1133095Y-3147095D01*
X-704524Y-2899476D02*
X-685476Y-2899476D01*
X-666429Y-2909000D01*
X-656905Y-2918524D01*
X-647381Y-2937571D01*
X-637857Y-2975667D01*
X-637857Y-3023286D01*
X-647381Y-3061381D01*
X-656905Y-3080428D01*
X-666429Y-3089952D01*
X-685476Y-3099476D01*
X-704524Y-3099476D01*
X-723571Y-3089952D01*
X-733095Y-3080428D01*
X-742619Y-3061381D01*
X-752143Y-3023286D01*
X-752143Y-2975667D01*
X-742619Y-2937571D01*
X-733095Y-2918524D01*
X-723571Y-2909000D01*
X-704524Y-2899476D01*
X-552143Y-3080428D02*
X-542619Y-3089952D01*
X-552143Y-3099476D01*
X-561667Y-3089952D01*
X-552143Y-3080428D01*
X-552143Y-3099476D01*
X-418809Y-2899476D02*
X-399762Y-2899476D01*
X-380714Y-2909000D01*
X-371190Y-2918524D01*
X-361667Y-2937571D01*
X-352143Y-2975667D01*
X-352143Y-3023286D01*
X-361667Y-3061381D01*
X-371190Y-3080428D01*
X-380714Y-3089952D01*
X-399762Y-3099476D01*
X-418809Y-3099476D01*
X-437857Y-3089952D01*
X-447381Y-3080428D01*
X-456905Y-3061381D01*
X-466428Y-3023286D01*
X-466428Y-2975667D01*
X-456905Y-2937571D01*
X-447381Y-2918524D01*
X-437857Y-2909000D01*
X-418809Y-2899476D01*
X-161667Y-3099476D02*
X-275952Y-3099476D01*
X-218809Y-3099476D02*
X-218809Y-2899476D01*
X-237857Y-2928048D01*
X-256905Y-2947095D01*
X-275952Y-2956619D01*
X19286Y-2899476D02*
X-75952Y-2899476D01*
X-85476Y-2994714D01*
X-75952Y-2985190D01*
X-56905Y-2975667D01*
X-9286Y-2975667D01*
X9762Y-2985190D01*
X19286Y-2994714D01*
X28809Y-3013762D01*
X28809Y-3061381D01*
X19286Y-3080428D01*
X9762Y-3089952D01*
X-9286Y-3099476D01*
X-56905Y-3099476D01*
X-75952Y-3089952D01*
X-85476Y-3080428D01*
X95476Y-2899476D02*
X228809Y-2899476D01*
X143095Y-3099476D01*
X295476Y-2899476D02*
X295476Y-2937571D01*
X371667Y-2899476D02*
X371667Y-2937571D01*
X666905Y-3175667D02*
X657381Y-3166143D01*
X638333Y-3137571D01*
X628810Y-3118524D01*
X619286Y-3089952D01*
X609762Y-3042333D01*
X609762Y-3004238D01*
X619286Y-2956619D01*
X628810Y-2928048D01*
X638333Y-2909000D01*
X657381Y-2880428D01*
X666905Y-2870905D01*
X724048Y-2899476D02*
X847857Y-2899476D01*
X781190Y-2975667D01*
X809762Y-2975667D01*
X828809Y-2985190D01*
X838333Y-2994714D01*
X847857Y-3013762D01*
X847857Y-3061381D01*
X838333Y-3080428D01*
X828809Y-3089952D01*
X809762Y-3099476D01*
X752619Y-3099476D01*
X733571Y-3089952D01*
X724048Y-3080428D01*
X943095Y-3099476D02*
X981190Y-3099476D01*
X1000238Y-3089952D01*
X1009762Y-3080428D01*
X1028809Y-3051857D01*
X1038333Y-3013762D01*
X1038333Y-2937571D01*
X1028809Y-2918524D01*
X1019286Y-2909000D01*
X1000238Y-2899476D01*
X962143Y-2899476D01*
X943095Y-2909000D01*
X933571Y-2918524D01*
X924048Y-2937571D01*
X924048Y-2985190D01*
X933571Y-3004238D01*
X943095Y-3013762D01*
X962143Y-3023286D01*
X1000238Y-3023286D01*
X1019286Y-3013762D01*
X1028809Y-3004238D01*
X1038333Y-2985190D01*
X1209762Y-2899476D02*
X1171667Y-2899476D01*
X1152619Y-2909000D01*
X1143095Y-2918524D01*
X1124048Y-2947095D01*
X1114524Y-2985190D01*
X1114524Y-3061381D01*
X1124048Y-3080428D01*
X1133571Y-3089952D01*
X1152619Y-3099476D01*
X1190714Y-3099476D01*
X1209762Y-3089952D01*
X1219286Y-3080428D01*
X1228810Y-3061381D01*
X1228810Y-3013762D01*
X1219286Y-2994714D01*
X1209762Y-2985190D01*
X1190714Y-2975667D01*
X1152619Y-2975667D01*
X1133571Y-2985190D01*
X1124048Y-2994714D01*
X1114524Y-3013762D01*
X1466905Y-3099476D02*
X1466905Y-2899476D01*
X1552619Y-3099476D02*
X1552619Y-2994714D01*
X1543095Y-2975667D01*
X1524048Y-2966143D01*
X1495476Y-2966143D01*
X1476428Y-2975667D01*
X1466905Y-2985190D01*
X1676428Y-3099476D02*
X1657381Y-3089952D01*
X1647857Y-3080428D01*
X1638333Y-3061381D01*
X1638333Y-3004238D01*
X1647857Y-2985190D01*
X1657381Y-2975667D01*
X1676428Y-2966143D01*
X1705000Y-2966143D01*
X1724048Y-2975667D01*
X1733571Y-2985190D01*
X1743095Y-3004238D01*
X1743095Y-3061381D01*
X1733571Y-3080428D01*
X1724048Y-3089952D01*
X1705000Y-3099476D01*
X1676428Y-3099476D01*
X1857381Y-3099476D02*
X1838333Y-3089952D01*
X1828809Y-3070905D01*
X1828809Y-2899476D01*
X2009762Y-3089952D02*
X1990714Y-3099476D01*
X1952619Y-3099476D01*
X1933571Y-3089952D01*
X1924048Y-3070905D01*
X1924048Y-2994714D01*
X1933571Y-2975667D01*
X1952619Y-2966143D01*
X1990714Y-2966143D01*
X2009762Y-2975667D01*
X2019286Y-2994714D01*
X2019286Y-3013762D01*
X1924048Y-3032809D01*
X2095476Y-3089952D02*
X2114524Y-3099476D01*
X2152619Y-3099476D01*
X2171667Y-3089952D01*
X2181190Y-3070905D01*
X2181190Y-3061381D01*
X2171667Y-3042333D01*
X2152619Y-3032809D01*
X2124048Y-3032809D01*
X2105000Y-3023286D01*
X2095476Y-3004238D01*
X2095476Y-2994714D01*
X2105000Y-2975667D01*
X2124048Y-2966143D01*
X2152619Y-2966143D01*
X2171667Y-2975667D01*
X2247857Y-3175667D02*
X2257381Y-3166143D01*
X2276429Y-3137571D01*
X2285952Y-3118524D01*
X2295476Y-3089952D01*
X2305000Y-3042333D01*
X2305000Y-3004238D01*
X2295476Y-2956619D01*
X2285952Y-2928048D01*
X2276429Y-2909000D01*
X2257381Y-2880428D01*
X2247857Y-2870905D01*
D14*
X-2930000Y-3248000D02*
X-2930000Y-3298000D01*
X-2955000Y-3273000D02*
X-2905000Y-3273000D01*
D11*
X-2609286Y-3163476D02*
X-2590238Y-3163476D01*
X-2571190Y-3173000D01*
X-2561667Y-3182524D01*
X-2552143Y-3201571D01*
X-2542619Y-3239667D01*
X-2542619Y-3287286D01*
X-2552143Y-3325381D01*
X-2561667Y-3344428D01*
X-2571190Y-3353952D01*
X-2590238Y-3363476D01*
X-2609286Y-3363476D01*
X-2628333Y-3353952D01*
X-2637857Y-3344428D01*
X-2647381Y-3325381D01*
X-2656905Y-3287286D01*
X-2656905Y-3239667D01*
X-2647381Y-3201571D01*
X-2637857Y-3182524D01*
X-2628333Y-3173000D01*
X-2609286Y-3163476D01*
X-2456905Y-3344428D02*
X-2447381Y-3353952D01*
X-2456905Y-3363476D01*
X-2466429Y-3353952D01*
X-2456905Y-3344428D01*
X-2456905Y-3363476D01*
X-2266429Y-3163476D02*
X-2361667Y-3163476D01*
X-2371190Y-3258714D01*
X-2361667Y-3249190D01*
X-2342619Y-3239667D01*
X-2295000Y-3239667D01*
X-2275952Y-3249190D01*
X-2266429Y-3258714D01*
X-2256905Y-3277762D01*
X-2256905Y-3325381D01*
X-2266429Y-3344428D01*
X-2275952Y-3353952D01*
X-2295000Y-3363476D01*
X-2342619Y-3363476D01*
X-2361667Y-3353952D01*
X-2371190Y-3344428D01*
X-2133095Y-3163476D02*
X-2114048Y-3163476D01*
X-2095000Y-3173000D01*
X-2085476Y-3182524D01*
X-2075952Y-3201571D01*
X-2066428Y-3239667D01*
X-2066428Y-3287286D01*
X-2075952Y-3325381D01*
X-2085476Y-3344428D01*
X-2095000Y-3353952D01*
X-2114048Y-3363476D01*
X-2133095Y-3363476D01*
X-2152143Y-3353952D01*
X-2161667Y-3344428D01*
X-2171190Y-3325381D01*
X-2180714Y-3287286D01*
X-2180714Y-3239667D01*
X-2171190Y-3201571D01*
X-2161667Y-3182524D01*
X-2152143Y-3173000D01*
X-2133095Y-3163476D01*
X-1942619Y-3163476D02*
X-1923571Y-3163476D01*
X-1904524Y-3173000D01*
X-1895000Y-3182524D01*
X-1885476Y-3201571D01*
X-1875952Y-3239667D01*
X-1875952Y-3287286D01*
X-1885476Y-3325381D01*
X-1895000Y-3344428D01*
X-1904524Y-3353952D01*
X-1923571Y-3363476D01*
X-1942619Y-3363476D01*
X-1961667Y-3353952D01*
X-1971190Y-3344428D01*
X-1980714Y-3325381D01*
X-1990238Y-3287286D01*
X-1990238Y-3239667D01*
X-1980714Y-3201571D01*
X-1971190Y-3182524D01*
X-1961667Y-3173000D01*
X-1942619Y-3163476D01*
X-1790238Y-3363476D02*
X-1790238Y-3230143D01*
X-1790238Y-3249190D02*
X-1780714Y-3239667D01*
X-1761667Y-3230143D01*
X-1733095Y-3230143D01*
X-1714048Y-3239667D01*
X-1704524Y-3258714D01*
X-1704524Y-3363476D01*
X-1704524Y-3258714D02*
X-1695000Y-3239667D01*
X-1675952Y-3230143D01*
X-1647381Y-3230143D01*
X-1628333Y-3239667D01*
X-1618809Y-3258714D01*
X-1618809Y-3363476D01*
X-1523571Y-3363476D02*
X-1523571Y-3230143D01*
X-1523571Y-3249190D02*
X-1514048Y-3239667D01*
X-1495000Y-3230143D01*
X-1466428Y-3230143D01*
X-1447381Y-3239667D01*
X-1437857Y-3258714D01*
X-1437857Y-3363476D01*
X-1437857Y-3258714D02*
X-1428333Y-3239667D01*
X-1409286Y-3230143D01*
X-1380714Y-3230143D01*
X-1361667Y-3239667D01*
X-1352143Y-3258714D01*
X-1352143Y-3363476D01*
X-961667Y-3153952D02*
X-1133095Y-3411095D01*
X-704524Y-3163476D02*
X-685476Y-3163476D01*
X-666429Y-3173000D01*
X-656905Y-3182524D01*
X-647381Y-3201571D01*
X-637857Y-3239667D01*
X-637857Y-3287286D01*
X-647381Y-3325381D01*
X-656905Y-3344428D01*
X-666429Y-3353952D01*
X-685476Y-3363476D01*
X-704524Y-3363476D01*
X-723571Y-3353952D01*
X-733095Y-3344428D01*
X-742619Y-3325381D01*
X-752143Y-3287286D01*
X-752143Y-3239667D01*
X-742619Y-3201571D01*
X-733095Y-3182524D01*
X-723571Y-3173000D01*
X-704524Y-3163476D01*
X-552143Y-3344428D02*
X-542619Y-3353952D01*
X-552143Y-3363476D01*
X-561667Y-3353952D01*
X-552143Y-3344428D01*
X-552143Y-3363476D01*
X-418809Y-3163476D02*
X-399762Y-3163476D01*
X-380714Y-3173000D01*
X-371190Y-3182524D01*
X-361667Y-3201571D01*
X-352143Y-3239667D01*
X-352143Y-3287286D01*
X-361667Y-3325381D01*
X-371190Y-3344428D01*
X-380714Y-3353952D01*
X-399762Y-3363476D01*
X-418809Y-3363476D01*
X-437857Y-3353952D01*
X-447381Y-3344428D01*
X-456905Y-3325381D01*
X-466428Y-3287286D01*
X-466428Y-3239667D01*
X-456905Y-3201571D01*
X-447381Y-3182524D01*
X-437857Y-3173000D01*
X-418809Y-3163476D01*
X-161667Y-3363476D02*
X-275952Y-3363476D01*
X-218809Y-3363476D02*
X-218809Y-3163476D01*
X-237857Y-3192048D01*
X-256905Y-3211095D01*
X-275952Y-3220619D01*
X-66429Y-3363476D02*
X-28333Y-3363476D01*
X-9286Y-3353952D01*
X238Y-3344428D01*
X19286Y-3315857D01*
X28809Y-3277762D01*
X28809Y-3201571D01*
X19286Y-3182524D01*
X9762Y-3173000D01*
X-9286Y-3163476D01*
X-47381Y-3163476D01*
X-66429Y-3173000D01*
X-75952Y-3182524D01*
X-85476Y-3201571D01*
X-85476Y-3249190D01*
X-75952Y-3268238D01*
X-66429Y-3277762D01*
X-47381Y-3287286D01*
X-9286Y-3287286D01*
X9762Y-3277762D01*
X19286Y-3268238D01*
X28809Y-3249190D01*
X95476Y-3163476D02*
X228809Y-3163476D01*
X143095Y-3363476D01*
X295476Y-3163476D02*
X295476Y-3201571D01*
X371667Y-3163476D02*
X371667Y-3201571D01*
X666905Y-3439667D02*
X657381Y-3430143D01*
X638333Y-3401571D01*
X628810Y-3382524D01*
X619286Y-3353952D01*
X609762Y-3306333D01*
X609762Y-3268238D01*
X619286Y-3220619D01*
X628810Y-3192048D01*
X638333Y-3173000D01*
X657381Y-3144428D01*
X666905Y-3134905D01*
X724048Y-3163476D02*
X847857Y-3163476D01*
X781190Y-3239667D01*
X809762Y-3239667D01*
X828809Y-3249190D01*
X838333Y-3258714D01*
X847857Y-3277762D01*
X847857Y-3325381D01*
X838333Y-3344428D01*
X828809Y-3353952D01*
X809762Y-3363476D01*
X752619Y-3363476D01*
X733571Y-3353952D01*
X724048Y-3344428D01*
X1019286Y-3230143D02*
X1019286Y-3363476D01*
X971667Y-3153952D02*
X924048Y-3296809D01*
X1047857Y-3296809D01*
X1276429Y-3363476D02*
X1276429Y-3163476D01*
X1362143Y-3363476D02*
X1362143Y-3258714D01*
X1352619Y-3239667D01*
X1333571Y-3230143D01*
X1305000Y-3230143D01*
X1285952Y-3239667D01*
X1276429Y-3249190D01*
X1485952Y-3363476D02*
X1466905Y-3353952D01*
X1457381Y-3344428D01*
X1447857Y-3325381D01*
X1447857Y-3268238D01*
X1457381Y-3249190D01*
X1466905Y-3239667D01*
X1485952Y-3230143D01*
X1514524Y-3230143D01*
X1533571Y-3239667D01*
X1543095Y-3249190D01*
X1552619Y-3268238D01*
X1552619Y-3325381D01*
X1543095Y-3344428D01*
X1533571Y-3353952D01*
X1514524Y-3363476D01*
X1485952Y-3363476D01*
X1666905Y-3363476D02*
X1647857Y-3353952D01*
X1638333Y-3334905D01*
X1638333Y-3163476D01*
X1819286Y-3353952D02*
X1800238Y-3363476D01*
X1762143Y-3363476D01*
X1743095Y-3353952D01*
X1733571Y-3334905D01*
X1733571Y-3258714D01*
X1743095Y-3239667D01*
X1762143Y-3230143D01*
X1800238Y-3230143D01*
X1819286Y-3239667D01*
X1828809Y-3258714D01*
X1828809Y-3277762D01*
X1733571Y-3296809D01*
X1905000Y-3353952D02*
X1924048Y-3363476D01*
X1962143Y-3363476D01*
X1981190Y-3353952D01*
X1990714Y-3334905D01*
X1990714Y-3325381D01*
X1981190Y-3306333D01*
X1962143Y-3296809D01*
X1933571Y-3296809D01*
X1914524Y-3287286D01*
X1905000Y-3268238D01*
X1905000Y-3258714D01*
X1914524Y-3239667D01*
X1933571Y-3230143D01*
X1962143Y-3230143D01*
X1981190Y-3239667D01*
X2057381Y-3439667D02*
X2066905Y-3430143D01*
X2085952Y-3401571D01*
X2095476Y-3382524D01*
X2105000Y-3353952D01*
X2114524Y-3306333D01*
X2114524Y-3268238D01*
X2105000Y-3220619D01*
X2095476Y-3192048D01*
X2085952Y-3173000D01*
X2066905Y-3144428D01*
X2057381Y-3134905D01*
D15*
X-2916715Y-3565284D02*
X-2916715Y-3508715D01*
X-2973284Y-3508715D01*
X-2973284Y-3565284D01*
X-2916715Y-3565284D01*
D11*
X-2609286Y-3427476D02*
X-2590238Y-3427476D01*
X-2571190Y-3437000D01*
X-2561667Y-3446524D01*
X-2552143Y-3465571D01*
X-2542619Y-3503667D01*
X-2542619Y-3551286D01*
X-2552143Y-3589381D01*
X-2561667Y-3608428D01*
X-2571190Y-3617952D01*
X-2590238Y-3627476D01*
X-2609286Y-3627476D01*
X-2628333Y-3617952D01*
X-2637857Y-3608428D01*
X-2647381Y-3589381D01*
X-2656905Y-3551286D01*
X-2656905Y-3503667D01*
X-2647381Y-3465571D01*
X-2637857Y-3446524D01*
X-2628333Y-3437000D01*
X-2609286Y-3427476D01*
X-2456905Y-3608428D02*
X-2447381Y-3617952D01*
X-2456905Y-3627476D01*
X-2466429Y-3617952D01*
X-2456905Y-3608428D01*
X-2456905Y-3627476D01*
X-2333095Y-3513190D02*
X-2352143Y-3503667D01*
X-2361667Y-3494143D01*
X-2371190Y-3475095D01*
X-2371190Y-3465571D01*
X-2361667Y-3446524D01*
X-2352143Y-3437000D01*
X-2333095Y-3427476D01*
X-2295000Y-3427476D01*
X-2275952Y-3437000D01*
X-2266429Y-3446524D01*
X-2256905Y-3465571D01*
X-2256905Y-3475095D01*
X-2266429Y-3494143D01*
X-2275952Y-3503667D01*
X-2295000Y-3513190D01*
X-2333095Y-3513190D01*
X-2352143Y-3522714D01*
X-2361667Y-3532238D01*
X-2371190Y-3551286D01*
X-2371190Y-3589381D01*
X-2361667Y-3608428D01*
X-2352143Y-3617952D01*
X-2333095Y-3627476D01*
X-2295000Y-3627476D01*
X-2275952Y-3617952D01*
X-2266429Y-3608428D01*
X-2256905Y-3589381D01*
X-2256905Y-3551286D01*
X-2266429Y-3532238D01*
X-2275952Y-3522714D01*
X-2295000Y-3513190D01*
X-2133095Y-3427476D02*
X-2114048Y-3427476D01*
X-2095000Y-3437000D01*
X-2085476Y-3446524D01*
X-2075952Y-3465571D01*
X-2066428Y-3503667D01*
X-2066428Y-3551286D01*
X-2075952Y-3589381D01*
X-2085476Y-3608428D01*
X-2095000Y-3617952D01*
X-2114048Y-3627476D01*
X-2133095Y-3627476D01*
X-2152143Y-3617952D01*
X-2161667Y-3608428D01*
X-2171190Y-3589381D01*
X-2180714Y-3551286D01*
X-2180714Y-3503667D01*
X-2171190Y-3465571D01*
X-2161667Y-3446524D01*
X-2152143Y-3437000D01*
X-2133095Y-3427476D01*
X-1942619Y-3427476D02*
X-1923571Y-3427476D01*
X-1904524Y-3437000D01*
X-1895000Y-3446524D01*
X-1885476Y-3465571D01*
X-1875952Y-3503667D01*
X-1875952Y-3551286D01*
X-1885476Y-3589381D01*
X-1895000Y-3608428D01*
X-1904524Y-3617952D01*
X-1923571Y-3627476D01*
X-1942619Y-3627476D01*
X-1961667Y-3617952D01*
X-1971190Y-3608428D01*
X-1980714Y-3589381D01*
X-1990238Y-3551286D01*
X-1990238Y-3503667D01*
X-1980714Y-3465571D01*
X-1971190Y-3446524D01*
X-1961667Y-3437000D01*
X-1942619Y-3427476D01*
X-1790238Y-3627476D02*
X-1790238Y-3494143D01*
X-1790238Y-3513190D02*
X-1780714Y-3503667D01*
X-1761667Y-3494143D01*
X-1733095Y-3494143D01*
X-1714048Y-3503667D01*
X-1704524Y-3522714D01*
X-1704524Y-3627476D01*
X-1704524Y-3522714D02*
X-1695000Y-3503667D01*
X-1675952Y-3494143D01*
X-1647381Y-3494143D01*
X-1628333Y-3503667D01*
X-1618809Y-3522714D01*
X-1618809Y-3627476D01*
X-1523571Y-3627476D02*
X-1523571Y-3494143D01*
X-1523571Y-3513190D02*
X-1514048Y-3503667D01*
X-1495000Y-3494143D01*
X-1466428Y-3494143D01*
X-1447381Y-3503667D01*
X-1437857Y-3522714D01*
X-1437857Y-3627476D01*
X-1437857Y-3522714D02*
X-1428333Y-3503667D01*
X-1409286Y-3494143D01*
X-1380714Y-3494143D01*
X-1361667Y-3503667D01*
X-1352143Y-3522714D01*
X-1352143Y-3627476D01*
X-961667Y-3417952D02*
X-1133095Y-3675095D01*
X-704524Y-3427476D02*
X-685476Y-3427476D01*
X-666429Y-3437000D01*
X-656905Y-3446524D01*
X-647381Y-3465571D01*
X-637857Y-3503667D01*
X-637857Y-3551286D01*
X-647381Y-3589381D01*
X-656905Y-3608428D01*
X-666429Y-3617952D01*
X-685476Y-3627476D01*
X-704524Y-3627476D01*
X-723571Y-3617952D01*
X-733095Y-3608428D01*
X-742619Y-3589381D01*
X-752143Y-3551286D01*
X-752143Y-3503667D01*
X-742619Y-3465571D01*
X-733095Y-3446524D01*
X-723571Y-3437000D01*
X-704524Y-3427476D01*
X-552143Y-3608428D02*
X-542619Y-3617952D01*
X-552143Y-3627476D01*
X-561667Y-3617952D01*
X-552143Y-3608428D01*
X-552143Y-3627476D01*
X-418809Y-3427476D02*
X-399762Y-3427476D01*
X-380714Y-3437000D01*
X-371190Y-3446524D01*
X-361667Y-3465571D01*
X-352143Y-3503667D01*
X-352143Y-3551286D01*
X-361667Y-3589381D01*
X-371190Y-3608428D01*
X-380714Y-3617952D01*
X-399762Y-3627476D01*
X-418809Y-3627476D01*
X-437857Y-3617952D01*
X-447381Y-3608428D01*
X-456905Y-3589381D01*
X-466428Y-3551286D01*
X-466428Y-3503667D01*
X-456905Y-3465571D01*
X-447381Y-3446524D01*
X-437857Y-3437000D01*
X-418809Y-3427476D01*
X-285476Y-3427476D02*
X-161667Y-3427476D01*
X-228333Y-3503667D01*
X-199762Y-3503667D01*
X-180714Y-3513190D01*
X-171190Y-3522714D01*
X-161667Y-3541762D01*
X-161667Y-3589381D01*
X-171190Y-3608428D01*
X-180714Y-3617952D01*
X-199762Y-3627476D01*
X-256905Y-3627476D01*
X-275952Y-3617952D01*
X-285476Y-3608428D01*
X28809Y-3627476D02*
X-85476Y-3627476D01*
X-28333Y-3627476D02*
X-28333Y-3427476D01*
X-47381Y-3456048D01*
X-66429Y-3475095D01*
X-85476Y-3484619D01*
X209762Y-3427476D02*
X114524Y-3427476D01*
X105000Y-3522714D01*
X114524Y-3513190D01*
X133571Y-3503667D01*
X181190Y-3503667D01*
X200238Y-3513190D01*
X209762Y-3522714D01*
X219286Y-3541762D01*
X219286Y-3589381D01*
X209762Y-3608428D01*
X200238Y-3617952D01*
X181190Y-3627476D01*
X133571Y-3627476D01*
X114524Y-3617952D01*
X105000Y-3608428D01*
X295476Y-3427476D02*
X295476Y-3465571D01*
X371667Y-3427476D02*
X371667Y-3465571D01*
X666905Y-3703667D02*
X657381Y-3694143D01*
X638333Y-3665571D01*
X628810Y-3646524D01*
X619286Y-3617952D01*
X609762Y-3570333D01*
X609762Y-3532238D01*
X619286Y-3484619D01*
X628810Y-3456048D01*
X638333Y-3437000D01*
X657381Y-3408428D01*
X666905Y-3398905D01*
X724048Y-3427476D02*
X847857Y-3427476D01*
X781190Y-3503667D01*
X809762Y-3503667D01*
X828809Y-3513190D01*
X838333Y-3522714D01*
X847857Y-3541762D01*
X847857Y-3589381D01*
X838333Y-3608428D01*
X828809Y-3617952D01*
X809762Y-3627476D01*
X752619Y-3627476D01*
X733571Y-3617952D01*
X724048Y-3608428D01*
X1085952Y-3627476D02*
X1085952Y-3427476D01*
X1171667Y-3627476D02*
X1171667Y-3522714D01*
X1162143Y-3503667D01*
X1143095Y-3494143D01*
X1114524Y-3494143D01*
X1095476Y-3503667D01*
X1085952Y-3513190D01*
X1295476Y-3627476D02*
X1276429Y-3617952D01*
X1266905Y-3608428D01*
X1257381Y-3589381D01*
X1257381Y-3532238D01*
X1266905Y-3513190D01*
X1276429Y-3503667D01*
X1295476Y-3494143D01*
X1324048Y-3494143D01*
X1343095Y-3503667D01*
X1352619Y-3513190D01*
X1362143Y-3532238D01*
X1362143Y-3589381D01*
X1352619Y-3608428D01*
X1343095Y-3617952D01*
X1324048Y-3627476D01*
X1295476Y-3627476D01*
X1476428Y-3627476D02*
X1457381Y-3617952D01*
X1447857Y-3598905D01*
X1447857Y-3427476D01*
X1628809Y-3617952D02*
X1609762Y-3627476D01*
X1571667Y-3627476D01*
X1552619Y-3617952D01*
X1543095Y-3598905D01*
X1543095Y-3522714D01*
X1552619Y-3503667D01*
X1571667Y-3494143D01*
X1609762Y-3494143D01*
X1628809Y-3503667D01*
X1638333Y-3522714D01*
X1638333Y-3541762D01*
X1543095Y-3560809D01*
X1714524Y-3617952D02*
X1733571Y-3627476D01*
X1771667Y-3627476D01*
X1790714Y-3617952D01*
X1800238Y-3598905D01*
X1800238Y-3589381D01*
X1790714Y-3570333D01*
X1771667Y-3560809D01*
X1743095Y-3560809D01*
X1724048Y-3551286D01*
X1714524Y-3532238D01*
X1714524Y-3522714D01*
X1724048Y-3503667D01*
X1743095Y-3494143D01*
X1771667Y-3494143D01*
X1790714Y-3503667D01*
X1866905Y-3703667D02*
X1876428Y-3694143D01*
X1895476Y-3665571D01*
X1905000Y-3646524D01*
X1914524Y-3617952D01*
X1924048Y-3570333D01*
X1924048Y-3532238D01*
X1914524Y-3484619D01*
X1905000Y-3456048D01*
X1895476Y-3437000D01*
X1876428Y-3408428D01*
X1866905Y-3398905D01*
X-3005000Y-3901000D02*
X-2905000Y-3801000D01*
X-3005000Y-3701000D01*
X-3105000Y-3801000D01*
X-3005000Y-3901000D01*
X-2561667Y-3691476D02*
X-2599762Y-3691476D01*
X-2618810Y-3701000D01*
X-2628333Y-3710524D01*
X-2647381Y-3739095D01*
X-2656905Y-3777190D01*
X-2656905Y-3853381D01*
X-2647381Y-3872428D01*
X-2637857Y-3881952D01*
X-2618810Y-3891476D01*
X-2580714Y-3891476D01*
X-2561667Y-3881952D01*
X-2552143Y-3872428D01*
X-2542619Y-3853381D01*
X-2542619Y-3805762D01*
X-2552143Y-3786714D01*
X-2561667Y-3777190D01*
X-2580714Y-3767667D01*
X-2618810Y-3767667D01*
X-2637857Y-3777190D01*
X-2647381Y-3786714D01*
X-2656905Y-3805762D01*
X-2456905Y-3872428D02*
X-2447381Y-3881952D01*
X-2456905Y-3891476D01*
X-2466429Y-3881952D01*
X-2456905Y-3872428D01*
X-2456905Y-3891476D01*
X-2371190Y-3710524D02*
X-2361667Y-3701000D01*
X-2342619Y-3691476D01*
X-2295000Y-3691476D01*
X-2275952Y-3701000D01*
X-2266429Y-3710524D01*
X-2256905Y-3729571D01*
X-2256905Y-3748619D01*
X-2266429Y-3777190D01*
X-2380714Y-3891476D01*
X-2256905Y-3891476D01*
X-2133095Y-3691476D02*
X-2114048Y-3691476D01*
X-2095000Y-3701000D01*
X-2085476Y-3710524D01*
X-2075952Y-3729571D01*
X-2066428Y-3767667D01*
X-2066428Y-3815286D01*
X-2075952Y-3853381D01*
X-2085476Y-3872428D01*
X-2095000Y-3881952D01*
X-2114048Y-3891476D01*
X-2133095Y-3891476D01*
X-2152143Y-3881952D01*
X-2161667Y-3872428D01*
X-2171190Y-3853381D01*
X-2180714Y-3815286D01*
X-2180714Y-3767667D01*
X-2171190Y-3729571D01*
X-2161667Y-3710524D01*
X-2152143Y-3701000D01*
X-2133095Y-3691476D01*
X-1942619Y-3691476D02*
X-1923571Y-3691476D01*
X-1904524Y-3701000D01*
X-1895000Y-3710524D01*
X-1885476Y-3729571D01*
X-1875952Y-3767667D01*
X-1875952Y-3815286D01*
X-1885476Y-3853381D01*
X-1895000Y-3872428D01*
X-1904524Y-3881952D01*
X-1923571Y-3891476D01*
X-1942619Y-3891476D01*
X-1961667Y-3881952D01*
X-1971190Y-3872428D01*
X-1980714Y-3853381D01*
X-1990238Y-3815286D01*
X-1990238Y-3767667D01*
X-1980714Y-3729571D01*
X-1971190Y-3710524D01*
X-1961667Y-3701000D01*
X-1942619Y-3691476D01*
X-1790238Y-3891476D02*
X-1790238Y-3758143D01*
X-1790238Y-3777190D02*
X-1780714Y-3767667D01*
X-1761667Y-3758143D01*
X-1733095Y-3758143D01*
X-1714048Y-3767667D01*
X-1704524Y-3786714D01*
X-1704524Y-3891476D01*
X-1704524Y-3786714D02*
X-1695000Y-3767667D01*
X-1675952Y-3758143D01*
X-1647381Y-3758143D01*
X-1628333Y-3767667D01*
X-1618809Y-3786714D01*
X-1618809Y-3891476D01*
X-1523571Y-3891476D02*
X-1523571Y-3758143D01*
X-1523571Y-3777190D02*
X-1514048Y-3767667D01*
X-1495000Y-3758143D01*
X-1466428Y-3758143D01*
X-1447381Y-3767667D01*
X-1437857Y-3786714D01*
X-1437857Y-3891476D01*
X-1437857Y-3786714D02*
X-1428333Y-3767667D01*
X-1409286Y-3758143D01*
X-1380714Y-3758143D01*
X-1361667Y-3767667D01*
X-1352143Y-3786714D01*
X-1352143Y-3891476D01*
X-961667Y-3681952D02*
X-1133095Y-3939095D01*
X-704524Y-3691476D02*
X-685476Y-3691476D01*
X-666429Y-3701000D01*
X-656905Y-3710524D01*
X-647381Y-3729571D01*
X-637857Y-3767667D01*
X-637857Y-3815286D01*
X-647381Y-3853381D01*
X-656905Y-3872428D01*
X-666429Y-3881952D01*
X-685476Y-3891476D01*
X-704524Y-3891476D01*
X-723571Y-3881952D01*
X-733095Y-3872428D01*
X-742619Y-3853381D01*
X-752143Y-3815286D01*
X-752143Y-3767667D01*
X-742619Y-3729571D01*
X-733095Y-3710524D01*
X-723571Y-3701000D01*
X-704524Y-3691476D01*
X-552143Y-3872428D02*
X-542619Y-3881952D01*
X-552143Y-3891476D01*
X-561667Y-3881952D01*
X-552143Y-3872428D01*
X-552143Y-3891476D01*
X-466428Y-3710524D02*
X-456905Y-3701000D01*
X-437857Y-3691476D01*
X-390238Y-3691476D01*
X-371190Y-3701000D01*
X-361667Y-3710524D01*
X-352143Y-3729571D01*
X-352143Y-3748619D01*
X-361667Y-3777190D01*
X-475952Y-3891476D01*
X-352143Y-3891476D01*
X-180714Y-3758143D02*
X-180714Y-3891476D01*
X-228333Y-3681952D02*
X-275952Y-3824809D01*
X-152143Y-3824809D01*
X9762Y-3758143D02*
X9762Y-3891476D01*
X-37857Y-3681952D02*
X-85476Y-3824809D01*
X38333Y-3824809D01*
X219286Y-3891476D02*
X105000Y-3891476D01*
X162143Y-3891476D02*
X162143Y-3691476D01*
X143095Y-3720048D01*
X124048Y-3739095D01*
X105000Y-3748619D01*
X295476Y-3691476D02*
X295476Y-3729571D01*
X371667Y-3691476D02*
X371667Y-3729571D01*
X666905Y-3967667D02*
X657381Y-3958143D01*
X638333Y-3929571D01*
X628810Y-3910524D01*
X619286Y-3881952D01*
X609762Y-3834333D01*
X609762Y-3796238D01*
X619286Y-3748619D01*
X628810Y-3720048D01*
X638333Y-3701000D01*
X657381Y-3672428D01*
X666905Y-3662905D01*
X724048Y-3691476D02*
X847857Y-3691476D01*
X781190Y-3767667D01*
X809762Y-3767667D01*
X828809Y-3777190D01*
X838333Y-3786714D01*
X847857Y-3805762D01*
X847857Y-3853381D01*
X838333Y-3872428D01*
X828809Y-3881952D01*
X809762Y-3891476D01*
X752619Y-3891476D01*
X733571Y-3881952D01*
X724048Y-3872428D01*
X1085952Y-3891476D02*
X1085952Y-3691476D01*
X1171667Y-3891476D02*
X1171667Y-3786714D01*
X1162143Y-3767667D01*
X1143095Y-3758143D01*
X1114524Y-3758143D01*
X1095476Y-3767667D01*
X1085952Y-3777190D01*
X1295476Y-3891476D02*
X1276429Y-3881952D01*
X1266905Y-3872428D01*
X1257381Y-3853381D01*
X1257381Y-3796238D01*
X1266905Y-3777190D01*
X1276429Y-3767667D01*
X1295476Y-3758143D01*
X1324048Y-3758143D01*
X1343095Y-3767667D01*
X1352619Y-3777190D01*
X1362143Y-3796238D01*
X1362143Y-3853381D01*
X1352619Y-3872428D01*
X1343095Y-3881952D01*
X1324048Y-3891476D01*
X1295476Y-3891476D01*
X1476428Y-3891476D02*
X1457381Y-3881952D01*
X1447857Y-3862905D01*
X1447857Y-3691476D01*
X1628809Y-3881952D02*
X1609762Y-3891476D01*
X1571667Y-3891476D01*
X1552619Y-3881952D01*
X1543095Y-3862905D01*
X1543095Y-3786714D01*
X1552619Y-3767667D01*
X1571667Y-3758143D01*
X1609762Y-3758143D01*
X1628809Y-3767667D01*
X1638333Y-3786714D01*
X1638333Y-3805762D01*
X1543095Y-3824809D01*
X1714524Y-3881952D02*
X1733571Y-3891476D01*
X1771667Y-3891476D01*
X1790714Y-3881952D01*
X1800238Y-3862905D01*
X1800238Y-3853381D01*
X1790714Y-3834333D01*
X1771667Y-3824809D01*
X1743095Y-3824809D01*
X1724048Y-3815286D01*
X1714524Y-3796238D01*
X1714524Y-3786714D01*
X1724048Y-3767667D01*
X1743095Y-3758143D01*
X1771667Y-3758143D01*
X1790714Y-3767667D01*
X1866905Y-3967667D02*
X1876428Y-3958143D01*
X1895476Y-3929571D01*
X1905000Y-3910524D01*
X1914524Y-3881952D01*
X1924048Y-3834333D01*
X1924048Y-3796238D01*
X1914524Y-3748619D01*
X1905000Y-3720048D01*
X1895476Y-3701000D01*
X1876428Y-3672428D01*
X1866905Y-3662905D01*
M02*
